<?xml version="1.0" encoding="utf-8" standalone="no"?>
<!DOCTYPE svg PUBLIC "-//W3C//DTD SVG 1.1//EN"
  "http://www.w3.org/Graphics/SVG/1.1/DTD/svg11.dtd">
<svg xmlns:xlink="http://www.w3.org/1999/xlink" width="1448.39952pt" height="440.39952pt" viewBox="0 0 1448.39952 440.39952" xmlns="http://www.w3.org/2000/svg" version="1.1">
 <metadata>
  <rdf:RDF xmlns:dc="http://purl.org/dc/elements/1.1/" xmlns:cc="http://creativecommons.org/ns#" xmlns:rdf="http://www.w3.org/1999/02/22-rdf-syntax-ns#">
   <cc:Work>
    <dc:type rdf:resource="http://purl.org/dc/dcmitype/StillImage"/>
    <dc:date>2025-07-02T15:42:50.278010</dc:date>
    <dc:format>image/svg+xml</dc:format>
    <dc:creator>
     <cc:Agent>
      <dc:title>Matplotlib v3.10.3, https://matplotlib.org/</dc:title>
     </cc:Agent>
    </dc:creator>
   </cc:Work>
  </rdf:RDF>
 </metadata>
 <defs>
  <style type="text/css">*{stroke-linejoin: round; stroke-linecap: butt}</style>
 </defs>
 <g id="figure_1">
  <g id="patch_1">
   <path d="M 0 440.39952 
L 1448.39952 440.39952 
L 1448.39952 0 
L 0 0 
L 0 440.39952 
z
" style="fill: none"/>
  </g>
  <g id="axes_1">
   <g id="patch_2">
    <path d="M 65.251875 399.191395 
L 490.849319 399.191395 
L 490.849319 32.345625 
L 65.251875 32.345625 
L 65.251875 399.191395 
z
" style="fill: none"/>
   </g>
   <g id="matplotlib.axis_1">
    <g id="xtick_1">
     <g id="line2d_1">
      <path d="M 84.597213 399.191395 
L 84.597213 32.345625 
" clip-path="url(#p46ef72e8b9)" style="fill: none; stroke: #f0f0f0; stroke-width: 0.7; stroke-linecap: round"/>
     </g>
     <g id="line2d_2"/>
     <g id="text_1">
      <!-- 0 -->
      <g style="fill: #262626" transform="translate(81.816745 409.93827) scale(0.1 -0.1)">
       <defs>
        <path id="LiberationSans-30" d="M 3309 2203 
Q 3309 1100 2920 518 
Q 2531 -63 1772 -63 
Q 1013 -63 631 515 
Q 250 1094 250 2203 
Q 250 3338 620 3903 
Q 991 4469 1791 4469 
Q 2569 4469 2939 3897 
Q 3309 3325 3309 2203 
z
M 2738 2203 
Q 2738 3156 2517 3584 
Q 2297 4013 1791 4013 
Q 1272 4013 1045 3591 
Q 819 3169 819 2203 
Q 819 1266 1048 831 
Q 1278 397 1778 397 
Q 2275 397 2506 840 
Q 2738 1284 2738 2203 
z
" transform="scale(0.015625)"/>
       </defs>
       <use xlink:href="#LiberationSans-30"/>
      </g>
     </g>
    </g>
    <g id="xtick_2">
     <g id="line2d_3">
      <path d="M 172.53057 399.191395 
L 172.53057 32.345625 
" clip-path="url(#p46ef72e8b9)" style="fill: none; stroke: #f0f0f0; stroke-width: 0.7; stroke-linecap: round"/>
     </g>
     <g id="line2d_4"/>
     <g id="text_2">
      <!-- 5 -->
      <g style="fill: #262626" transform="translate(169.750101 409.93827) scale(0.1 -0.1)">
       <defs>
        <path id="LiberationSans-35" d="M 3291 1434 
Q 3291 738 2877 337 
Q 2463 -63 1728 -63 
Q 1113 -63 734 206 
Q 356 475 256 984 
L 825 1050 
Q 1003 397 1741 397 
Q 2194 397 2450 670 
Q 2706 944 2706 1422 
Q 2706 1838 2448 2094 
Q 2191 2350 1753 2350 
Q 1525 2350 1328 2278 
Q 1131 2206 934 2034 
L 384 2034 
L 531 4403 
L 3034 4403 
L 3034 3925 
L 1044 3925 
L 959 2528 
Q 1325 2809 1869 2809 
Q 2519 2809 2905 2428 
Q 3291 2047 3291 1434 
z
" transform="scale(0.015625)"/>
       </defs>
       <use xlink:href="#LiberationSans-35"/>
      </g>
     </g>
    </g>
    <g id="xtick_3">
     <g id="line2d_5">
      <path d="M 260.463926 399.191395 
L 260.463926 32.345625 
" clip-path="url(#p46ef72e8b9)" style="fill: none; stroke: #f0f0f0; stroke-width: 0.7; stroke-linecap: round"/>
     </g>
     <g id="line2d_6"/>
     <g id="text_3">
      <!-- 10 -->
      <g style="fill: #262626" transform="translate(254.902988 409.93827) scale(0.1 -0.1)">
       <defs>
        <path id="LiberationSans-31" d="M 488 0 
L 488 478 
L 1609 478 
L 1609 3866 
L 616 3156 
L 616 3688 
L 1656 4403 
L 2175 4403 
L 2175 478 
L 3247 478 
L 3247 0 
L 488 0 
z
" transform="scale(0.015625)"/>
       </defs>
       <use xlink:href="#LiberationSans-31"/>
       <use xlink:href="#LiberationSans-30" transform="translate(55.615234 0)"/>
      </g>
     </g>
    </g>
    <g id="xtick_4">
     <g id="line2d_7">
      <path d="M 348.397282 399.191395 
L 348.397282 32.345625 
" clip-path="url(#p46ef72e8b9)" style="fill: none; stroke: #f0f0f0; stroke-width: 0.7; stroke-linecap: round"/>
     </g>
     <g id="line2d_8"/>
     <g id="text_4">
      <!-- 15 -->
      <g style="fill: #262626" transform="translate(342.836345 409.93827) scale(0.1 -0.1)">
       <use xlink:href="#LiberationSans-31"/>
       <use xlink:href="#LiberationSans-35" transform="translate(55.615234 0)"/>
      </g>
     </g>
    </g>
    <g id="xtick_5">
     <g id="line2d_9">
      <path d="M 436.330638 399.191395 
L 436.330638 32.345625 
" clip-path="url(#p46ef72e8b9)" style="fill: none; stroke: #f0f0f0; stroke-width: 0.7; stroke-linecap: round"/>
     </g>
     <g id="line2d_10"/>
     <g id="text_5">
      <!-- 20 -->
      <g style="fill: #262626" transform="translate(430.769701 409.93827) scale(0.1 -0.1)">
       <defs>
        <path id="LiberationSans-32" d="M 322 0 
L 322 397 
Q 481 763 711 1042 
Q 941 1322 1194 1548 
Q 1447 1775 1695 1969 
Q 1944 2163 2144 2356 
Q 2344 2550 2467 2762 
Q 2591 2975 2591 3244 
Q 2591 3606 2378 3806 
Q 2166 4006 1788 4006 
Q 1428 4006 1195 3811 
Q 963 3616 922 3263 
L 347 3316 
Q 409 3844 795 4156 
Q 1181 4469 1788 4469 
Q 2453 4469 2811 4155 
Q 3169 3841 3169 3263 
Q 3169 3006 3051 2753 
Q 2934 2500 2703 2247 
Q 2472 1994 1819 1463 
Q 1459 1169 1246 933 
Q 1034 697 941 478 
L 3238 478 
L 3238 0 
L 322 0 
z
" transform="scale(0.015625)"/>
       </defs>
       <use xlink:href="#LiberationSans-32"/>
       <use xlink:href="#LiberationSans-30" transform="translate(55.615234 0)"/>
      </g>
     </g>
    </g>
    <g id="text_6">
     <!-- Epoch -->
     <g style="fill: #262626" transform="translate(261.038722 430.70952) scale(0.12 -0.12)">
      <defs>
       <path id="LiberationSans-45" d="M 525 0 
L 525 4403 
L 3866 4403 
L 3866 3916 
L 1122 3916 
L 1122 2503 
L 3678 2503 
L 3678 2022 
L 1122 2022 
L 1122 488 
L 3994 488 
L 3994 0 
L 525 0 
z
" transform="scale(0.015625)"/>
       <path id="LiberationSans-70" d="M 3291 1706 
Q 3291 -63 2047 -63 
Q 1266 -63 997 525 
L 981 525 
Q 994 500 994 -6 
L 994 -1328 
L 431 -1328 
L 431 2691 
Q 431 3213 413 3381 
L 956 3381 
Q 959 3369 965 3292 
Q 972 3216 980 3056 
Q 988 2897 988 2838 
L 1000 2838 
Q 1150 3150 1397 3295 
Q 1644 3441 2047 3441 
Q 2672 3441 2981 3022 
Q 3291 2603 3291 1706 
z
M 2700 1694 
Q 2700 2400 2509 2703 
Q 2319 3006 1903 3006 
Q 1569 3006 1380 2865 
Q 1191 2725 1092 2426 
Q 994 2128 994 1650 
Q 994 984 1206 668 
Q 1419 353 1897 353 
Q 2316 353 2508 661 
Q 2700 969 2700 1694 
z
" transform="scale(0.015625)"/>
       <path id="LiberationSans-6f" d="M 3291 1694 
Q 3291 806 2900 371 
Q 2509 -63 1766 -63 
Q 1025 -63 647 389 
Q 269 841 269 1694 
Q 269 3444 1784 3444 
Q 2559 3444 2925 3017 
Q 3291 2591 3291 1694 
z
M 2700 1694 
Q 2700 2394 2492 2711 
Q 2284 3028 1794 3028 
Q 1300 3028 1079 2704 
Q 859 2381 859 1694 
Q 859 1025 1076 689 
Q 1294 353 1759 353 
Q 2266 353 2483 678 
Q 2700 1003 2700 1694 
z
" transform="scale(0.015625)"/>
       <path id="LiberationSans-63" d="M 859 1706 
Q 859 1031 1071 706 
Q 1284 381 1713 381 
Q 2013 381 2214 543 
Q 2416 706 2463 1044 
L 3031 1006 
Q 2966 519 2616 228 
Q 2266 -63 1728 -63 
Q 1019 -63 645 385 
Q 272 834 272 1694 
Q 272 2547 647 2995 
Q 1022 3444 1722 3444 
Q 2241 3444 2583 3175 
Q 2925 2906 3013 2434 
L 2434 2391 
Q 2391 2672 2212 2837 
Q 2034 3003 1706 3003 
Q 1259 3003 1059 2706 
Q 859 2409 859 1706 
z
" transform="scale(0.015625)"/>
       <path id="LiberationSans-68" d="M 991 2803 
Q 1172 3134 1426 3289 
Q 1681 3444 2072 3444 
Q 2622 3444 2883 3170 
Q 3144 2897 3144 2253 
L 3144 0 
L 2578 0 
L 2578 2144 
Q 2578 2500 2512 2673 
Q 2447 2847 2297 2928 
Q 2147 3009 1881 3009 
Q 1484 3009 1245 2734 
Q 1006 2459 1006 1994 
L 1006 0 
L 444 0 
L 444 4638 
L 1006 4638 
L 1006 3431 
Q 1006 3241 995 3037 
Q 984 2834 981 2803 
L 991 2803 
z
" transform="scale(0.015625)"/>
      </defs>
      <use xlink:href="#LiberationSans-45"/>
      <use xlink:href="#LiberationSans-70" transform="translate(66.699219 0)"/>
      <use xlink:href="#LiberationSans-6f" transform="translate(122.314453 0)"/>
      <use xlink:href="#LiberationSans-63" transform="translate(177.929688 0)"/>
      <use xlink:href="#LiberationSans-68" transform="translate(227.929688 0)"/>
     </g>
    </g>
   </g>
   <g id="matplotlib.axis_2">
    <g id="ytick_1">
     <g id="line2d_11">
      <path d="M 65.251875 326.431477 
L 490.849319 326.431477 
" clip-path="url(#p46ef72e8b9)" style="fill: none; stroke: #f0f0f0; stroke-width: 0.7; stroke-linecap: round"/>
     </g>
     <g id="line2d_12"/>
     <g id="text_7">
      <!-- 100000 -->
      <g style="fill: #262626" transform="translate(28.38625 330.054914) scale(0.1 -0.1)">
       <use xlink:href="#LiberationSans-31"/>
       <use xlink:href="#LiberationSans-30" transform="translate(55.615234 0)"/>
       <use xlink:href="#LiberationSans-30" transform="translate(111.230469 0)"/>
       <use xlink:href="#LiberationSans-30" transform="translate(166.845703 0)"/>
       <use xlink:href="#LiberationSans-30" transform="translate(222.460938 0)"/>
       <use xlink:href="#LiberationSans-30" transform="translate(278.076172 0)"/>
      </g>
     </g>
    </g>
    <g id="ytick_2">
     <g id="line2d_13">
      <path d="M 65.251875 252.661809 
L 490.849319 252.661809 
" clip-path="url(#p46ef72e8b9)" style="fill: none; stroke: #f0f0f0; stroke-width: 0.7; stroke-linecap: round"/>
     </g>
     <g id="line2d_14"/>
     <g id="text_8">
      <!-- 200000 -->
      <g style="fill: #262626" transform="translate(28.38625 256.285246) scale(0.1 -0.1)">
       <use xlink:href="#LiberationSans-32"/>
       <use xlink:href="#LiberationSans-30" transform="translate(55.615234 0)"/>
       <use xlink:href="#LiberationSans-30" transform="translate(111.230469 0)"/>
       <use xlink:href="#LiberationSans-30" transform="translate(166.845703 0)"/>
       <use xlink:href="#LiberationSans-30" transform="translate(222.460938 0)"/>
       <use xlink:href="#LiberationSans-30" transform="translate(278.076172 0)"/>
      </g>
     </g>
    </g>
    <g id="ytick_3">
     <g id="line2d_15">
      <path d="M 65.251875 178.892141 
L 490.849319 178.892141 
" clip-path="url(#p46ef72e8b9)" style="fill: none; stroke: #f0f0f0; stroke-width: 0.7; stroke-linecap: round"/>
     </g>
     <g id="line2d_16"/>
     <g id="text_9">
      <!-- 300000 -->
      <g style="fill: #262626" transform="translate(28.38625 182.515578) scale(0.1 -0.1)">
       <defs>
        <path id="LiberationSans-33" d="M 3278 1216 
Q 3278 606 2890 271 
Q 2503 -63 1784 -63 
Q 1116 -63 717 239 
Q 319 541 244 1131 
L 825 1184 
Q 938 403 1784 403 
Q 2209 403 2451 612 
Q 2694 822 2694 1234 
Q 2694 1594 2417 1795 
Q 2141 1997 1619 1997 
L 1300 1997 
L 1300 2484 
L 1606 2484 
Q 2069 2484 2323 2686 
Q 2578 2888 2578 3244 
Q 2578 3597 2370 3801 
Q 2163 4006 1753 4006 
Q 1381 4006 1151 3815 
Q 922 3625 884 3278 
L 319 3322 
Q 381 3863 767 4166 
Q 1153 4469 1759 4469 
Q 2422 4469 2789 4161 
Q 3156 3853 3156 3303 
Q 3156 2881 2920 2617 
Q 2684 2353 2234 2259 
L 2234 2247 
Q 2728 2194 3003 1916 
Q 3278 1638 3278 1216 
z
" transform="scale(0.015625)"/>
       </defs>
       <use xlink:href="#LiberationSans-33"/>
       <use xlink:href="#LiberationSans-30" transform="translate(55.615234 0)"/>
       <use xlink:href="#LiberationSans-30" transform="translate(111.230469 0)"/>
       <use xlink:href="#LiberationSans-30" transform="translate(166.845703 0)"/>
       <use xlink:href="#LiberationSans-30" transform="translate(222.460938 0)"/>
       <use xlink:href="#LiberationSans-30" transform="translate(278.076172 0)"/>
      </g>
     </g>
    </g>
    <g id="ytick_4">
     <g id="line2d_17">
      <path d="M 65.251875 105.122473 
L 490.849319 105.122473 
" clip-path="url(#p46ef72e8b9)" style="fill: none; stroke: #f0f0f0; stroke-width: 0.7; stroke-linecap: round"/>
     </g>
     <g id="line2d_18"/>
     <g id="text_10">
      <!-- 400000 -->
      <g style="fill: #262626" transform="translate(28.38625 108.74591) scale(0.1 -0.1)">
       <defs>
        <path id="LiberationSans-34" d="M 2753 997 
L 2753 0 
L 2222 0 
L 2222 997 
L 147 997 
L 147 1434 
L 2163 4403 
L 2753 4403 
L 2753 1441 
L 3372 1441 
L 3372 997 
L 2753 997 
z
M 2222 3769 
Q 2216 3750 2134 3603 
Q 2053 3456 2013 3397 
L 884 1734 
L 716 1503 
L 666 1441 
L 2222 1441 
L 2222 3769 
z
" transform="scale(0.015625)"/>
       </defs>
       <use xlink:href="#LiberationSans-34"/>
       <use xlink:href="#LiberationSans-30" transform="translate(55.615234 0)"/>
       <use xlink:href="#LiberationSans-30" transform="translate(111.230469 0)"/>
       <use xlink:href="#LiberationSans-30" transform="translate(166.845703 0)"/>
       <use xlink:href="#LiberationSans-30" transform="translate(222.460938 0)"/>
       <use xlink:href="#LiberationSans-30" transform="translate(278.076172 0)"/>
      </g>
     </g>
    </g>
    <g id="text_11">
     <!-- Loss -->
     <g style="fill: #262626" transform="translate(15.89625 228.441635) rotate(-90) scale(0.12 -0.12)">
      <defs>
       <path id="LiberationSans-4c" d="M 525 0 
L 525 4403 
L 1122 4403 
L 1122 488 
L 3347 488 
L 3347 0 
L 525 0 
z
" transform="scale(0.015625)"/>
       <path id="LiberationSans-73" d="M 2969 934 
Q 2969 456 2608 196 
Q 2247 -63 1597 -63 
Q 966 -63 623 145 
Q 281 353 178 794 
L 675 891 
Q 747 619 972 492 
Q 1197 366 1597 366 
Q 2025 366 2223 497 
Q 2422 628 2422 891 
Q 2422 1091 2284 1216 
Q 2147 1341 1841 1422 
L 1438 1528 
Q 953 1653 748 1773 
Q 544 1894 428 2066 
Q 313 2238 313 2488 
Q 313 2950 642 3192 
Q 972 3434 1603 3434 
Q 2163 3434 2492 3237 
Q 2822 3041 2909 2606 
L 2403 2544 
Q 2356 2769 2151 2889 
Q 1947 3009 1603 3009 
Q 1222 3009 1040 2893 
Q 859 2778 859 2544 
Q 859 2400 934 2306 
Q 1009 2213 1156 2147 
Q 1303 2081 1775 1966 
Q 2222 1853 2419 1758 
Q 2616 1663 2730 1547 
Q 2844 1431 2906 1279 
Q 2969 1128 2969 934 
z
" transform="scale(0.015625)"/>
      </defs>
      <use xlink:href="#LiberationSans-4c"/>
      <use xlink:href="#LiberationSans-6f" transform="translate(55.615234 0)"/>
      <use xlink:href="#LiberationSans-73" transform="translate(111.230469 0)"/>
      <use xlink:href="#LiberationSans-73" transform="translate(161.230469 0)"/>
     </g>
    </g>
   </g>
   <g id="line2d_19">
    <path d="M 84.597213 49.020433 
L 102.183885 96.799341 
L 119.770556 167.83877 
L 137.357227 234.30999 
L 154.943898 288.56818 
L 172.53057 327.947184 
L 190.117241 351.452863 
L 207.703912 364.27595 
L 225.290583 374.66297 
L 242.877255 378.315946 
L 260.463926 378.776745 
L 278.050597 379.355992 
L 295.637268 379.867851 
L 313.22394 380.856787 
L 330.810611 381.073412 
L 348.397282 381.73105 
L 365.983953 381.723062 
L 383.570625 382.065043 
L 401.157296 381.86376 
L 418.743967 381.986518 
L 436.330638 382.405792 
L 453.91731 382.485385 
L 471.503981 382.516587 
" clip-path="url(#p46ef72e8b9)" style="fill: none; stroke: #1f77b4; stroke-opacity: 0.9; stroke-width: 3; stroke-linecap: round"/>
   </g>
   <g id="line2d_20">
    <path d="M 84.597213 71.152647 
L 102.183885 126.087144 
L 119.770556 208.782965 
L 137.357227 262.73508 
L 154.943898 307.166839 
L 172.53057 341.044159 
L 190.117241 360.826461 
L 207.703912 368.623756 
L 225.290583 373.178658 
L 242.877255 371.07945 
L 260.463926 374.053207 
L 278.050597 374.509895 
L 295.637268 372.360786 
L 313.22394 372.707838 
L 330.810611 375.074986 
L 348.397282 376.587172 
L 365.983953 373.659991 
L 383.570625 376.032761 
L 401.157296 375.131996 
L 418.743967 375.451251 
L 436.330638 375.944822 
L 453.91731 376.401214 
L 471.503981 376.338545 
" clip-path="url(#p46ef72e8b9)" style="fill: none; stroke-dasharray: 11.1,4.8; stroke-dashoffset: 0; stroke: #d62728; stroke-opacity: 0.9; stroke-width: 3; stroke-linecap: round"/>
   </g>
   <g id="patch_3">
    <path d="M 65.251875 399.191395 
L 65.251875 32.345625 
" style="fill: none; stroke: #000000; stroke-width: 0.8; stroke-linejoin: miter; stroke-linecap: square"/>
   </g>
   <g id="patch_4">
    <path d="M 490.849319 399.191395 
L 490.849319 32.345625 
" style="fill: none; stroke: #000000; stroke-width: 0.8; stroke-linejoin: miter; stroke-linecap: square"/>
   </g>
   <g id="patch_5">
    <path d="M 65.251875 399.191395 
L 490.849319 399.191395 
" style="fill: none; stroke: #000000; stroke-width: 0.8; stroke-linejoin: miter; stroke-linecap: square"/>
   </g>
   <g id="patch_6">
    <path d="M 65.251875 32.345625 
L 490.849319 32.345625 
" style="fill: none; stroke: #000000; stroke-width: 0.8; stroke-linejoin: miter; stroke-linecap: square"/>
   </g>
   <g id="text_12">
    <!-- DNN Training Loss -->
    <g style="fill: #262626" transform="translate(215.435597 17.345625) scale(0.14 -0.14)">
     <defs>
      <path id="LiberationSans-Bold-44" d="M 4353 2234 
Q 4353 1553 4086 1045 
Q 3819 538 3330 269 
Q 2841 0 2209 0 
L 428 0 
L 428 4403 
L 2022 4403 
Q 3134 4403 3743 3842 
Q 4353 3281 4353 2234 
z
M 3425 2234 
Q 3425 2944 3056 3317 
Q 2688 3691 2003 3691 
L 1350 3691 
L 1350 713 
L 2131 713 
Q 2725 713 3075 1122 
Q 3425 1531 3425 2234 
z
" transform="scale(0.015625)"/>
      <path id="LiberationSans-Bold-4e" d="M 3109 0 
L 1191 3391 
Q 1247 2897 1247 2597 
L 1247 0 
L 428 0 
L 428 4403 
L 1481 4403 
L 3428 984 
Q 3372 1456 3372 1844 
L 3372 4403 
L 4191 4403 
L 4191 0 
L 3109 0 
z
" transform="scale(0.015625)"/>
      <path id="LiberationSans-Bold-20" transform="scale(0.015625)"/>
      <path id="LiberationSans-Bold-54" d="M 2416 3691 
L 2416 0 
L 1494 0 
L 1494 3691 
L 72 3691 
L 72 4403 
L 3841 4403 
L 3841 3691 
L 2416 3691 
z
" transform="scale(0.015625)"/>
      <path id="LiberationSans-Bold-72" d="M 447 0 
L 447 2588 
Q 447 2866 439 3052 
Q 431 3238 422 3381 
L 1259 3381 
Q 1269 3325 1284 3039 
Q 1300 2753 1300 2659 
L 1313 2659 
Q 1441 3016 1541 3161 
Q 1641 3306 1778 3376 
Q 1916 3447 2122 3447 
Q 2291 3447 2394 3400 
L 2394 2666 
Q 2181 2713 2019 2713 
Q 1691 2713 1508 2447 
Q 1325 2181 1325 1659 
L 1325 0 
L 447 0 
z
" transform="scale(0.015625)"/>
      <path id="LiberationSans-Bold-61" d="M 1228 -63 
Q 738 -63 463 204 
Q 188 472 188 956 
Q 188 1481 530 1756 
Q 872 2031 1522 2038 
L 2250 2050 
L 2250 2222 
Q 2250 2553 2134 2714 
Q 2019 2875 1756 2875 
Q 1513 2875 1398 2764 
Q 1284 2653 1256 2397 
L 341 2441 
Q 425 2934 792 3189 
Q 1159 3444 1794 3444 
Q 2434 3444 2781 3128 
Q 3128 2813 3128 2231 
L 3128 1000 
Q 3128 716 3192 608 
Q 3256 500 3406 500 
Q 3506 500 3600 519 
L 3600 44 
Q 3522 25 3459 9 
Q 3397 -6 3334 -15 
Q 3272 -25 3201 -31 
Q 3131 -38 3038 -38 
Q 2706 -38 2548 125 
Q 2391 288 2359 603 
L 2341 603 
Q 1972 -63 1228 -63 
z
M 2250 1566 
L 1800 1559 
Q 1494 1547 1366 1492 
Q 1238 1438 1170 1325 
Q 1103 1213 1103 1025 
Q 1103 784 1214 667 
Q 1325 550 1509 550 
Q 1716 550 1886 662 
Q 2056 775 2153 973 
Q 2250 1172 2250 1394 
L 2250 1566 
z
" transform="scale(0.015625)"/>
      <path id="LiberationSans-Bold-69" d="M 447 3991 
L 447 4638 
L 1325 4638 
L 1325 3991 
L 447 3991 
z
M 447 0 
L 447 3381 
L 1325 3381 
L 1325 0 
L 447 0 
z
" transform="scale(0.015625)"/>
      <path id="LiberationSans-Bold-6e" d="M 2638 0 
L 2638 1897 
Q 2638 2788 2034 2788 
Q 1716 2788 1520 2514 
Q 1325 2241 1325 1813 
L 1325 0 
L 447 0 
L 447 2625 
Q 447 2897 439 3070 
Q 431 3244 422 3381 
L 1259 3381 
Q 1269 3322 1284 3064 
Q 1300 2806 1300 2709 
L 1313 2709 
Q 1491 3097 1759 3272 
Q 2028 3447 2400 3447 
Q 2938 3447 3225 3115 
Q 3513 2784 3513 2147 
L 3513 0 
L 2638 0 
z
" transform="scale(0.015625)"/>
      <path id="LiberationSans-Bold-67" d="M 1863 -1356 
Q 1244 -1356 867 -1120 
Q 491 -884 403 -447 
L 1281 -344 
Q 1328 -547 1483 -662 
Q 1638 -778 1888 -778 
Q 2253 -778 2422 -553 
Q 2591 -328 2591 116 
L 2591 294 
L 2597 628 
L 2591 628 
Q 2300 6 1503 6 
Q 913 6 588 450 
Q 263 894 263 1719 
Q 263 2547 597 2997 
Q 931 3447 1569 3447 
Q 2306 3447 2591 2838 
L 2606 2838 
Q 2606 2947 2620 3134 
Q 2634 3322 2650 3381 
L 3481 3381 
Q 3463 3044 3463 2600 
L 3463 103 
Q 3463 -619 3053 -987 
Q 2644 -1356 1863 -1356 
z
M 2597 1738 
Q 2597 2259 2411 2551 
Q 2225 2844 1881 2844 
Q 1178 2844 1178 1719 
Q 1178 616 1875 616 
Q 2225 616 2411 908 
Q 2597 1200 2597 1738 
z
" transform="scale(0.015625)"/>
      <path id="LiberationSans-Bold-4c" d="M 428 0 
L 428 4403 
L 1350 4403 
L 1350 713 
L 3713 713 
L 3713 0 
L 428 0 
z
" transform="scale(0.015625)"/>
      <path id="LiberationSans-Bold-6f" d="M 3659 1694 
Q 3659 872 3203 404 
Q 2747 -63 1941 -63 
Q 1150 -63 700 406 
Q 250 875 250 1694 
Q 250 2509 700 2976 
Q 1150 3444 1959 3444 
Q 2788 3444 3223 2992 
Q 3659 2541 3659 1694 
z
M 2741 1694 
Q 2741 2297 2544 2569 
Q 2347 2841 1972 2841 
Q 1172 2841 1172 1694 
Q 1172 1128 1367 833 
Q 1563 538 1931 538 
Q 2741 538 2741 1694 
z
" transform="scale(0.015625)"/>
      <path id="LiberationSans-Bold-73" d="M 3297 988 
Q 3297 497 2895 217 
Q 2494 -63 1784 -63 
Q 1088 -63 717 157 
Q 347 378 225 844 
L 997 959 
Q 1063 719 1223 619 
Q 1384 519 1784 519 
Q 2153 519 2322 612 
Q 2491 706 2491 906 
Q 2491 1069 2355 1164 
Q 2219 1259 1894 1325 
Q 1150 1472 890 1598 
Q 631 1725 495 1926 
Q 359 2128 359 2422 
Q 359 2906 732 3176 
Q 1106 3447 1791 3447 
Q 2394 3447 2761 3212 
Q 3128 2978 3219 2534 
L 2441 2453 
Q 2403 2659 2256 2761 
Q 2109 2863 1791 2863 
Q 1478 2863 1322 2783 
Q 1166 2703 1166 2516 
Q 1166 2369 1286 2283 
Q 1406 2197 1691 2141 
Q 2088 2059 2395 1973 
Q 2703 1888 2889 1769 
Q 3075 1650 3186 1464 
Q 3297 1278 3297 988 
z
" transform="scale(0.015625)"/>
     </defs>
     <use xlink:href="#LiberationSans-Bold-44"/>
     <use xlink:href="#LiberationSans-Bold-4e" transform="translate(72.216797 0)"/>
     <use xlink:href="#LiberationSans-Bold-4e" transform="translate(144.433594 0)"/>
     <use xlink:href="#LiberationSans-Bold-20" transform="translate(216.650391 0)"/>
     <use xlink:href="#LiberationSans-Bold-54" transform="translate(244.433594 0)"/>
     <use xlink:href="#LiberationSans-Bold-72" transform="translate(300.017578 0)"/>
     <use xlink:href="#LiberationSans-Bold-61" transform="translate(338.933594 0)"/>
     <use xlink:href="#LiberationSans-Bold-69" transform="translate(394.548828 0)"/>
     <use xlink:href="#LiberationSans-Bold-6e" transform="translate(422.332031 0)"/>
     <use xlink:href="#LiberationSans-Bold-69" transform="translate(483.416016 0)"/>
     <use xlink:href="#LiberationSans-Bold-6e" transform="translate(511.199219 0)"/>
     <use xlink:href="#LiberationSans-Bold-67" transform="translate(572.283203 0)"/>
     <use xlink:href="#LiberationSans-Bold-20" transform="translate(633.367188 0)"/>
     <use xlink:href="#LiberationSans-Bold-4c" transform="translate(661.150391 0)"/>
     <use xlink:href="#LiberationSans-Bold-6f" transform="translate(722.234375 0)"/>
     <use xlink:href="#LiberationSans-Bold-73" transform="translate(783.318359 0)"/>
     <use xlink:href="#LiberationSans-Bold-73" transform="translate(838.933594 0)"/>
    </g>
   </g>
   <g id="legend_1">
    <g id="patch_7">
     <path d="M 351.874319 77.34375 
L 482.449319 77.34375 
Q 484.849319 77.34375 484.849319 74.94375 
L 484.849319 40.745625 
Q 484.849319 38.345625 482.449319 38.345625 
L 351.874319 38.345625 
Q 349.474319 38.345625 349.474319 40.745625 
L 349.474319 74.94375 
Q 349.474319 77.34375 351.874319 77.34375 
z
" style="fill: #ffffff; opacity: 0.9; stroke: #808080; stroke-linejoin: miter"/>
    </g>
    <g id="line2d_21">
     <path d="M 354.274319 48.06375 
L 366.274319 48.06375 
L 378.274319 48.06375 
" style="fill: none; stroke: #1f77b4; stroke-opacity: 0.9; stroke-width: 3; stroke-linecap: round"/>
    </g>
    <g id="text_13">
     <!-- Training Loss -->
     <g style="fill: #262626" transform="translate(387.874319 52.26375) scale(0.12 -0.12)">
      <defs>
       <path id="DejaVuSerif-54" d="M 1222 0 
L 1222 331 
L 1819 331 
L 1819 4294 
L 447 4294 
L 447 3566 
L 63 3566 
L 63 4666 
L 4206 4666 
L 4206 3566 
L 3822 3566 
L 3822 4294 
L 2450 4294 
L 2450 331 
L 3047 331 
L 3047 0 
L 1222 0 
z
" transform="scale(0.015625)"/>
       <path id="DejaVuSerif-72" d="M 3059 3328 
L 3059 2497 
L 2728 2497 
Q 2713 2744 2591 2866 
Q 2469 2988 2234 2988 
Q 1809 2988 1582 2694 
Q 1356 2400 1356 1850 
L 1356 331 
L 2022 331 
L 2022 0 
L 263 0 
L 263 331 
L 781 331 
L 781 2994 
L 231 2994 
L 231 3322 
L 1356 3322 
L 1356 2731 
Q 1525 3078 1790 3245 
Q 2056 3413 2438 3413 
Q 2578 3413 2733 3391 
Q 2888 3369 3059 3328 
z
" transform="scale(0.015625)"/>
       <path id="DejaVuSerif-61" d="M 2547 1044 
L 2547 1747 
L 1806 1747 
Q 1378 1747 1168 1562 
Q 959 1378 959 997 
Q 959 650 1171 447 
Q 1384 244 1747 244 
Q 2106 244 2326 466 
Q 2547 688 2547 1044 
z
M 3122 2075 
L 3122 331 
L 3634 331 
L 3634 0 
L 2547 0 
L 2547 359 
Q 2356 128 2106 18 
Q 1856 -91 1522 -91 
Q 969 -91 644 203 
Q 319 497 319 997 
Q 319 1513 691 1797 
Q 1063 2081 1741 2081 
L 2547 2081 
L 2547 2309 
Q 2547 2688 2317 2895 
Q 2088 3103 1672 3103 
Q 1328 3103 1125 2947 
Q 922 2791 872 2484 
L 575 2484 
L 575 3156 
Q 875 3284 1158 3348 
Q 1441 3413 1709 3413 
Q 2400 3413 2761 3070 
Q 3122 2728 3122 2075 
z
" transform="scale(0.015625)"/>
       <path id="DejaVuSerif-69" d="M 622 4353 
Q 622 4497 726 4603 
Q 831 4709 978 4709 
Q 1122 4709 1226 4603 
Q 1331 4497 1331 4353 
Q 1331 4206 1228 4103 
Q 1125 4000 978 4000 
Q 831 4000 726 4103 
Q 622 4206 622 4353 
z
M 1356 331 
L 1900 331 
L 1900 0 
L 231 0 
L 231 331 
L 781 331 
L 781 2988 
L 231 2988 
L 231 3322 
L 1356 3322 
L 1356 331 
z
" transform="scale(0.015625)"/>
       <path id="DejaVuSerif-6e" d="M 263 0 
L 263 331 
L 781 331 
L 781 2988 
L 231 2988 
L 231 3322 
L 1356 3322 
L 1356 2731 
Q 1516 3069 1770 3241 
Q 2025 3413 2363 3413 
Q 2913 3413 3172 3097 
Q 3431 2781 3431 2113 
L 3431 331 
L 3944 331 
L 3944 0 
L 2356 0 
L 2356 331 
L 2853 331 
L 2853 1931 
Q 2853 2541 2703 2767 
Q 2553 2994 2175 2994 
Q 1775 2994 1565 2701 
Q 1356 2409 1356 1850 
L 1356 331 
L 1856 331 
L 1856 0 
L 263 0 
z
" transform="scale(0.015625)"/>
       <path id="DejaVuSerif-67" d="M 3359 2988 
L 3359 72 
Q 3359 -644 2965 -1033 
Q 2572 -1422 1844 -1422 
Q 1516 -1422 1216 -1362 
Q 916 -1303 641 -1184 
L 641 -488 
L 941 -488 
Q 997 -813 1206 -963 
Q 1416 -1113 1806 -1113 
Q 2313 -1113 2548 -827 
Q 2784 -541 2784 72 
L 2784 519 
Q 2616 206 2355 57 
Q 2094 -91 1709 -91 
Q 1097 -91 708 395 
Q 319 881 319 1663 
Q 319 2444 706 2928 
Q 1094 3413 1709 3413 
Q 2094 3413 2355 3264 
Q 2616 3116 2784 2803 
L 2784 3322 
L 3909 3322 
L 3909 2988 
L 3359 2988 
z
M 2784 1825 
Q 2784 2422 2554 2737 
Q 2325 3053 1888 3053 
Q 1444 3053 1217 2703 
Q 991 2353 991 1663 
Q 991 975 1217 622 
Q 1444 269 1888 269 
Q 2325 269 2554 583 
Q 2784 897 2784 1497 
L 2784 1825 
z
" transform="scale(0.015625)"/>
       <path id="DejaVuSerif-20" transform="scale(0.015625)"/>
       <path id="DejaVuSerif-4c" d="M 353 0 
L 353 331 
L 947 331 
L 947 4331 
L 353 4331 
L 353 4666 
L 2175 4666 
L 2175 4331 
L 1581 4331 
L 1581 384 
L 3713 384 
L 3713 1166 
L 4097 1166 
L 4097 0 
L 353 0 
z
" transform="scale(0.015625)"/>
       <path id="DejaVuSerif-6f" d="M 1925 219 
Q 2388 219 2623 584 
Q 2859 950 2859 1663 
Q 2859 2375 2623 2739 
Q 2388 3103 1925 3103 
Q 1463 3103 1227 2739 
Q 991 2375 991 1663 
Q 991 950 1228 584 
Q 1466 219 1925 219 
z
M 1925 -91 
Q 1200 -91 759 389 
Q 319 869 319 1663 
Q 319 2456 758 2934 
Q 1197 3413 1925 3413 
Q 2653 3413 3092 2934 
Q 3531 2456 3531 1663 
Q 3531 869 3092 389 
Q 2653 -91 1925 -91 
z
" transform="scale(0.015625)"/>
       <path id="DejaVuSerif-73" d="M 359 184 
L 359 959 
L 691 959 
Q 703 588 923 403 
Q 1144 219 1575 219 
Q 1963 219 2166 364 
Q 2369 509 2369 788 
Q 2369 1006 2220 1140 
Q 2072 1275 1594 1428 
L 1178 1569 
Q 750 1706 558 1912 
Q 366 2119 366 2438 
Q 366 2894 700 3153 
Q 1034 3413 1625 3413 
Q 1888 3413 2178 3344 
Q 2469 3275 2778 3144 
L 2778 2419 
L 2447 2419 
Q 2434 2741 2221 2922 
Q 2009 3103 1644 3103 
Q 1281 3103 1095 2975 
Q 909 2847 909 2591 
Q 909 2381 1050 2254 
Q 1191 2128 1613 1997 
L 2069 1856 
Q 2541 1709 2748 1489 
Q 2956 1269 2956 922 
Q 2956 450 2595 179 
Q 2234 -91 1600 -91 
Q 1278 -91 972 -22 
Q 666 47 359 184 
z
" transform="scale(0.015625)"/>
      </defs>
      <use xlink:href="#DejaVuSerif-54"/>
      <use xlink:href="#DejaVuSerif-72" transform="translate(66.699219 0)"/>
      <use xlink:href="#DejaVuSerif-61" transform="translate(114.501953 0)"/>
      <use xlink:href="#DejaVuSerif-69" transform="translate(174.121094 0)"/>
      <use xlink:href="#DejaVuSerif-6e" transform="translate(206.103516 0)"/>
      <use xlink:href="#DejaVuSerif-69" transform="translate(270.507812 0)"/>
      <use xlink:href="#DejaVuSerif-6e" transform="translate(302.490234 0)"/>
      <use xlink:href="#DejaVuSerif-67" transform="translate(366.894531 0)"/>
      <use xlink:href="#DejaVuSerif-20" transform="translate(430.908203 0)"/>
      <use xlink:href="#DejaVuSerif-4c" transform="translate(462.695312 0)"/>
      <use xlink:href="#DejaVuSerif-6f" transform="translate(529.101562 0)"/>
      <use xlink:href="#DejaVuSerif-73" transform="translate(589.306641 0)"/>
      <use xlink:href="#DejaVuSerif-73" transform="translate(640.625 0)"/>
     </g>
    </g>
    <g id="line2d_22">
     <path d="M 354.274319 65.848125 
L 366.274319 65.848125 
L 378.274319 65.848125 
" style="fill: none; stroke-dasharray: 11.1,4.8; stroke-dashoffset: 0; stroke: #d62728; stroke-opacity: 0.9; stroke-width: 3; stroke-linecap: round"/>
    </g>
    <g id="text_14">
     <!-- Validation Loss -->
     <g style="fill: #262626" transform="translate(387.874319 70.048125) scale(0.12 -0.12)">
      <defs>
       <path id="DejaVuSerif-56" d="M 1119 4331 
L 2497 750 
L 3872 4331 
L 3347 4331 
L 3347 4666 
L 4716 4666 
L 4716 4331 
L 4263 4331 
L 2597 0 
L 2059 0 
L 403 4331 
L -63 4331 
L -63 4666 
L 1638 4666 
L 1638 4331 
L 1119 4331 
z
" transform="scale(0.015625)"/>
       <path id="DejaVuSerif-6c" d="M 1313 331 
L 1856 331 
L 1856 0 
L 184 0 
L 184 331 
L 738 331 
L 738 4531 
L 184 4531 
L 184 4863 
L 1313 4863 
L 1313 331 
z
" transform="scale(0.015625)"/>
       <path id="DejaVuSerif-64" d="M 3359 331 
L 3909 331 
L 3909 0 
L 2784 0 
L 2784 519 
Q 2616 206 2355 57 
Q 2094 -91 1709 -91 
Q 1097 -91 708 395 
Q 319 881 319 1663 
Q 319 2444 706 2928 
Q 1094 3413 1709 3413 
Q 2094 3413 2355 3264 
Q 2616 3116 2784 2803 
L 2784 4531 
L 2241 4531 
L 2241 4863 
L 3359 4863 
L 3359 331 
z
M 2784 1497 
L 2784 1825 
Q 2784 2422 2554 2737 
Q 2325 3053 1888 3053 
Q 1444 3053 1217 2703 
Q 991 2353 991 1663 
Q 991 975 1217 622 
Q 1444 269 1888 269 
Q 2325 269 2554 583 
Q 2784 897 2784 1497 
z
" transform="scale(0.015625)"/>
       <path id="DejaVuSerif-74" d="M 691 2988 
L 184 2988 
L 184 3322 
L 691 3322 
L 691 4353 
L 1269 4353 
L 1269 3322 
L 2350 3322 
L 2350 2988 
L 1269 2988 
L 1269 878 
Q 1269 456 1350 337 
Q 1431 219 1650 219 
Q 1875 219 1978 351 
Q 2081 484 2088 781 
L 2522 781 
Q 2497 328 2275 118 
Q 2053 -91 1600 -91 
Q 1103 -91 897 129 
Q 691 350 691 878 
L 691 2988 
z
" transform="scale(0.015625)"/>
      </defs>
      <use xlink:href="#DejaVuSerif-56"/>
      <use xlink:href="#DejaVuSerif-61" transform="translate(63.091797 0)"/>
      <use xlink:href="#DejaVuSerif-6c" transform="translate(122.710938 0)"/>
      <use xlink:href="#DejaVuSerif-69" transform="translate(154.693359 0)"/>
      <use xlink:href="#DejaVuSerif-64" transform="translate(186.675781 0)"/>
      <use xlink:href="#DejaVuSerif-61" transform="translate(250.689453 0)"/>
      <use xlink:href="#DejaVuSerif-74" transform="translate(310.308594 0)"/>
      <use xlink:href="#DejaVuSerif-69" transform="translate(350.494141 0)"/>
      <use xlink:href="#DejaVuSerif-6f" transform="translate(382.476562 0)"/>
      <use xlink:href="#DejaVuSerif-6e" transform="translate(442.681641 0)"/>
      <use xlink:href="#DejaVuSerif-20" transform="translate(507.085938 0)"/>
      <use xlink:href="#DejaVuSerif-4c" transform="translate(538.873047 0)"/>
      <use xlink:href="#DejaVuSerif-6f" transform="translate(605.279297 0)"/>
      <use xlink:href="#DejaVuSerif-73" transform="translate(665.484375 0)"/>
      <use xlink:href="#DejaVuSerif-73" transform="translate(716.802734 0)"/>
     </g>
    </g>
   </g>
  </g>
  <g id="axes_2">
   <g id="patch_8">
    <path d="M 541.818382 399.191395 
L 967.415826 399.191395 
L 967.415826 32.345625 
L 541.818382 32.345625 
L 541.818382 399.191395 
z
" style="fill: none"/>
   </g>
   <g id="matplotlib.axis_3">
    <g id="xtick_6">
     <g id="line2d_23">
      <path d="M 561.16372 399.191395 
L 561.16372 32.345625 
" clip-path="url(#pd574608f84)" style="fill: none; stroke: #f0f0f0; stroke-width: 0.7; stroke-linecap: round"/>
     </g>
     <g id="line2d_24"/>
     <g id="text_15">
      <!-- 0 -->
      <g style="fill: #262626" transform="translate(558.383251 409.93827) scale(0.1 -0.1)">
       <use xlink:href="#LiberationSans-30"/>
      </g>
     </g>
    </g>
    <g id="xtick_7">
     <g id="line2d_25">
      <path d="M 649.097076 399.191395 
L 649.097076 32.345625 
" clip-path="url(#pd574608f84)" style="fill: none; stroke: #f0f0f0; stroke-width: 0.7; stroke-linecap: round"/>
     </g>
     <g id="line2d_26"/>
     <g id="text_16">
      <!-- 5 -->
      <g style="fill: #262626" transform="translate(646.316608 409.93827) scale(0.1 -0.1)">
       <use xlink:href="#LiberationSans-35"/>
      </g>
     </g>
    </g>
    <g id="xtick_8">
     <g id="line2d_27">
      <path d="M 737.030433 399.191395 
L 737.030433 32.345625 
" clip-path="url(#pd574608f84)" style="fill: none; stroke: #f0f0f0; stroke-width: 0.7; stroke-linecap: round"/>
     </g>
     <g id="line2d_28"/>
     <g id="text_17">
      <!-- 10 -->
      <g style="fill: #262626" transform="translate(731.469495 409.93827) scale(0.1 -0.1)">
       <use xlink:href="#LiberationSans-31"/>
       <use xlink:href="#LiberationSans-30" transform="translate(55.615234 0)"/>
      </g>
     </g>
    </g>
    <g id="xtick_9">
     <g id="line2d_29">
      <path d="M 824.963789 399.191395 
L 824.963789 32.345625 
" clip-path="url(#pd574608f84)" style="fill: none; stroke: #f0f0f0; stroke-width: 0.7; stroke-linecap: round"/>
     </g>
     <g id="line2d_30"/>
     <g id="text_18">
      <!-- 15 -->
      <g style="fill: #262626" transform="translate(819.402851 409.93827) scale(0.1 -0.1)">
       <use xlink:href="#LiberationSans-31"/>
       <use xlink:href="#LiberationSans-35" transform="translate(55.615234 0)"/>
      </g>
     </g>
    </g>
    <g id="xtick_10">
     <g id="line2d_31">
      <path d="M 912.897145 399.191395 
L 912.897145 32.345625 
" clip-path="url(#pd574608f84)" style="fill: none; stroke: #f0f0f0; stroke-width: 0.7; stroke-linecap: round"/>
     </g>
     <g id="line2d_32"/>
     <g id="text_19">
      <!-- 20 -->
      <g style="fill: #262626" transform="translate(907.336207 409.93827) scale(0.1 -0.1)">
       <use xlink:href="#LiberationSans-32"/>
       <use xlink:href="#LiberationSans-30" transform="translate(55.615234 0)"/>
      </g>
     </g>
    </g>
    <g id="text_20">
     <!-- Epoch -->
     <g style="fill: #262626" transform="translate(737.605229 430.70952) scale(0.12 -0.12)">
      <use xlink:href="#LiberationSans-45"/>
      <use xlink:href="#LiberationSans-70" transform="translate(66.699219 0)"/>
      <use xlink:href="#LiberationSans-6f" transform="translate(122.314453 0)"/>
      <use xlink:href="#LiberationSans-63" transform="translate(177.929688 0)"/>
      <use xlink:href="#LiberationSans-68" transform="translate(227.929688 0)"/>
     </g>
    </g>
   </g>
   <g id="matplotlib.axis_4">
    <g id="ytick_5">
     <g id="line2d_33">
      <path d="M 541.818382 366.137144 
L 967.415826 366.137144 
" clip-path="url(#pd574608f84)" style="fill: none; stroke: #f0f0f0; stroke-width: 0.7; stroke-linecap: round"/>
     </g>
     <g id="line2d_34"/>
     <g id="text_21">
      <!-- 50 -->
      <g style="fill: #262626" transform="translate(527.196507 369.760581) scale(0.1 -0.1)">
       <use xlink:href="#LiberationSans-35"/>
       <use xlink:href="#LiberationSans-30" transform="translate(55.615234 0)"/>
      </g>
     </g>
    </g>
    <g id="ytick_6">
     <g id="line2d_35">
      <path d="M 541.818382 300.264233 
L 967.415826 300.264233 
" clip-path="url(#pd574608f84)" style="fill: none; stroke: #f0f0f0; stroke-width: 0.7; stroke-linecap: round"/>
     </g>
     <g id="line2d_36"/>
     <g id="text_22">
      <!-- 100 -->
      <g style="fill: #262626" transform="translate(521.635569 303.887671) scale(0.1 -0.1)">
       <use xlink:href="#LiberationSans-31"/>
       <use xlink:href="#LiberationSans-30" transform="translate(55.615234 0)"/>
       <use xlink:href="#LiberationSans-30" transform="translate(111.230469 0)"/>
      </g>
     </g>
    </g>
    <g id="ytick_7">
     <g id="line2d_37">
      <path d="M 541.818382 234.391322 
L 967.415826 234.391322 
" clip-path="url(#pd574608f84)" style="fill: none; stroke: #f0f0f0; stroke-width: 0.7; stroke-linecap: round"/>
     </g>
     <g id="line2d_38"/>
     <g id="text_23">
      <!-- 150 -->
      <g style="fill: #262626" transform="translate(521.635569 238.01476) scale(0.1 -0.1)">
       <use xlink:href="#LiberationSans-31"/>
       <use xlink:href="#LiberationSans-35" transform="translate(55.615234 0)"/>
       <use xlink:href="#LiberationSans-30" transform="translate(111.230469 0)"/>
      </g>
     </g>
    </g>
    <g id="ytick_8">
     <g id="line2d_39">
      <path d="M 541.818382 168.518412 
L 967.415826 168.518412 
" clip-path="url(#pd574608f84)" style="fill: none; stroke: #f0f0f0; stroke-width: 0.7; stroke-linecap: round"/>
     </g>
     <g id="line2d_40"/>
     <g id="text_24">
      <!-- 200 -->
      <g style="fill: #262626" transform="translate(521.635569 172.141849) scale(0.1 -0.1)">
       <use xlink:href="#LiberationSans-32"/>
       <use xlink:href="#LiberationSans-30" transform="translate(55.615234 0)"/>
       <use xlink:href="#LiberationSans-30" transform="translate(111.230469 0)"/>
      </g>
     </g>
    </g>
    <g id="ytick_9">
     <g id="line2d_41">
      <path d="M 541.818382 102.645501 
L 967.415826 102.645501 
" clip-path="url(#pd574608f84)" style="fill: none; stroke: #f0f0f0; stroke-width: 0.7; stroke-linecap: round"/>
     </g>
     <g id="line2d_42"/>
     <g id="text_25">
      <!-- 250 -->
      <g style="fill: #262626" transform="translate(521.635569 106.268939) scale(0.1 -0.1)">
       <use xlink:href="#LiberationSans-32"/>
       <use xlink:href="#LiberationSans-35" transform="translate(55.615234 0)"/>
       <use xlink:href="#LiberationSans-30" transform="translate(111.230469 0)"/>
      </g>
     </g>
    </g>
    <g id="ytick_10">
     <g id="line2d_43">
      <path d="M 541.818382 36.77259 
L 967.415826 36.77259 
" clip-path="url(#pd574608f84)" style="fill: none; stroke: #f0f0f0; stroke-width: 0.7; stroke-linecap: round"/>
     </g>
     <g id="line2d_44"/>
     <g id="text_26">
      <!-- 300 -->
      <g style="fill: #262626" transform="translate(521.635569 40.396028) scale(0.1 -0.1)">
       <use xlink:href="#LiberationSans-33"/>
       <use xlink:href="#LiberationSans-30" transform="translate(55.615234 0)"/>
       <use xlink:href="#LiberationSans-30" transform="translate(111.230469 0)"/>
      </g>
     </g>
    </g>
    <g id="text_27">
     <!-- MAE -->
     <g style="fill: #262626" transform="translate(509.145569 228.770697) rotate(-90) scale(0.12 -0.12)">
      <defs>
       <path id="LiberationSans-4d" d="M 4269 0 
L 4269 2938 
Q 4269 3425 4297 3875 
Q 4144 3316 4022 3000 
L 2884 0 
L 2466 0 
L 1313 3000 
L 1138 3531 
L 1034 3875 
L 1044 3528 
L 1056 2938 
L 1056 0 
L 525 0 
L 525 4403 
L 1309 4403 
L 2481 1350 
Q 2544 1166 2601 955 
Q 2659 744 2678 650 
Q 2703 775 2783 1029 
Q 2863 1284 2891 1350 
L 4041 4403 
L 4806 4403 
L 4806 0 
L 4269 0 
z
" transform="scale(0.015625)"/>
       <path id="LiberationSans-41" d="M 3647 0 
L 3144 1288 
L 1138 1288 
L 631 0 
L 13 0 
L 1809 4403 
L 2488 4403 
L 4256 0 
L 3647 0 
z
M 2141 3953 
L 2113 3866 
Q 2034 3606 1881 3200 
L 1319 1753 
L 2966 1753 
L 2400 3206 
Q 2313 3422 2225 3694 
L 2141 3953 
z
" transform="scale(0.015625)"/>
      </defs>
      <use xlink:href="#LiberationSans-4d"/>
      <use xlink:href="#LiberationSans-41" transform="translate(83.300781 0)"/>
      <use xlink:href="#LiberationSans-45" transform="translate(150 0)"/>
     </g>
    </g>
   </g>
   <g id="line2d_45">
    <path d="M 561.16372 49.020433 
L 578.750391 77.923338 
L 596.337063 131.852522 
L 613.923734 197.036911 
L 631.510405 252.018598 
L 649.097076 293.50066 
L 666.683748 317.740446 
L 684.270419 328.507585 
L 701.85709 337.578881 
L 719.443761 344.564781 
L 737.030433 348.698131 
L 754.617104 350.32768 
L 772.203775 350.693994 
L 789.790446 354.22525 
L 807.377117 355.645408 
L 824.963789 358.227263 
L 842.55046 358.260332 
L 860.137131 359.839087 
L 877.723802 359.979988 
L 895.310474 359.722978 
L 912.897145 360.762037 
L 930.483816 362.996189 
L 948.070487 361.517893 
" clip-path="url(#pd574608f84)" style="fill: none; stroke: #1f77b4; stroke-opacity: 0.9; stroke-width: 3; stroke-linecap: round"/>
   </g>
   <g id="line2d_46">
    <path d="M 561.16372 52.492833 
L 578.750391 76.038136 
L 596.337063 158.737125 
L 613.923734 237.160144 
L 631.510405 278.634507 
L 649.097076 308.605646 
L 666.683748 339.317151 
L 684.270419 352.287429 
L 701.85709 332.605303 
L 719.443761 305.703804 
L 737.030433 331.681679 
L 754.617104 340.005351 
L 772.203775 315.691074 
L 789.790446 331.173581 
L 807.377117 345.24703 
L 824.963789 380.386779 
L 842.55046 372.254426 
L 860.137131 368.752792 
L 877.723802 365.066739 
L 895.310474 365.050943 
L 912.897145 366.437178 
L 930.483816 382.516587 
L 948.070487 381.905095 
" clip-path="url(#pd574608f84)" style="fill: none; stroke-dasharray: 11.1,4.8; stroke-dashoffset: 0; stroke: #d62728; stroke-opacity: 0.9; stroke-width: 3; stroke-linecap: round"/>
   </g>
   <g id="patch_9">
    <path d="M 541.818382 399.191395 
L 541.818382 32.345625 
" style="fill: none; stroke: #000000; stroke-width: 0.8; stroke-linejoin: miter; stroke-linecap: square"/>
   </g>
   <g id="patch_10">
    <path d="M 967.415826 399.191395 
L 967.415826 32.345625 
" style="fill: none; stroke: #000000; stroke-width: 0.8; stroke-linejoin: miter; stroke-linecap: square"/>
   </g>
   <g id="patch_11">
    <path d="M 541.818382 399.191395 
L 967.415826 399.191395 
" style="fill: none; stroke: #000000; stroke-width: 0.8; stroke-linejoin: miter; stroke-linecap: square"/>
   </g>
   <g id="patch_12">
    <path d="M 541.818382 32.345625 
L 967.415826 32.345625 
" style="fill: none; stroke: #000000; stroke-width: 0.8; stroke-linejoin: miter; stroke-linecap: square"/>
   </g>
   <g id="text_28">
    <!-- DNN Training MAE -->
    <g style="fill: #262626" transform="translate(692.783041 17.345625) scale(0.14 -0.14)">
     <defs>
      <path id="LiberationSans-Bold-4d" d="M 4084 0 
L 4084 2669 
Q 4084 2759 4086 2850 
Q 4088 2941 4116 3628 
Q 3894 2788 3788 2456 
L 2994 0 
L 2338 0 
L 1544 2456 
L 1209 3628 
Q 1247 2903 1247 2669 
L 1247 0 
L 428 0 
L 428 4403 
L 1663 4403 
L 2450 1941 
L 2519 1703 
L 2669 1113 
L 2866 1819 
L 3675 4403 
L 4903 4403 
L 4903 0 
L 4084 0 
z
" transform="scale(0.015625)"/>
      <path id="LiberationSans-Bold-41" d="M 3541 0 
L 3150 1125 
L 1472 1125 
L 1081 0 
L 159 0 
L 1766 4403 
L 2853 4403 
L 4453 0 
L 3541 0 
z
M 2309 3725 
L 2291 3656 
Q 2259 3544 2215 3400 
Q 2172 3256 1678 1819 
L 2944 1819 
L 2509 3084 
L 2375 3509 
L 2309 3725 
z
" transform="scale(0.015625)"/>
      <path id="LiberationSans-Bold-45" d="M 428 0 
L 428 4403 
L 3891 4403 
L 3891 3691 
L 1350 3691 
L 1350 2584 
L 3700 2584 
L 3700 1872 
L 1350 1872 
L 1350 713 
L 4019 713 
L 4019 0 
L 428 0 
z
" transform="scale(0.015625)"/>
     </defs>
     <use xlink:href="#LiberationSans-Bold-44"/>
     <use xlink:href="#LiberationSans-Bold-4e" transform="translate(72.216797 0)"/>
     <use xlink:href="#LiberationSans-Bold-4e" transform="translate(144.433594 0)"/>
     <use xlink:href="#LiberationSans-Bold-20" transform="translate(216.650391 0)"/>
     <use xlink:href="#LiberationSans-Bold-54" transform="translate(244.433594 0)"/>
     <use xlink:href="#LiberationSans-Bold-72" transform="translate(300.017578 0)"/>
     <use xlink:href="#LiberationSans-Bold-61" transform="translate(338.933594 0)"/>
     <use xlink:href="#LiberationSans-Bold-69" transform="translate(394.548828 0)"/>
     <use xlink:href="#LiberationSans-Bold-6e" transform="translate(422.332031 0)"/>
     <use xlink:href="#LiberationSans-Bold-69" transform="translate(483.416016 0)"/>
     <use xlink:href="#LiberationSans-Bold-6e" transform="translate(511.199219 0)"/>
     <use xlink:href="#LiberationSans-Bold-67" transform="translate(572.283203 0)"/>
     <use xlink:href="#LiberationSans-Bold-20" transform="translate(633.367188 0)"/>
     <use xlink:href="#LiberationSans-Bold-4d" transform="translate(661.150391 0)"/>
     <use xlink:href="#LiberationSans-Bold-41" transform="translate(744.451172 0)"/>
     <use xlink:href="#LiberationSans-Bold-45" transform="translate(816.667969 0)"/>
    </g>
   </g>
   <g id="legend_2">
    <g id="patch_13">
     <path d="M 826.235826 77.34375 
L 959.015826 77.34375 
Q 961.415826 77.34375 961.415826 74.94375 
L 961.415826 40.745625 
Q 961.415826 38.345625 959.015826 38.345625 
L 826.235826 38.345625 
Q 823.835826 38.345625 823.835826 40.745625 
L 823.835826 74.94375 
Q 823.835826 77.34375 826.235826 77.34375 
z
" style="fill: #ffffff; opacity: 0.9; stroke: #808080; stroke-linejoin: miter"/>
    </g>
    <g id="line2d_47">
     <path d="M 828.635826 48.06375 
L 840.635826 48.06375 
L 852.635826 48.06375 
" style="fill: none; stroke: #1f77b4; stroke-opacity: 0.9; stroke-width: 3; stroke-linecap: round"/>
    </g>
    <g id="text_29">
     <!-- Training MAE -->
     <g style="fill: #262626" transform="translate(862.235826 52.26375) scale(0.12 -0.12)">
      <defs>
       <path id="DejaVuSerif-4d" d="M 353 0 
L 353 331 
L 947 331 
L 947 4331 
L 319 4331 
L 319 4666 
L 1678 4666 
L 3316 1344 
L 4953 4666 
L 6228 4666 
L 6228 4331 
L 5606 4331 
L 5606 331 
L 6203 331 
L 6203 0 
L 4378 0 
L 4378 331 
L 4972 331 
L 4972 3938 
L 3372 684 
L 2931 684 
L 1331 3938 
L 1331 331 
L 1925 331 
L 1925 0 
L 353 0 
z
" transform="scale(0.015625)"/>
       <path id="DejaVuSerif-41" d="M 1281 1691 
L 2994 1691 
L 2138 3909 
L 1281 1691 
z
M -38 0 
L -38 331 
L 372 331 
L 2034 4666 
L 2559 4666 
L 4225 331 
L 4684 331 
L 4684 0 
L 2988 0 
L 2988 331 
L 3506 331 
L 3116 1356 
L 1153 1356 
L 763 331 
L 1275 331 
L 1275 0 
L -38 0 
z
" transform="scale(0.015625)"/>
       <path id="DejaVuSerif-45" d="M 353 0 
L 353 331 
L 947 331 
L 947 4331 
L 353 4331 
L 353 4666 
L 4109 4666 
L 4109 3628 
L 3725 3628 
L 3725 4281 
L 1581 4281 
L 1581 2719 
L 3109 2719 
L 3109 3303 
L 3494 3303 
L 3494 1753 
L 3109 1753 
L 3109 2338 
L 1581 2338 
L 1581 384 
L 3775 384 
L 3775 1038 
L 4159 1038 
L 4159 0 
L 353 0 
z
" transform="scale(0.015625)"/>
      </defs>
      <use xlink:href="#DejaVuSerif-54"/>
      <use xlink:href="#DejaVuSerif-72" transform="translate(66.699219 0)"/>
      <use xlink:href="#DejaVuSerif-61" transform="translate(114.501953 0)"/>
      <use xlink:href="#DejaVuSerif-69" transform="translate(174.121094 0)"/>
      <use xlink:href="#DejaVuSerif-6e" transform="translate(206.103516 0)"/>
      <use xlink:href="#DejaVuSerif-69" transform="translate(270.507812 0)"/>
      <use xlink:href="#DejaVuSerif-6e" transform="translate(302.490234 0)"/>
      <use xlink:href="#DejaVuSerif-67" transform="translate(366.894531 0)"/>
      <use xlink:href="#DejaVuSerif-20" transform="translate(430.908203 0)"/>
      <use xlink:href="#DejaVuSerif-4d" transform="translate(462.695312 0)"/>
      <use xlink:href="#DejaVuSerif-41" transform="translate(565.087891 0)"/>
      <use xlink:href="#DejaVuSerif-45" transform="translate(637.304688 0)"/>
     </g>
    </g>
    <g id="line2d_48">
     <path d="M 828.635826 65.848125 
L 840.635826 65.848125 
L 852.635826 65.848125 
" style="fill: none; stroke-dasharray: 11.1,4.8; stroke-dashoffset: 0; stroke: #d62728; stroke-opacity: 0.9; stroke-width: 3; stroke-linecap: round"/>
    </g>
    <g id="text_30">
     <!-- Validation MAE -->
     <g style="fill: #262626" transform="translate(862.235826 70.048125) scale(0.12 -0.12)">
      <use xlink:href="#DejaVuSerif-56"/>
      <use xlink:href="#DejaVuSerif-61" transform="translate(63.091797 0)"/>
      <use xlink:href="#DejaVuSerif-6c" transform="translate(122.710938 0)"/>
      <use xlink:href="#DejaVuSerif-69" transform="translate(154.693359 0)"/>
      <use xlink:href="#DejaVuSerif-64" transform="translate(186.675781 0)"/>
      <use xlink:href="#DejaVuSerif-61" transform="translate(250.689453 0)"/>
      <use xlink:href="#DejaVuSerif-74" transform="translate(310.308594 0)"/>
      <use xlink:href="#DejaVuSerif-69" transform="translate(350.494141 0)"/>
      <use xlink:href="#DejaVuSerif-6f" transform="translate(382.476562 0)"/>
      <use xlink:href="#DejaVuSerif-6e" transform="translate(442.681641 0)"/>
      <use xlink:href="#DejaVuSerif-20" transform="translate(507.085938 0)"/>
      <use xlink:href="#DejaVuSerif-4d" transform="translate(538.873047 0)"/>
      <use xlink:href="#DejaVuSerif-41" transform="translate(641.265625 0)"/>
      <use xlink:href="#DejaVuSerif-45" transform="translate(713.482422 0)"/>
     </g>
    </g>
   </g>
  </g>
  <g id="axes_3">
   <g id="patch_14">
    <path d="M 1015.602076 399.191395 
L 1441.19952 399.191395 
L 1441.19952 32.345625 
L 1015.602076 32.345625 
L 1015.602076 399.191395 
z
" style="fill: none"/>
   </g>
   <g id="matplotlib.axis_5">
    <g id="xtick_11">
     <g id="line2d_49">
      <path d="M 1034.947414 399.191395 
L 1034.947414 32.345625 
" clip-path="url(#p3d8b6a15f2)" style="fill: none; stroke: #f0f0f0; stroke-width: 0.7; stroke-linecap: round"/>
     </g>
     <g id="line2d_50"/>
     <g id="text_31">
      <!-- 0 -->
      <g style="fill: #262626" transform="translate(1032.166945 409.93827) scale(0.1 -0.1)">
       <use xlink:href="#LiberationSans-30"/>
      </g>
     </g>
    </g>
    <g id="xtick_12">
     <g id="line2d_51">
      <path d="M 1122.88077 399.191395 
L 1122.88077 32.345625 
" clip-path="url(#p3d8b6a15f2)" style="fill: none; stroke: #f0f0f0; stroke-width: 0.7; stroke-linecap: round"/>
     </g>
     <g id="line2d_52"/>
     <g id="text_32">
      <!-- 5 -->
      <g style="fill: #262626" transform="translate(1120.100302 409.93827) scale(0.1 -0.1)">
       <use xlink:href="#LiberationSans-35"/>
      </g>
     </g>
    </g>
    <g id="xtick_13">
     <g id="line2d_53">
      <path d="M 1210.814127 399.191395 
L 1210.814127 32.345625 
" clip-path="url(#p3d8b6a15f2)" style="fill: none; stroke: #f0f0f0; stroke-width: 0.7; stroke-linecap: round"/>
     </g>
     <g id="line2d_54"/>
     <g id="text_33">
      <!-- 10 -->
      <g style="fill: #262626" transform="translate(1205.253189 409.93827) scale(0.1 -0.1)">
       <use xlink:href="#LiberationSans-31"/>
       <use xlink:href="#LiberationSans-30" transform="translate(55.615234 0)"/>
      </g>
     </g>
    </g>
    <g id="xtick_14">
     <g id="line2d_55">
      <path d="M 1298.747483 399.191395 
L 1298.747483 32.345625 
" clip-path="url(#p3d8b6a15f2)" style="fill: none; stroke: #f0f0f0; stroke-width: 0.7; stroke-linecap: round"/>
     </g>
     <g id="line2d_56"/>
     <g id="text_34">
      <!-- 15 -->
      <g style="fill: #262626" transform="translate(1293.186545 409.93827) scale(0.1 -0.1)">
       <use xlink:href="#LiberationSans-31"/>
       <use xlink:href="#LiberationSans-35" transform="translate(55.615234 0)"/>
      </g>
     </g>
    </g>
    <g id="xtick_15">
     <g id="line2d_57">
      <path d="M 1386.680839 399.191395 
L 1386.680839 32.345625 
" clip-path="url(#p3d8b6a15f2)" style="fill: none; stroke: #f0f0f0; stroke-width: 0.7; stroke-linecap: round"/>
     </g>
     <g id="line2d_58"/>
     <g id="text_35">
      <!-- 20 -->
      <g style="fill: #262626" transform="translate(1381.119902 409.93827) scale(0.1 -0.1)">
       <use xlink:href="#LiberationSans-32"/>
       <use xlink:href="#LiberationSans-30" transform="translate(55.615234 0)"/>
      </g>
     </g>
    </g>
    <g id="text_36">
     <!-- Epoch -->
     <g style="fill: #262626" transform="translate(1211.388923 430.70952) scale(0.12 -0.12)">
      <use xlink:href="#LiberationSans-45"/>
      <use xlink:href="#LiberationSans-70" transform="translate(66.699219 0)"/>
      <use xlink:href="#LiberationSans-6f" transform="translate(122.314453 0)"/>
      <use xlink:href="#LiberationSans-63" transform="translate(177.929688 0)"/>
      <use xlink:href="#LiberationSans-68" transform="translate(227.929688 0)"/>
     </g>
    </g>
   </g>
   <g id="matplotlib.axis_6">
    <g id="ytick_11">
     <g id="line2d_59">
      <path d="M 1015.602076 342.997438 
L 1441.19952 342.997438 
" clip-path="url(#p3d8b6a15f2)" style="fill: none; stroke: #f0f0f0; stroke-width: 0.7; stroke-linecap: round"/>
     </g>
     <g id="line2d_60"/>
     <g id="text_37">
      <!-- 0.0 -->
      <g style="fill: #262626" transform="translate(998.202076 346.620875) scale(0.1 -0.1)">
       <defs>
        <path id="LiberationSans-2e" d="M 584 0 
L 584 684 
L 1194 684 
L 1194 0 
L 584 0 
z
" transform="scale(0.015625)"/>
       </defs>
       <use xlink:href="#LiberationSans-30"/>
       <use xlink:href="#LiberationSans-2e" transform="translate(55.615234 0)"/>
       <use xlink:href="#LiberationSans-30" transform="translate(83.398438 0)"/>
      </g>
     </g>
    </g>
    <g id="ytick_12">
     <g id="line2d_61">
      <path d="M 1015.602076 281.769228 
L 1441.19952 281.769228 
" clip-path="url(#p3d8b6a15f2)" style="fill: none; stroke: #f0f0f0; stroke-width: 0.7; stroke-linecap: round"/>
     </g>
     <g id="line2d_62"/>
     <g id="text_38">
      <!-- 0.2 -->
      <g style="fill: #262626" transform="translate(998.202076 285.392665) scale(0.1 -0.1)">
       <use xlink:href="#LiberationSans-30"/>
       <use xlink:href="#LiberationSans-2e" transform="translate(55.615234 0)"/>
       <use xlink:href="#LiberationSans-32" transform="translate(83.398438 0)"/>
      </g>
     </g>
    </g>
    <g id="ytick_13">
     <g id="line2d_63">
      <path d="M 1015.602076 220.541017 
L 1441.19952 220.541017 
" clip-path="url(#p3d8b6a15f2)" style="fill: none; stroke: #f0f0f0; stroke-width: 0.7; stroke-linecap: round"/>
     </g>
     <g id="line2d_64"/>
     <g id="text_39">
      <!-- 0.4 -->
      <g style="fill: #262626" transform="translate(998.202076 224.164455) scale(0.1 -0.1)">
       <use xlink:href="#LiberationSans-30"/>
       <use xlink:href="#LiberationSans-2e" transform="translate(55.615234 0)"/>
       <use xlink:href="#LiberationSans-34" transform="translate(83.398438 0)"/>
      </g>
     </g>
    </g>
    <g id="ytick_14">
     <g id="line2d_65">
      <path d="M 1015.602076 159.312807 
L 1441.19952 159.312807 
" clip-path="url(#p3d8b6a15f2)" style="fill: none; stroke: #f0f0f0; stroke-width: 0.7; stroke-linecap: round"/>
     </g>
     <g id="line2d_66"/>
     <g id="text_40">
      <!-- 0.6 -->
      <g style="fill: #262626" transform="translate(998.202076 162.936245) scale(0.1 -0.1)">
       <defs>
        <path id="LiberationSans-36" d="M 3278 1441 
Q 3278 744 2900 340 
Q 2522 -63 1856 -63 
Q 1113 -63 719 490 
Q 325 1044 325 2100 
Q 325 3244 734 3856 
Q 1144 4469 1900 4469 
Q 2897 4469 3156 3572 
L 2619 3475 
Q 2453 4013 1894 4013 
Q 1413 4013 1148 3564 
Q 884 3116 884 2266 
Q 1038 2550 1316 2698 
Q 1594 2847 1953 2847 
Q 2563 2847 2920 2465 
Q 3278 2084 3278 1441 
z
M 2706 1416 
Q 2706 1894 2472 2153 
Q 2238 2413 1819 2413 
Q 1425 2413 1183 2183 
Q 941 1953 941 1550 
Q 941 1041 1192 716 
Q 1444 391 1838 391 
Q 2244 391 2475 664 
Q 2706 938 2706 1416 
z
" transform="scale(0.015625)"/>
       </defs>
       <use xlink:href="#LiberationSans-30"/>
       <use xlink:href="#LiberationSans-2e" transform="translate(55.615234 0)"/>
       <use xlink:href="#LiberationSans-36" transform="translate(83.398438 0)"/>
      </g>
     </g>
    </g>
    <g id="ytick_15">
     <g id="line2d_67">
      <path d="M 1015.602076 98.084597 
L 1441.19952 98.084597 
" clip-path="url(#p3d8b6a15f2)" style="fill: none; stroke: #f0f0f0; stroke-width: 0.7; stroke-linecap: round"/>
     </g>
     <g id="line2d_68"/>
     <g id="text_41">
      <!-- 0.8 -->
      <g style="fill: #262626" transform="translate(998.202076 101.708034) scale(0.1 -0.1)">
       <defs>
        <path id="LiberationSans-38" d="M 3281 1228 
Q 3281 619 2893 278 
Q 2506 -63 1781 -63 
Q 1075 -63 676 271 
Q 278 606 278 1222 
Q 278 1653 525 1947 
Q 772 2241 1156 2303 
L 1156 2316 
Q 797 2400 589 2681 
Q 381 2963 381 3341 
Q 381 3844 757 4156 
Q 1134 4469 1769 4469 
Q 2419 4469 2795 4162 
Q 3172 3856 3172 3334 
Q 3172 2956 2962 2675 
Q 2753 2394 2391 2322 
L 2391 2309 
Q 2813 2241 3047 1952 
Q 3281 1663 3281 1228 
z
M 2588 3303 
Q 2588 4050 1769 4050 
Q 1372 4050 1164 3862 
Q 956 3675 956 3303 
Q 956 2925 1170 2726 
Q 1384 2528 1775 2528 
Q 2172 2528 2380 2711 
Q 2588 2894 2588 3303 
z
M 2697 1281 
Q 2697 1691 2453 1898 
Q 2209 2106 1769 2106 
Q 1341 2106 1100 1882 
Q 859 1659 859 1269 
Q 859 359 1788 359 
Q 2247 359 2472 579 
Q 2697 800 2697 1281 
z
" transform="scale(0.015625)"/>
       </defs>
       <use xlink:href="#LiberationSans-30"/>
       <use xlink:href="#LiberationSans-2e" transform="translate(55.615234 0)"/>
       <use xlink:href="#LiberationSans-38" transform="translate(83.398438 0)"/>
      </g>
     </g>
    </g>
    <g id="ytick_16">
     <g id="line2d_69">
      <path d="M 1015.602076 36.856387 
L 1441.19952 36.856387 
" clip-path="url(#p3d8b6a15f2)" style="fill: none; stroke: #f0f0f0; stroke-width: 0.7; stroke-linecap: round"/>
     </g>
     <g id="line2d_70"/>
     <g id="text_42">
      <!-- 1.0 -->
      <g style="fill: #262626" transform="translate(998.202076 40.479824) scale(0.1 -0.1)">
       <use xlink:href="#LiberationSans-31"/>
       <use xlink:href="#LiberationSans-2e" transform="translate(55.615234 0)"/>
       <use xlink:href="#LiberationSans-30" transform="translate(83.398438 0)"/>
      </g>
     </g>
    </g>
    <g id="text_43">
     <!-- R Score -->
     <g style="fill: #262626" transform="translate(985.712076 239.439447) rotate(-90) scale(0.12 -0.12)">
      <defs>
       <path id="LiberationSans-52" d="M 3638 0 
L 2494 1828 
L 1122 1828 
L 1122 0 
L 525 0 
L 525 4403 
L 2597 4403 
Q 3341 4403 3745 4070 
Q 4150 3738 4150 3144 
Q 4150 2653 3864 2318 
Q 3578 1984 3075 1897 
L 4325 0 
L 3638 0 
z
M 3550 3138 
Q 3550 3522 3289 3723 
Q 3028 3925 2538 3925 
L 1122 3925 
L 1122 2300 
L 2563 2300 
Q 3034 2300 3292 2520 
Q 3550 2741 3550 3138 
z
" transform="scale(0.015625)"/>
       <path id="LiberationSans-b2" d="M 134 1759 
L 128 2081 
Q 225 2297 426 2501 
Q 628 2706 963 2938 
Q 1266 3150 1403 3325 
Q 1541 3500 1541 3681 
Q 1541 3875 1430 3992 
Q 1319 4109 1088 4109 
Q 875 4109 737 3995 
Q 600 3881 575 3669 
L 159 3694 
Q 200 4028 451 4234 
Q 703 4441 1106 4441 
Q 1503 4441 1736 4248 
Q 1969 4056 1969 3713 
Q 1969 3253 1381 2822 
Q 1000 2541 844 2397 
Q 688 2253 625 2113 
L 2009 2113 
L 2009 1759 
L 134 1759 
z
" transform="scale(0.015625)"/>
       <path id="LiberationSans-20" transform="scale(0.015625)"/>
       <path id="LiberationSans-53" d="M 3975 1216 
Q 3975 606 3498 271 
Q 3022 -63 2156 -63 
Q 547 -63 291 1056 
L 869 1172 
Q 969 775 1294 589 
Q 1619 403 2178 403 
Q 2756 403 3070 601 
Q 3384 800 3384 1184 
Q 3384 1400 3286 1534 
Q 3188 1669 3009 1756 
Q 2831 1844 2584 1903 
Q 2338 1963 2038 2031 
Q 1516 2147 1245 2262 
Q 975 2378 819 2520 
Q 663 2663 580 2853 
Q 497 3044 497 3291 
Q 497 3856 930 4162 
Q 1363 4469 2169 4469 
Q 2919 4469 3316 4239 
Q 3713 4009 3872 3456 
L 3284 3353 
Q 3188 3703 2916 3861 
Q 2644 4019 2163 4019 
Q 1634 4019 1356 3844 
Q 1078 3669 1078 3322 
Q 1078 3119 1186 2986 
Q 1294 2853 1497 2761 
Q 1700 2669 2306 2534 
Q 2509 2488 2711 2439 
Q 2913 2391 3097 2323 
Q 3281 2256 3442 2165 
Q 3603 2075 3722 1944 
Q 3841 1813 3908 1634 
Q 3975 1456 3975 1216 
z
" transform="scale(0.015625)"/>
       <path id="LiberationSans-72" d="M 444 0 
L 444 2594 
Q 444 2950 425 3381 
L 956 3381 
Q 981 2806 981 2691 
L 994 2691 
Q 1128 3125 1303 3284 
Q 1478 3444 1797 3444 
Q 1909 3444 2025 3413 
L 2025 2897 
Q 1913 2928 1725 2928 
Q 1375 2928 1190 2626 
Q 1006 2325 1006 1763 
L 1006 0 
L 444 0 
z
" transform="scale(0.015625)"/>
       <path id="LiberationSans-65" d="M 863 1572 
Q 863 991 1103 675 
Q 1344 359 1806 359 
Q 2172 359 2392 506 
Q 2613 653 2691 878 
L 3184 738 
Q 2881 -63 1806 -63 
Q 1056 -63 664 384 
Q 272 831 272 1713 
Q 272 2550 664 2997 
Q 1056 3444 1784 3444 
Q 3275 3444 3275 1647 
L 3275 1572 
L 863 1572 
z
M 2694 2003 
Q 2647 2538 2422 2783 
Q 2197 3028 1775 3028 
Q 1366 3028 1127 2754 
Q 888 2481 869 2003 
L 2694 2003 
z
" transform="scale(0.015625)"/>
      </defs>
      <use xlink:href="#LiberationSans-52"/>
      <use xlink:href="#LiberationSans-b2" transform="translate(72.216797 0)"/>
      <use xlink:href="#LiberationSans-20" transform="translate(105.517578 0)"/>
      <use xlink:href="#LiberationSans-53" transform="translate(133.300781 0)"/>
      <use xlink:href="#LiberationSans-63" transform="translate(200 0)"/>
      <use xlink:href="#LiberationSans-6f" transform="translate(250 0)"/>
      <use xlink:href="#LiberationSans-72" transform="translate(305.615234 0)"/>
      <use xlink:href="#LiberationSans-65" transform="translate(338.916016 0)"/>
     </g>
    </g>
   </g>
   <g id="line2d_71">
    <path d="M 1034.947414 382.516587 
L 1052.534085 332.649239 
L 1070.120757 260.044728 
L 1087.707428 192.226636 
L 1105.294099 137.000848 
L 1122.88077 99.089424 
L 1140.467442 75.910117 
L 1158.054113 64.425167 
L 1175.640784 55.746325 
L 1193.227455 53.551798 
L 1210.814127 52.610103 
L 1228.400798 52.379383 
L 1245.987469 52.056805 
L 1263.57414 50.543108 
L 1281.160812 50.297698 
L 1298.747483 50.031778 
L 1316.334154 50.280929 
L 1333.920825 49.67526 
L 1351.507497 49.845983 
L 1369.094168 49.663582 
L 1386.680839 49.77022 
L 1404.26751 49.323924 
L 1421.854182 49.020433 
" clip-path="url(#p3d8b6a15f2)" style="fill: none; stroke: #1f77b4; stroke-opacity: 0.9; stroke-width: 3; stroke-linecap: round"/>
   </g>
   <g id="line2d_72">
    <path d="M 1034.947414 352.57614 
L 1052.534085 298.215684 
L 1070.120757 215.655723 
L 1087.707428 162.026247 
L 1105.294099 118.358143 
L 1122.88077 85.559795 
L 1140.467442 66.541121 
L 1158.054113 59.128651 
L 1175.640784 54.883459 
L 1193.227455 57.31378 
L 1210.814127 54.089568 
L 1228.400798 53.696884 
L 1245.987469 56.010895 
L 1263.57414 55.60551 
L 1281.160812 53.173256 
L 1298.747483 51.640709 
L 1316.334154 54.591756 
L 1333.920825 52.090325 
L 1351.507497 52.93874 
L 1369.094168 52.826627 
L 1386.680839 52.150086 
L 1404.26751 51.709721 
L 1421.854182 51.971316 
" clip-path="url(#p3d8b6a15f2)" style="fill: none; stroke-dasharray: 11.1,4.8; stroke-dashoffset: 0; stroke: #d62728; stroke-opacity: 0.9; stroke-width: 3; stroke-linecap: round"/>
   </g>
   <g id="patch_15">
    <path d="M 1015.602076 399.191395 
L 1015.602076 32.345625 
" style="fill: none; stroke: #000000; stroke-width: 0.8; stroke-linejoin: miter; stroke-linecap: square"/>
   </g>
   <g id="patch_16">
    <path d="M 1441.19952 399.191395 
L 1441.19952 32.345625 
" style="fill: none; stroke: #000000; stroke-width: 0.8; stroke-linejoin: miter; stroke-linecap: square"/>
   </g>
   <g id="patch_17">
    <path d="M 1015.602076 399.191395 
L 1441.19952 399.191395 
" style="fill: none; stroke: #000000; stroke-width: 0.8; stroke-linejoin: miter; stroke-linecap: square"/>
   </g>
   <g id="patch_18">
    <path d="M 1015.602076 32.345625 
L 1441.19952 32.345625 
" style="fill: none; stroke: #000000; stroke-width: 0.8; stroke-linejoin: miter; stroke-linecap: square"/>
   </g>
   <g id="text_44">
    <!-- DNN Training R -->
    <g style="fill: #262626" transform="translate(1174.735954 17.345625) scale(0.14 -0.14)">
     <defs>
      <path id="LiberationSans-Bold-52" d="M 3453 0 
L 2431 1672 
L 1350 1672 
L 1350 0 
L 428 0 
L 428 4403 
L 2628 4403 
Q 3416 4403 3844 4064 
Q 4272 3725 4272 3091 
Q 4272 2628 4009 2292 
Q 3747 1956 3300 1850 
L 4491 0 
L 3453 0 
z
M 3344 3053 
Q 3344 3688 2531 3688 
L 1350 3688 
L 1350 2388 
L 2556 2388 
Q 2944 2388 3144 2563 
Q 3344 2738 3344 3053 
z
" transform="scale(0.015625)"/>
      <path id="LiberationSans-Bold-b2" d="M 166 2169 
L 159 2547 
Q 250 2738 415 2902 
Q 581 3066 866 3250 
Q 1138 3425 1238 3539 
Q 1338 3653 1338 3775 
Q 1338 4059 1084 4059 
Q 819 4059 788 3753 
L 181 3769 
Q 222 4078 459 4267 
Q 697 4456 1084 4456 
Q 1494 4456 1725 4282 
Q 1956 4109 1956 3800 
Q 1956 3409 1478 3103 
Q 1156 2897 1036 2800 
Q 916 2703 866 2600 
L 1997 2600 
L 1997 2169 
L 166 2169 
z
" transform="scale(0.015625)"/>
     </defs>
     <use xlink:href="#LiberationSans-Bold-44"/>
     <use xlink:href="#LiberationSans-Bold-4e" transform="translate(72.216797 0)"/>
     <use xlink:href="#LiberationSans-Bold-4e" transform="translate(144.433594 0)"/>
     <use xlink:href="#LiberationSans-Bold-20" transform="translate(216.650391 0)"/>
     <use xlink:href="#LiberationSans-Bold-54" transform="translate(244.433594 0)"/>
     <use xlink:href="#LiberationSans-Bold-72" transform="translate(300.017578 0)"/>
     <use xlink:href="#LiberationSans-Bold-61" transform="translate(338.933594 0)"/>
     <use xlink:href="#LiberationSans-Bold-69" transform="translate(394.548828 0)"/>
     <use xlink:href="#LiberationSans-Bold-6e" transform="translate(422.332031 0)"/>
     <use xlink:href="#LiberationSans-Bold-69" transform="translate(483.416016 0)"/>
     <use xlink:href="#LiberationSans-Bold-6e" transform="translate(511.199219 0)"/>
     <use xlink:href="#LiberationSans-Bold-67" transform="translate(572.283203 0)"/>
     <use xlink:href="#LiberationSans-Bold-20" transform="translate(633.367188 0)"/>
     <use xlink:href="#LiberationSans-Bold-52" transform="translate(661.150391 0)"/>
     <use xlink:href="#LiberationSans-Bold-b2" transform="translate(733.367188 0)"/>
    </g>
   </g>
   <g id="legend_3">
    <g id="patch_19">
     <path d="M 1315.88577 393.191395 
L 1432.79952 393.191395 
Q 1435.19952 393.191395 1435.19952 390.791395 
L 1435.19952 356.59327 
Q 1435.19952 354.19327 1432.79952 354.19327 
L 1315.88577 354.19327 
Q 1313.48577 354.19327 1313.48577 356.59327 
L 1313.48577 390.791395 
Q 1313.48577 393.191395 1315.88577 393.191395 
z
" style="fill: #ffffff; opacity: 0.9; stroke: #808080; stroke-linejoin: miter"/>
    </g>
    <g id="line2d_73">
     <path d="M 1318.28577 363.911395 
L 1330.28577 363.911395 
L 1342.28577 363.911395 
" style="fill: none; stroke: #1f77b4; stroke-opacity: 0.9; stroke-width: 3; stroke-linecap: round"/>
    </g>
    <g id="text_45">
     <!-- Training R -->
     <g style="fill: #262626" transform="translate(1351.88577 368.111395) scale(0.12 -0.12)">
      <defs>
       <path id="DejaVuSerif-52" d="M 3066 2316 
Q 3284 2256 3442 2114 
Q 3600 1972 3725 1716 
L 4403 331 
L 4972 331 
L 4972 0 
L 3872 0 
L 3144 1484 
Q 2934 1916 2759 2042 
Q 2584 2169 2278 2169 
L 1581 2169 
L 1581 331 
L 2241 331 
L 2241 0 
L 353 0 
L 353 331 
L 947 331 
L 947 4331 
L 353 4331 
L 353 4666 
L 2719 4666 
Q 3400 4666 3770 4341 
Q 4141 4016 4141 3419 
Q 4141 2938 3870 2661 
Q 3600 2384 3066 2316 
z
M 1581 2503 
L 2503 2503 
Q 2975 2503 3200 2726 
Q 3425 2950 3425 3419 
Q 3425 3888 3200 4109 
Q 2975 4331 2503 4331 
L 1581 4331 
L 1581 2503 
z
" transform="scale(0.015625)"/>
       <path id="DejaVuSerif-b2" d="M 531 4050 
L 313 4050 
L 313 4544 
Q 519 4644 737 4697 
Q 956 4750 1172 4750 
Q 1603 4750 1870 4544 
Q 2138 4338 2138 4013 
Q 2138 3631 1531 3088 
L 1472 3034 
L 728 2363 
L 1931 2363 
L 1931 2700 
L 2163 2700 
L 2163 2088 
L 281 2088 
L 281 2322 
L 1172 3116 
Q 1441 3356 1556 3547 
Q 1672 3738 1672 3944 
Q 1672 4209 1520 4364 
Q 1369 4519 1106 4519 
Q 863 4519 716 4400 
Q 569 4281 531 4050 
z
" transform="scale(0.015625)"/>
      </defs>
      <use xlink:href="#DejaVuSerif-54"/>
      <use xlink:href="#DejaVuSerif-72" transform="translate(66.699219 0)"/>
      <use xlink:href="#DejaVuSerif-61" transform="translate(114.501953 0)"/>
      <use xlink:href="#DejaVuSerif-69" transform="translate(174.121094 0)"/>
      <use xlink:href="#DejaVuSerif-6e" transform="translate(206.103516 0)"/>
      <use xlink:href="#DejaVuSerif-69" transform="translate(270.507812 0)"/>
      <use xlink:href="#DejaVuSerif-6e" transform="translate(302.490234 0)"/>
      <use xlink:href="#DejaVuSerif-67" transform="translate(366.894531 0)"/>
      <use xlink:href="#DejaVuSerif-20" transform="translate(430.908203 0)"/>
      <use xlink:href="#DejaVuSerif-52" transform="translate(462.695312 0)"/>
      <use xlink:href="#DejaVuSerif-b2" transform="translate(537.988281 0)"/>
     </g>
    </g>
    <g id="line2d_74">
     <path d="M 1318.28577 381.69577 
L 1330.28577 381.69577 
L 1342.28577 381.69577 
" style="fill: none; stroke-dasharray: 11.1,4.8; stroke-dashoffset: 0; stroke: #d62728; stroke-opacity: 0.9; stroke-width: 3; stroke-linecap: round"/>
    </g>
    <g id="text_46">
     <!-- Validation R -->
     <g style="fill: #262626" transform="translate(1351.88577 385.89577) scale(0.12 -0.12)">
      <use xlink:href="#DejaVuSerif-56"/>
      <use xlink:href="#DejaVuSerif-61" transform="translate(63.091797 0)"/>
      <use xlink:href="#DejaVuSerif-6c" transform="translate(122.710938 0)"/>
      <use xlink:href="#DejaVuSerif-69" transform="translate(154.693359 0)"/>
      <use xlink:href="#DejaVuSerif-64" transform="translate(186.675781 0)"/>
      <use xlink:href="#DejaVuSerif-61" transform="translate(250.689453 0)"/>
      <use xlink:href="#DejaVuSerif-74" transform="translate(310.308594 0)"/>
      <use xlink:href="#DejaVuSerif-69" transform="translate(350.494141 0)"/>
      <use xlink:href="#DejaVuSerif-6f" transform="translate(382.476562 0)"/>
      <use xlink:href="#DejaVuSerif-6e" transform="translate(442.681641 0)"/>
      <use xlink:href="#DejaVuSerif-20" transform="translate(507.085938 0)"/>
      <use xlink:href="#DejaVuSerif-52" transform="translate(538.873047 0)"/>
      <use xlink:href="#DejaVuSerif-b2" transform="translate(614.166016 0)"/>
     </g>
    </g>
   </g>
  </g>
 </g>
 <defs>
  <clipPath id="p46ef72e8b9">
   <rect x="65.251875" y="32.345625" width="425.597444" height="366.84577"/>
  </clipPath>
  <clipPath id="pd574608f84">
   <rect x="541.818382" y="32.345625" width="425.597444" height="366.84577"/>
  </clipPath>
  <clipPath id="p3d8b6a15f2">
   <rect x="1015.602076" y="32.345625" width="425.597444" height="366.84577"/>
  </clipPath>
 </defs>
</svg>
