<?xml version="1.0" encoding="utf-8" standalone="no"?>
<!DOCTYPE svg PUBLIC "-//W3C//DTD SVG 1.1//EN"
  "http://www.w3.org/Graphics/SVG/1.1/DTD/svg11.dtd">
<svg xmlns:xlink="http://www.w3.org/1999/xlink" width="1088.399528pt" height="440.39952pt" viewBox="0 0 1088.399528 440.39952" xmlns="http://www.w3.org/2000/svg" version="1.1">
 <metadata>
  <rdf:RDF xmlns:dc="http://purl.org/dc/elements/1.1/" xmlns:cc="http://creativecommons.org/ns#" xmlns:rdf="http://www.w3.org/1999/02/22-rdf-syntax-ns#">
   <cc:Work>
    <dc:type rdf:resource="http://purl.org/dc/dcmitype/StillImage"/>
    <dc:date>2025-06-30T21:26:16.940383</dc:date>
    <dc:format>image/svg+xml</dc:format>
    <dc:creator>
     <cc:Agent>
      <dc:title>Matplotlib v3.10.3, https://matplotlib.org/</dc:title>
     </cc:Agent>
    </dc:creator>
   </cc:Work>
  </rdf:RDF>
 </metadata>
 <defs>
  <style type="text/css">*{stroke-linejoin: round; stroke-linecap: butt}</style>
 </defs>
 <g id="figure_1">
  <g id="patch_1">
   <path d="M 0 440.39952 
L 1088.399528 440.39952 
L 1088.399528 0 
L 0 0 
L 0 440.39952 
z
" style="fill: none"/>
  </g>
  <g id="axes_1">
   <g id="patch_2">
    <path d="M 65.251875 399.191395 
L 545.216332 399.191395 
L 545.216332 32.345625 
L 65.251875 32.345625 
L 65.251875 399.191395 
z
" style="fill: none"/>
   </g>
   <g id="matplotlib.axis_1">
    <g id="xtick_1">
     <g id="line2d_1">
      <path d="M 87.068441 399.191395 
L 87.068441 32.345625 
" clip-path="url(#pf653044834)" style="fill: none; stroke: #f0f0f0; stroke-width: 0.7; stroke-linecap: round"/>
     </g>
     <g id="line2d_2"/>
     <g id="text_1">
      <!-- 0 -->
      <g style="fill: #262626" transform="translate(84.287972 409.93827) scale(0.1 -0.1)">
       <defs>
        <path id="LiberationSans-30" d="M 3309 2203 
Q 3309 1100 2920 518 
Q 2531 -63 1772 -63 
Q 1013 -63 631 515 
Q 250 1094 250 2203 
Q 250 3338 620 3903 
Q 991 4469 1791 4469 
Q 2569 4469 2939 3897 
Q 3309 3325 3309 2203 
z
M 2738 2203 
Q 2738 3156 2517 3584 
Q 2297 4013 1791 4013 
Q 1272 4013 1045 3591 
Q 819 3169 819 2203 
Q 819 1266 1048 831 
Q 1278 397 1778 397 
Q 2275 397 2506 840 
Q 2738 1284 2738 2203 
z
" transform="scale(0.015625)"/>
       </defs>
       <use xlink:href="#LiberationSans-30"/>
      </g>
     </g>
    </g>
    <g id="xtick_2">
     <g id="line2d_3">
      <path d="M 177.9708 399.191395 
L 177.9708 32.345625 
" clip-path="url(#pf653044834)" style="fill: none; stroke: #f0f0f0; stroke-width: 0.7; stroke-linecap: round"/>
     </g>
     <g id="line2d_4"/>
     <g id="text_2">
      <!-- 5 -->
      <g style="fill: #262626" transform="translate(175.190332 409.93827) scale(0.1 -0.1)">
       <defs>
        <path id="LiberationSans-35" d="M 3291 1434 
Q 3291 738 2877 337 
Q 2463 -63 1728 -63 
Q 1113 -63 734 206 
Q 356 475 256 984 
L 825 1050 
Q 1003 397 1741 397 
Q 2194 397 2450 670 
Q 2706 944 2706 1422 
Q 2706 1838 2448 2094 
Q 2191 2350 1753 2350 
Q 1525 2350 1328 2278 
Q 1131 2206 934 2034 
L 384 2034 
L 531 4403 
L 3034 4403 
L 3034 3925 
L 1044 3925 
L 959 2528 
Q 1325 2809 1869 2809 
Q 2519 2809 2905 2428 
Q 3291 2047 3291 1434 
z
" transform="scale(0.015625)"/>
       </defs>
       <use xlink:href="#LiberationSans-35"/>
      </g>
     </g>
    </g>
    <g id="xtick_3">
     <g id="line2d_5">
      <path d="M 268.87316 399.191395 
L 268.87316 32.345625 
" clip-path="url(#pf653044834)" style="fill: none; stroke: #f0f0f0; stroke-width: 0.7; stroke-linecap: round"/>
     </g>
     <g id="line2d_6"/>
     <g id="text_3">
      <!-- 10 -->
      <g style="fill: #262626" transform="translate(263.312222 409.93827) scale(0.1 -0.1)">
       <defs>
        <path id="LiberationSans-31" d="M 488 0 
L 488 478 
L 1609 478 
L 1609 3866 
L 616 3156 
L 616 3688 
L 1656 4403 
L 2175 4403 
L 2175 478 
L 3247 478 
L 3247 0 
L 488 0 
z
" transform="scale(0.015625)"/>
       </defs>
       <use xlink:href="#LiberationSans-31"/>
       <use xlink:href="#LiberationSans-30" transform="translate(55.615234 0)"/>
      </g>
     </g>
    </g>
    <g id="xtick_4">
     <g id="line2d_7">
      <path d="M 359.775519 399.191395 
L 359.775519 32.345625 
" clip-path="url(#pf653044834)" style="fill: none; stroke: #f0f0f0; stroke-width: 0.7; stroke-linecap: round"/>
     </g>
     <g id="line2d_8"/>
     <g id="text_4">
      <!-- 15 -->
      <g style="fill: #262626" transform="translate(354.214581 409.93827) scale(0.1 -0.1)">
       <use xlink:href="#LiberationSans-31"/>
       <use xlink:href="#LiberationSans-35" transform="translate(55.615234 0)"/>
      </g>
     </g>
    </g>
    <g id="xtick_5">
     <g id="line2d_9">
      <path d="M 450.677878 399.191395 
L 450.677878 32.345625 
" clip-path="url(#pf653044834)" style="fill: none; stroke: #f0f0f0; stroke-width: 0.7; stroke-linecap: round"/>
     </g>
     <g id="line2d_10"/>
     <g id="text_5">
      <!-- 20 -->
      <g style="fill: #262626" transform="translate(445.11694 409.93827) scale(0.1 -0.1)">
       <defs>
        <path id="LiberationSans-32" d="M 322 0 
L 322 397 
Q 481 763 711 1042 
Q 941 1322 1194 1548 
Q 1447 1775 1695 1969 
Q 1944 2163 2144 2356 
Q 2344 2550 2467 2762 
Q 2591 2975 2591 3244 
Q 2591 3606 2378 3806 
Q 2166 4006 1788 4006 
Q 1428 4006 1195 3811 
Q 963 3616 922 3263 
L 347 3316 
Q 409 3844 795 4156 
Q 1181 4469 1788 4469 
Q 2453 4469 2811 4155 
Q 3169 3841 3169 3263 
Q 3169 3006 3051 2753 
Q 2934 2500 2703 2247 
Q 2472 1994 1819 1463 
Q 1459 1169 1246 933 
Q 1034 697 941 478 
L 3238 478 
L 3238 0 
L 322 0 
z
" transform="scale(0.015625)"/>
       </defs>
       <use xlink:href="#LiberationSans-32"/>
       <use xlink:href="#LiberationSans-30" transform="translate(55.615234 0)"/>
      </g>
     </g>
    </g>
    <g id="xtick_6">
     <g id="line2d_11">
      <path d="M 541.580237 399.191395 
L 541.580237 32.345625 
" clip-path="url(#pf653044834)" style="fill: none; stroke: #f0f0f0; stroke-width: 0.7; stroke-linecap: round"/>
     </g>
     <g id="line2d_12"/>
     <g id="text_6">
      <!-- 25 -->
      <g style="fill: #262626" transform="translate(536.0193 409.93827) scale(0.1 -0.1)">
       <use xlink:href="#LiberationSans-32"/>
       <use xlink:href="#LiberationSans-35" transform="translate(55.615234 0)"/>
      </g>
     </g>
    </g>
    <g id="text_7">
     <!-- Epoch -->
     <g style="fill: #262626" transform="translate(288.222228 430.70952) scale(0.12 -0.12)">
      <defs>
       <path id="LiberationSans-45" d="M 525 0 
L 525 4403 
L 3866 4403 
L 3866 3916 
L 1122 3916 
L 1122 2503 
L 3678 2503 
L 3678 2022 
L 1122 2022 
L 1122 488 
L 3994 488 
L 3994 0 
L 525 0 
z
" transform="scale(0.015625)"/>
       <path id="LiberationSans-70" d="M 3291 1706 
Q 3291 -63 2047 -63 
Q 1266 -63 997 525 
L 981 525 
Q 994 500 994 -6 
L 994 -1328 
L 431 -1328 
L 431 2691 
Q 431 3213 413 3381 
L 956 3381 
Q 959 3369 965 3292 
Q 972 3216 980 3056 
Q 988 2897 988 2838 
L 1000 2838 
Q 1150 3150 1397 3295 
Q 1644 3441 2047 3441 
Q 2672 3441 2981 3022 
Q 3291 2603 3291 1706 
z
M 2700 1694 
Q 2700 2400 2509 2703 
Q 2319 3006 1903 3006 
Q 1569 3006 1380 2865 
Q 1191 2725 1092 2426 
Q 994 2128 994 1650 
Q 994 984 1206 668 
Q 1419 353 1897 353 
Q 2316 353 2508 661 
Q 2700 969 2700 1694 
z
" transform="scale(0.015625)"/>
       <path id="LiberationSans-6f" d="M 3291 1694 
Q 3291 806 2900 371 
Q 2509 -63 1766 -63 
Q 1025 -63 647 389 
Q 269 841 269 1694 
Q 269 3444 1784 3444 
Q 2559 3444 2925 3017 
Q 3291 2591 3291 1694 
z
M 2700 1694 
Q 2700 2394 2492 2711 
Q 2284 3028 1794 3028 
Q 1300 3028 1079 2704 
Q 859 2381 859 1694 
Q 859 1025 1076 689 
Q 1294 353 1759 353 
Q 2266 353 2483 678 
Q 2700 1003 2700 1694 
z
" transform="scale(0.015625)"/>
       <path id="LiberationSans-63" d="M 859 1706 
Q 859 1031 1071 706 
Q 1284 381 1713 381 
Q 2013 381 2214 543 
Q 2416 706 2463 1044 
L 3031 1006 
Q 2966 519 2616 228 
Q 2266 -63 1728 -63 
Q 1019 -63 645 385 
Q 272 834 272 1694 
Q 272 2547 647 2995 
Q 1022 3444 1722 3444 
Q 2241 3444 2583 3175 
Q 2925 2906 3013 2434 
L 2434 2391 
Q 2391 2672 2212 2837 
Q 2034 3003 1706 3003 
Q 1259 3003 1059 2706 
Q 859 2409 859 1706 
z
" transform="scale(0.015625)"/>
       <path id="LiberationSans-68" d="M 991 2803 
Q 1172 3134 1426 3289 
Q 1681 3444 2072 3444 
Q 2622 3444 2883 3170 
Q 3144 2897 3144 2253 
L 3144 0 
L 2578 0 
L 2578 2144 
Q 2578 2500 2512 2673 
Q 2447 2847 2297 2928 
Q 2147 3009 1881 3009 
Q 1484 3009 1245 2734 
Q 1006 2459 1006 1994 
L 1006 0 
L 444 0 
L 444 4638 
L 1006 4638 
L 1006 3431 
Q 1006 3241 995 3037 
Q 984 2834 981 2803 
L 991 2803 
z
" transform="scale(0.015625)"/>
      </defs>
      <use xlink:href="#LiberationSans-45"/>
      <use xlink:href="#LiberationSans-70" transform="translate(66.699219 0)"/>
      <use xlink:href="#LiberationSans-6f" transform="translate(122.314453 0)"/>
      <use xlink:href="#LiberationSans-63" transform="translate(177.929688 0)"/>
      <use xlink:href="#LiberationSans-68" transform="translate(227.929688 0)"/>
     </g>
    </g>
   </g>
   <g id="matplotlib.axis_2">
    <g id="ytick_1">
     <g id="line2d_13">
      <path d="M 65.251875 326.324056 
L 545.216332 326.324056 
" clip-path="url(#pf653044834)" style="fill: none; stroke: #f0f0f0; stroke-width: 0.7; stroke-linecap: round"/>
     </g>
     <g id="line2d_14"/>
     <g id="text_8">
      <!-- 100000 -->
      <g style="fill: #262626" transform="translate(28.38625 329.947494) scale(0.1 -0.1)">
       <use xlink:href="#LiberationSans-31"/>
       <use xlink:href="#LiberationSans-30" transform="translate(55.615234 0)"/>
       <use xlink:href="#LiberationSans-30" transform="translate(111.230469 0)"/>
       <use xlink:href="#LiberationSans-30" transform="translate(166.845703 0)"/>
       <use xlink:href="#LiberationSans-30" transform="translate(222.460938 0)"/>
       <use xlink:href="#LiberationSans-30" transform="translate(278.076172 0)"/>
      </g>
     </g>
    </g>
    <g id="ytick_2">
     <g id="line2d_15">
      <path d="M 65.251875 252.571891 
L 545.216332 252.571891 
" clip-path="url(#pf653044834)" style="fill: none; stroke: #f0f0f0; stroke-width: 0.7; stroke-linecap: round"/>
     </g>
     <g id="line2d_16"/>
     <g id="text_9">
      <!-- 200000 -->
      <g style="fill: #262626" transform="translate(28.38625 256.195329) scale(0.1 -0.1)">
       <use xlink:href="#LiberationSans-32"/>
       <use xlink:href="#LiberationSans-30" transform="translate(55.615234 0)"/>
       <use xlink:href="#LiberationSans-30" transform="translate(111.230469 0)"/>
       <use xlink:href="#LiberationSans-30" transform="translate(166.845703 0)"/>
       <use xlink:href="#LiberationSans-30" transform="translate(222.460938 0)"/>
       <use xlink:href="#LiberationSans-30" transform="translate(278.076172 0)"/>
      </g>
     </g>
    </g>
    <g id="ytick_3">
     <g id="line2d_17">
      <path d="M 65.251875 178.819726 
L 545.216332 178.819726 
" clip-path="url(#pf653044834)" style="fill: none; stroke: #f0f0f0; stroke-width: 0.7; stroke-linecap: round"/>
     </g>
     <g id="line2d_18"/>
     <g id="text_10">
      <!-- 300000 -->
      <g style="fill: #262626" transform="translate(28.38625 182.443164) scale(0.1 -0.1)">
       <defs>
        <path id="LiberationSans-33" d="M 3278 1216 
Q 3278 606 2890 271 
Q 2503 -63 1784 -63 
Q 1116 -63 717 239 
Q 319 541 244 1131 
L 825 1184 
Q 938 403 1784 403 
Q 2209 403 2451 612 
Q 2694 822 2694 1234 
Q 2694 1594 2417 1795 
Q 2141 1997 1619 1997 
L 1300 1997 
L 1300 2484 
L 1606 2484 
Q 2069 2484 2323 2686 
Q 2578 2888 2578 3244 
Q 2578 3597 2370 3801 
Q 2163 4006 1753 4006 
Q 1381 4006 1151 3815 
Q 922 3625 884 3278 
L 319 3322 
Q 381 3863 767 4166 
Q 1153 4469 1759 4469 
Q 2422 4469 2789 4161 
Q 3156 3853 3156 3303 
Q 3156 2881 2920 2617 
Q 2684 2353 2234 2259 
L 2234 2247 
Q 2728 2194 3003 1916 
Q 3278 1638 3278 1216 
z
" transform="scale(0.015625)"/>
       </defs>
       <use xlink:href="#LiberationSans-33"/>
       <use xlink:href="#LiberationSans-30" transform="translate(55.615234 0)"/>
       <use xlink:href="#LiberationSans-30" transform="translate(111.230469 0)"/>
       <use xlink:href="#LiberationSans-30" transform="translate(166.845703 0)"/>
       <use xlink:href="#LiberationSans-30" transform="translate(222.460938 0)"/>
       <use xlink:href="#LiberationSans-30" transform="translate(278.076172 0)"/>
      </g>
     </g>
    </g>
    <g id="ytick_4">
     <g id="line2d_19">
      <path d="M 65.251875 105.067561 
L 545.216332 105.067561 
" clip-path="url(#pf653044834)" style="fill: none; stroke: #f0f0f0; stroke-width: 0.7; stroke-linecap: round"/>
     </g>
     <g id="line2d_20"/>
     <g id="text_11">
      <!-- 400000 -->
      <g style="fill: #262626" transform="translate(28.38625 108.690998) scale(0.1 -0.1)">
       <defs>
        <path id="LiberationSans-34" d="M 2753 997 
L 2753 0 
L 2222 0 
L 2222 997 
L 147 997 
L 147 1434 
L 2163 4403 
L 2753 4403 
L 2753 1441 
L 3372 1441 
L 3372 997 
L 2753 997 
z
M 2222 3769 
Q 2216 3750 2134 3603 
Q 2053 3456 2013 3397 
L 884 1734 
L 716 1503 
L 666 1441 
L 2222 1441 
L 2222 3769 
z
" transform="scale(0.015625)"/>
       </defs>
       <use xlink:href="#LiberationSans-34"/>
       <use xlink:href="#LiberationSans-30" transform="translate(55.615234 0)"/>
       <use xlink:href="#LiberationSans-30" transform="translate(111.230469 0)"/>
       <use xlink:href="#LiberationSans-30" transform="translate(166.845703 0)"/>
       <use xlink:href="#LiberationSans-30" transform="translate(222.460938 0)"/>
       <use xlink:href="#LiberationSans-30" transform="translate(278.076172 0)"/>
      </g>
     </g>
    </g>
    <g id="text_12">
     <!-- Loss -->
     <g style="fill: #262626" transform="translate(15.89625 228.441635) rotate(-90) scale(0.12 -0.12)">
      <defs>
       <path id="LiberationSans-4c" d="M 525 0 
L 525 4403 
L 1122 4403 
L 1122 488 
L 3347 488 
L 3347 0 
L 525 0 
z
" transform="scale(0.015625)"/>
       <path id="LiberationSans-73" d="M 2969 934 
Q 2969 456 2608 196 
Q 2247 -63 1597 -63 
Q 966 -63 623 145 
Q 281 353 178 794 
L 675 891 
Q 747 619 972 492 
Q 1197 366 1597 366 
Q 2025 366 2223 497 
Q 2422 628 2422 891 
Q 2422 1091 2284 1216 
Q 2147 1341 1841 1422 
L 1438 1528 
Q 953 1653 748 1773 
Q 544 1894 428 2066 
Q 313 2238 313 2488 
Q 313 2950 642 3192 
Q 972 3434 1603 3434 
Q 2163 3434 2492 3237 
Q 2822 3041 2909 2606 
L 2403 2544 
Q 2356 2769 2151 2889 
Q 1947 3009 1603 3009 
Q 1222 3009 1040 2893 
Q 859 2778 859 2544 
Q 859 2400 934 2306 
Q 1009 2213 1156 2147 
Q 1303 2081 1775 1966 
Q 2222 1853 2419 1758 
Q 2616 1663 2730 1547 
Q 2844 1431 2906 1279 
Q 2969 1128 2969 934 
z
" transform="scale(0.015625)"/>
      </defs>
      <use xlink:href="#LiberationSans-4c"/>
      <use xlink:href="#LiberationSans-6f" transform="translate(55.615234 0)"/>
      <use xlink:href="#LiberationSans-73" transform="translate(111.230469 0)"/>
      <use xlink:href="#LiberationSans-73" transform="translate(161.230469 0)"/>
     </g>
    </g>
   </g>
   <g id="line2d_21">
    <path d="M 87.068441 49.020433 
L 105.248913 101.043458 
L 123.429385 168.693116 
L 141.609857 233.822973 
L 159.790329 288.130426 
L 177.9708 326.955191 
L 196.151272 350.987207 
L 214.331744 364.117331 
L 232.512216 376.255172 
L 250.692688 377.20788 
L 268.87316 378.231484 
L 287.053631 378.842396 
L 305.234103 379.127886 
L 323.414575 380.382796 
L 341.595047 380.432579 
L 359.775519 380.560958 
L 377.955991 381.422942 
L 396.136462 381.20426 
L 414.316934 381.651273 
L 432.497406 381.699719 
L 450.677878 382.098807 
L 468.85835 381.986502 
L 487.038822 382.017086 
L 505.219293 382.219765 
L 523.399765 382.516587 
" clip-path="url(#pf653044834)" style="fill: none; stroke: #1f77b4; stroke-opacity: 0.9; stroke-width: 3; stroke-linecap: round"/>
   </g>
   <g id="line2d_22">
    <path d="M 87.068441 68.956404 
L 105.248913 135.070195 
L 123.429385 202.957519 
L 141.609857 267.184823 
L 159.790329 315.580797 
L 177.9708 341.939994 
L 196.151272 356.891258 
L 214.331744 343.086996 
L 232.512216 373.01837 
L 250.692688 373.418288 
L 268.87316 374.181747 
L 287.053631 374.097134 
L 305.234103 374.447975 
L 323.414575 373.326827 
L 341.595047 373.906075 
L 359.775519 372.745444 
L 377.955991 376.135488 
L 396.136462 374.245111 
L 414.316934 375.821033 
L 432.497406 376.750672 
L 450.677878 374.875012 
L 468.85835 376.57392 
L 487.038822 376.66088 
L 505.219293 373.247912 
L 523.399765 376.613692 
" clip-path="url(#pf653044834)" style="fill: none; stroke-dasharray: 11.1,4.8; stroke-dashoffset: 0; stroke: #d62728; stroke-opacity: 0.9; stroke-width: 3; stroke-linecap: round"/>
   </g>
   <g id="patch_3">
    <path d="M 65.251875 399.191395 
L 65.251875 32.345625 
" style="fill: none; stroke: #000000; stroke-width: 0.8; stroke-linejoin: miter; stroke-linecap: square"/>
   </g>
   <g id="patch_4">
    <path d="M 545.216332 399.191395 
L 545.216332 32.345625 
" style="fill: none; stroke: #000000; stroke-width: 0.8; stroke-linejoin: miter; stroke-linecap: square"/>
   </g>
   <g id="patch_5">
    <path d="M 65.251875 399.191395 
L 545.216332 399.191395 
" style="fill: none; stroke: #000000; stroke-width: 0.8; stroke-linejoin: miter; stroke-linecap: square"/>
   </g>
   <g id="patch_6">
    <path d="M 65.251875 32.345625 
L 545.216332 32.345625 
" style="fill: none; stroke: #000000; stroke-width: 0.8; stroke-linejoin: miter; stroke-linecap: square"/>
   </g>
   <g id="text_13">
    <!-- DNN Training Loss -->
    <g style="fill: #262626" transform="translate(242.619103 17.345625) scale(0.14 -0.14)">
     <defs>
      <path id="LiberationSans-Bold-44" d="M 4353 2234 
Q 4353 1553 4086 1045 
Q 3819 538 3330 269 
Q 2841 0 2209 0 
L 428 0 
L 428 4403 
L 2022 4403 
Q 3134 4403 3743 3842 
Q 4353 3281 4353 2234 
z
M 3425 2234 
Q 3425 2944 3056 3317 
Q 2688 3691 2003 3691 
L 1350 3691 
L 1350 713 
L 2131 713 
Q 2725 713 3075 1122 
Q 3425 1531 3425 2234 
z
" transform="scale(0.015625)"/>
      <path id="LiberationSans-Bold-4e" d="M 3109 0 
L 1191 3391 
Q 1247 2897 1247 2597 
L 1247 0 
L 428 0 
L 428 4403 
L 1481 4403 
L 3428 984 
Q 3372 1456 3372 1844 
L 3372 4403 
L 4191 4403 
L 4191 0 
L 3109 0 
z
" transform="scale(0.015625)"/>
      <path id="LiberationSans-Bold-20" transform="scale(0.015625)"/>
      <path id="LiberationSans-Bold-54" d="M 2416 3691 
L 2416 0 
L 1494 0 
L 1494 3691 
L 72 3691 
L 72 4403 
L 3841 4403 
L 3841 3691 
L 2416 3691 
z
" transform="scale(0.015625)"/>
      <path id="LiberationSans-Bold-72" d="M 447 0 
L 447 2588 
Q 447 2866 439 3052 
Q 431 3238 422 3381 
L 1259 3381 
Q 1269 3325 1284 3039 
Q 1300 2753 1300 2659 
L 1313 2659 
Q 1441 3016 1541 3161 
Q 1641 3306 1778 3376 
Q 1916 3447 2122 3447 
Q 2291 3447 2394 3400 
L 2394 2666 
Q 2181 2713 2019 2713 
Q 1691 2713 1508 2447 
Q 1325 2181 1325 1659 
L 1325 0 
L 447 0 
z
" transform="scale(0.015625)"/>
      <path id="LiberationSans-Bold-61" d="M 1228 -63 
Q 738 -63 463 204 
Q 188 472 188 956 
Q 188 1481 530 1756 
Q 872 2031 1522 2038 
L 2250 2050 
L 2250 2222 
Q 2250 2553 2134 2714 
Q 2019 2875 1756 2875 
Q 1513 2875 1398 2764 
Q 1284 2653 1256 2397 
L 341 2441 
Q 425 2934 792 3189 
Q 1159 3444 1794 3444 
Q 2434 3444 2781 3128 
Q 3128 2813 3128 2231 
L 3128 1000 
Q 3128 716 3192 608 
Q 3256 500 3406 500 
Q 3506 500 3600 519 
L 3600 44 
Q 3522 25 3459 9 
Q 3397 -6 3334 -15 
Q 3272 -25 3201 -31 
Q 3131 -38 3038 -38 
Q 2706 -38 2548 125 
Q 2391 288 2359 603 
L 2341 603 
Q 1972 -63 1228 -63 
z
M 2250 1566 
L 1800 1559 
Q 1494 1547 1366 1492 
Q 1238 1438 1170 1325 
Q 1103 1213 1103 1025 
Q 1103 784 1214 667 
Q 1325 550 1509 550 
Q 1716 550 1886 662 
Q 2056 775 2153 973 
Q 2250 1172 2250 1394 
L 2250 1566 
z
" transform="scale(0.015625)"/>
      <path id="LiberationSans-Bold-69" d="M 447 3991 
L 447 4638 
L 1325 4638 
L 1325 3991 
L 447 3991 
z
M 447 0 
L 447 3381 
L 1325 3381 
L 1325 0 
L 447 0 
z
" transform="scale(0.015625)"/>
      <path id="LiberationSans-Bold-6e" d="M 2638 0 
L 2638 1897 
Q 2638 2788 2034 2788 
Q 1716 2788 1520 2514 
Q 1325 2241 1325 1813 
L 1325 0 
L 447 0 
L 447 2625 
Q 447 2897 439 3070 
Q 431 3244 422 3381 
L 1259 3381 
Q 1269 3322 1284 3064 
Q 1300 2806 1300 2709 
L 1313 2709 
Q 1491 3097 1759 3272 
Q 2028 3447 2400 3447 
Q 2938 3447 3225 3115 
Q 3513 2784 3513 2147 
L 3513 0 
L 2638 0 
z
" transform="scale(0.015625)"/>
      <path id="LiberationSans-Bold-67" d="M 1863 -1356 
Q 1244 -1356 867 -1120 
Q 491 -884 403 -447 
L 1281 -344 
Q 1328 -547 1483 -662 
Q 1638 -778 1888 -778 
Q 2253 -778 2422 -553 
Q 2591 -328 2591 116 
L 2591 294 
L 2597 628 
L 2591 628 
Q 2300 6 1503 6 
Q 913 6 588 450 
Q 263 894 263 1719 
Q 263 2547 597 2997 
Q 931 3447 1569 3447 
Q 2306 3447 2591 2838 
L 2606 2838 
Q 2606 2947 2620 3134 
Q 2634 3322 2650 3381 
L 3481 3381 
Q 3463 3044 3463 2600 
L 3463 103 
Q 3463 -619 3053 -987 
Q 2644 -1356 1863 -1356 
z
M 2597 1738 
Q 2597 2259 2411 2551 
Q 2225 2844 1881 2844 
Q 1178 2844 1178 1719 
Q 1178 616 1875 616 
Q 2225 616 2411 908 
Q 2597 1200 2597 1738 
z
" transform="scale(0.015625)"/>
      <path id="LiberationSans-Bold-4c" d="M 428 0 
L 428 4403 
L 1350 4403 
L 1350 713 
L 3713 713 
L 3713 0 
L 428 0 
z
" transform="scale(0.015625)"/>
      <path id="LiberationSans-Bold-6f" d="M 3659 1694 
Q 3659 872 3203 404 
Q 2747 -63 1941 -63 
Q 1150 -63 700 406 
Q 250 875 250 1694 
Q 250 2509 700 2976 
Q 1150 3444 1959 3444 
Q 2788 3444 3223 2992 
Q 3659 2541 3659 1694 
z
M 2741 1694 
Q 2741 2297 2544 2569 
Q 2347 2841 1972 2841 
Q 1172 2841 1172 1694 
Q 1172 1128 1367 833 
Q 1563 538 1931 538 
Q 2741 538 2741 1694 
z
" transform="scale(0.015625)"/>
      <path id="LiberationSans-Bold-73" d="M 3297 988 
Q 3297 497 2895 217 
Q 2494 -63 1784 -63 
Q 1088 -63 717 157 
Q 347 378 225 844 
L 997 959 
Q 1063 719 1223 619 
Q 1384 519 1784 519 
Q 2153 519 2322 612 
Q 2491 706 2491 906 
Q 2491 1069 2355 1164 
Q 2219 1259 1894 1325 
Q 1150 1472 890 1598 
Q 631 1725 495 1926 
Q 359 2128 359 2422 
Q 359 2906 732 3176 
Q 1106 3447 1791 3447 
Q 2394 3447 2761 3212 
Q 3128 2978 3219 2534 
L 2441 2453 
Q 2403 2659 2256 2761 
Q 2109 2863 1791 2863 
Q 1478 2863 1322 2783 
Q 1166 2703 1166 2516 
Q 1166 2369 1286 2283 
Q 1406 2197 1691 2141 
Q 2088 2059 2395 1973 
Q 2703 1888 2889 1769 
Q 3075 1650 3186 1464 
Q 3297 1278 3297 988 
z
" transform="scale(0.015625)"/>
     </defs>
     <use xlink:href="#LiberationSans-Bold-44"/>
     <use xlink:href="#LiberationSans-Bold-4e" transform="translate(72.216797 0)"/>
     <use xlink:href="#LiberationSans-Bold-4e" transform="translate(144.433594 0)"/>
     <use xlink:href="#LiberationSans-Bold-20" transform="translate(216.650391 0)"/>
     <use xlink:href="#LiberationSans-Bold-54" transform="translate(244.433594 0)"/>
     <use xlink:href="#LiberationSans-Bold-72" transform="translate(300.017578 0)"/>
     <use xlink:href="#LiberationSans-Bold-61" transform="translate(338.933594 0)"/>
     <use xlink:href="#LiberationSans-Bold-69" transform="translate(394.548828 0)"/>
     <use xlink:href="#LiberationSans-Bold-6e" transform="translate(422.332031 0)"/>
     <use xlink:href="#LiberationSans-Bold-69" transform="translate(483.416016 0)"/>
     <use xlink:href="#LiberationSans-Bold-6e" transform="translate(511.199219 0)"/>
     <use xlink:href="#LiberationSans-Bold-67" transform="translate(572.283203 0)"/>
     <use xlink:href="#LiberationSans-Bold-20" transform="translate(633.367188 0)"/>
     <use xlink:href="#LiberationSans-Bold-4c" transform="translate(661.150391 0)"/>
     <use xlink:href="#LiberationSans-Bold-6f" transform="translate(722.234375 0)"/>
     <use xlink:href="#LiberationSans-Bold-73" transform="translate(783.318359 0)"/>
     <use xlink:href="#LiberationSans-Bold-73" transform="translate(838.933594 0)"/>
    </g>
   </g>
   <g id="legend_1">
    <g id="patch_7">
     <path d="M 406.241332 77.34375 
L 536.816332 77.34375 
Q 539.216332 77.34375 539.216332 74.94375 
L 539.216332 40.745625 
Q 539.216332 38.345625 536.816332 38.345625 
L 406.241332 38.345625 
Q 403.841332 38.345625 403.841332 40.745625 
L 403.841332 74.94375 
Q 403.841332 77.34375 406.241332 77.34375 
z
" style="fill: #ffffff; opacity: 0.9; stroke: #808080; stroke-linejoin: miter"/>
    </g>
    <g id="line2d_23">
     <path d="M 408.641332 48.06375 
L 420.641332 48.06375 
L 432.641332 48.06375 
" style="fill: none; stroke: #1f77b4; stroke-opacity: 0.9; stroke-width: 3; stroke-linecap: round"/>
    </g>
    <g id="text_14">
     <!-- Training Loss -->
     <g style="fill: #262626" transform="translate(442.241332 52.26375) scale(0.12 -0.12)">
      <defs>
       <path id="DejaVuSerif-54" d="M 1222 0 
L 1222 331 
L 1819 331 
L 1819 4294 
L 447 4294 
L 447 3566 
L 63 3566 
L 63 4666 
L 4206 4666 
L 4206 3566 
L 3822 3566 
L 3822 4294 
L 2450 4294 
L 2450 331 
L 3047 331 
L 3047 0 
L 1222 0 
z
" transform="scale(0.015625)"/>
       <path id="DejaVuSerif-72" d="M 3059 3328 
L 3059 2497 
L 2728 2497 
Q 2713 2744 2591 2866 
Q 2469 2988 2234 2988 
Q 1809 2988 1582 2694 
Q 1356 2400 1356 1850 
L 1356 331 
L 2022 331 
L 2022 0 
L 263 0 
L 263 331 
L 781 331 
L 781 2994 
L 231 2994 
L 231 3322 
L 1356 3322 
L 1356 2731 
Q 1525 3078 1790 3245 
Q 2056 3413 2438 3413 
Q 2578 3413 2733 3391 
Q 2888 3369 3059 3328 
z
" transform="scale(0.015625)"/>
       <path id="DejaVuSerif-61" d="M 2547 1044 
L 2547 1747 
L 1806 1747 
Q 1378 1747 1168 1562 
Q 959 1378 959 997 
Q 959 650 1171 447 
Q 1384 244 1747 244 
Q 2106 244 2326 466 
Q 2547 688 2547 1044 
z
M 3122 2075 
L 3122 331 
L 3634 331 
L 3634 0 
L 2547 0 
L 2547 359 
Q 2356 128 2106 18 
Q 1856 -91 1522 -91 
Q 969 -91 644 203 
Q 319 497 319 997 
Q 319 1513 691 1797 
Q 1063 2081 1741 2081 
L 2547 2081 
L 2547 2309 
Q 2547 2688 2317 2895 
Q 2088 3103 1672 3103 
Q 1328 3103 1125 2947 
Q 922 2791 872 2484 
L 575 2484 
L 575 3156 
Q 875 3284 1158 3348 
Q 1441 3413 1709 3413 
Q 2400 3413 2761 3070 
Q 3122 2728 3122 2075 
z
" transform="scale(0.015625)"/>
       <path id="DejaVuSerif-69" d="M 622 4353 
Q 622 4497 726 4603 
Q 831 4709 978 4709 
Q 1122 4709 1226 4603 
Q 1331 4497 1331 4353 
Q 1331 4206 1228 4103 
Q 1125 4000 978 4000 
Q 831 4000 726 4103 
Q 622 4206 622 4353 
z
M 1356 331 
L 1900 331 
L 1900 0 
L 231 0 
L 231 331 
L 781 331 
L 781 2988 
L 231 2988 
L 231 3322 
L 1356 3322 
L 1356 331 
z
" transform="scale(0.015625)"/>
       <path id="DejaVuSerif-6e" d="M 263 0 
L 263 331 
L 781 331 
L 781 2988 
L 231 2988 
L 231 3322 
L 1356 3322 
L 1356 2731 
Q 1516 3069 1770 3241 
Q 2025 3413 2363 3413 
Q 2913 3413 3172 3097 
Q 3431 2781 3431 2113 
L 3431 331 
L 3944 331 
L 3944 0 
L 2356 0 
L 2356 331 
L 2853 331 
L 2853 1931 
Q 2853 2541 2703 2767 
Q 2553 2994 2175 2994 
Q 1775 2994 1565 2701 
Q 1356 2409 1356 1850 
L 1356 331 
L 1856 331 
L 1856 0 
L 263 0 
z
" transform="scale(0.015625)"/>
       <path id="DejaVuSerif-67" d="M 3359 2988 
L 3359 72 
Q 3359 -644 2965 -1033 
Q 2572 -1422 1844 -1422 
Q 1516 -1422 1216 -1362 
Q 916 -1303 641 -1184 
L 641 -488 
L 941 -488 
Q 997 -813 1206 -963 
Q 1416 -1113 1806 -1113 
Q 2313 -1113 2548 -827 
Q 2784 -541 2784 72 
L 2784 519 
Q 2616 206 2355 57 
Q 2094 -91 1709 -91 
Q 1097 -91 708 395 
Q 319 881 319 1663 
Q 319 2444 706 2928 
Q 1094 3413 1709 3413 
Q 2094 3413 2355 3264 
Q 2616 3116 2784 2803 
L 2784 3322 
L 3909 3322 
L 3909 2988 
L 3359 2988 
z
M 2784 1825 
Q 2784 2422 2554 2737 
Q 2325 3053 1888 3053 
Q 1444 3053 1217 2703 
Q 991 2353 991 1663 
Q 991 975 1217 622 
Q 1444 269 1888 269 
Q 2325 269 2554 583 
Q 2784 897 2784 1497 
L 2784 1825 
z
" transform="scale(0.015625)"/>
       <path id="DejaVuSerif-20" transform="scale(0.015625)"/>
       <path id="DejaVuSerif-4c" d="M 353 0 
L 353 331 
L 947 331 
L 947 4331 
L 353 4331 
L 353 4666 
L 2175 4666 
L 2175 4331 
L 1581 4331 
L 1581 384 
L 3713 384 
L 3713 1166 
L 4097 1166 
L 4097 0 
L 353 0 
z
" transform="scale(0.015625)"/>
       <path id="DejaVuSerif-6f" d="M 1925 219 
Q 2388 219 2623 584 
Q 2859 950 2859 1663 
Q 2859 2375 2623 2739 
Q 2388 3103 1925 3103 
Q 1463 3103 1227 2739 
Q 991 2375 991 1663 
Q 991 950 1228 584 
Q 1466 219 1925 219 
z
M 1925 -91 
Q 1200 -91 759 389 
Q 319 869 319 1663 
Q 319 2456 758 2934 
Q 1197 3413 1925 3413 
Q 2653 3413 3092 2934 
Q 3531 2456 3531 1663 
Q 3531 869 3092 389 
Q 2653 -91 1925 -91 
z
" transform="scale(0.015625)"/>
       <path id="DejaVuSerif-73" d="M 359 184 
L 359 959 
L 691 959 
Q 703 588 923 403 
Q 1144 219 1575 219 
Q 1963 219 2166 364 
Q 2369 509 2369 788 
Q 2369 1006 2220 1140 
Q 2072 1275 1594 1428 
L 1178 1569 
Q 750 1706 558 1912 
Q 366 2119 366 2438 
Q 366 2894 700 3153 
Q 1034 3413 1625 3413 
Q 1888 3413 2178 3344 
Q 2469 3275 2778 3144 
L 2778 2419 
L 2447 2419 
Q 2434 2741 2221 2922 
Q 2009 3103 1644 3103 
Q 1281 3103 1095 2975 
Q 909 2847 909 2591 
Q 909 2381 1050 2254 
Q 1191 2128 1613 1997 
L 2069 1856 
Q 2541 1709 2748 1489 
Q 2956 1269 2956 922 
Q 2956 450 2595 179 
Q 2234 -91 1600 -91 
Q 1278 -91 972 -22 
Q 666 47 359 184 
z
" transform="scale(0.015625)"/>
      </defs>
      <use xlink:href="#DejaVuSerif-54"/>
      <use xlink:href="#DejaVuSerif-72" transform="translate(66.699219 0)"/>
      <use xlink:href="#DejaVuSerif-61" transform="translate(114.501953 0)"/>
      <use xlink:href="#DejaVuSerif-69" transform="translate(174.121094 0)"/>
      <use xlink:href="#DejaVuSerif-6e" transform="translate(206.103516 0)"/>
      <use xlink:href="#DejaVuSerif-69" transform="translate(270.507812 0)"/>
      <use xlink:href="#DejaVuSerif-6e" transform="translate(302.490234 0)"/>
      <use xlink:href="#DejaVuSerif-67" transform="translate(366.894531 0)"/>
      <use xlink:href="#DejaVuSerif-20" transform="translate(430.908203 0)"/>
      <use xlink:href="#DejaVuSerif-4c" transform="translate(462.695312 0)"/>
      <use xlink:href="#DejaVuSerif-6f" transform="translate(529.101562 0)"/>
      <use xlink:href="#DejaVuSerif-73" transform="translate(589.306641 0)"/>
      <use xlink:href="#DejaVuSerif-73" transform="translate(640.625 0)"/>
     </g>
    </g>
    <g id="line2d_24">
     <path d="M 408.641332 65.848125 
L 420.641332 65.848125 
L 432.641332 65.848125 
" style="fill: none; stroke-dasharray: 11.1,4.8; stroke-dashoffset: 0; stroke: #d62728; stroke-opacity: 0.9; stroke-width: 3; stroke-linecap: round"/>
    </g>
    <g id="text_15">
     <!-- Validation Loss -->
     <g style="fill: #262626" transform="translate(442.241332 70.048125) scale(0.12 -0.12)">
      <defs>
       <path id="DejaVuSerif-56" d="M 1119 4331 
L 2497 750 
L 3872 4331 
L 3347 4331 
L 3347 4666 
L 4716 4666 
L 4716 4331 
L 4263 4331 
L 2597 0 
L 2059 0 
L 403 4331 
L -63 4331 
L -63 4666 
L 1638 4666 
L 1638 4331 
L 1119 4331 
z
" transform="scale(0.015625)"/>
       <path id="DejaVuSerif-6c" d="M 1313 331 
L 1856 331 
L 1856 0 
L 184 0 
L 184 331 
L 738 331 
L 738 4531 
L 184 4531 
L 184 4863 
L 1313 4863 
L 1313 331 
z
" transform="scale(0.015625)"/>
       <path id="DejaVuSerif-64" d="M 3359 331 
L 3909 331 
L 3909 0 
L 2784 0 
L 2784 519 
Q 2616 206 2355 57 
Q 2094 -91 1709 -91 
Q 1097 -91 708 395 
Q 319 881 319 1663 
Q 319 2444 706 2928 
Q 1094 3413 1709 3413 
Q 2094 3413 2355 3264 
Q 2616 3116 2784 2803 
L 2784 4531 
L 2241 4531 
L 2241 4863 
L 3359 4863 
L 3359 331 
z
M 2784 1497 
L 2784 1825 
Q 2784 2422 2554 2737 
Q 2325 3053 1888 3053 
Q 1444 3053 1217 2703 
Q 991 2353 991 1663 
Q 991 975 1217 622 
Q 1444 269 1888 269 
Q 2325 269 2554 583 
Q 2784 897 2784 1497 
z
" transform="scale(0.015625)"/>
       <path id="DejaVuSerif-74" d="M 691 2988 
L 184 2988 
L 184 3322 
L 691 3322 
L 691 4353 
L 1269 4353 
L 1269 3322 
L 2350 3322 
L 2350 2988 
L 1269 2988 
L 1269 878 
Q 1269 456 1350 337 
Q 1431 219 1650 219 
Q 1875 219 1978 351 
Q 2081 484 2088 781 
L 2522 781 
Q 2497 328 2275 118 
Q 2053 -91 1600 -91 
Q 1103 -91 897 129 
Q 691 350 691 878 
L 691 2988 
z
" transform="scale(0.015625)"/>
      </defs>
      <use xlink:href="#DejaVuSerif-56"/>
      <use xlink:href="#DejaVuSerif-61" transform="translate(63.091797 0)"/>
      <use xlink:href="#DejaVuSerif-6c" transform="translate(122.710938 0)"/>
      <use xlink:href="#DejaVuSerif-69" transform="translate(154.693359 0)"/>
      <use xlink:href="#DejaVuSerif-64" transform="translate(186.675781 0)"/>
      <use xlink:href="#DejaVuSerif-61" transform="translate(250.689453 0)"/>
      <use xlink:href="#DejaVuSerif-74" transform="translate(310.308594 0)"/>
      <use xlink:href="#DejaVuSerif-69" transform="translate(350.494141 0)"/>
      <use xlink:href="#DejaVuSerif-6f" transform="translate(382.476562 0)"/>
      <use xlink:href="#DejaVuSerif-6e" transform="translate(442.681641 0)"/>
      <use xlink:href="#DejaVuSerif-20" transform="translate(507.085938 0)"/>
      <use xlink:href="#DejaVuSerif-4c" transform="translate(538.873047 0)"/>
      <use xlink:href="#DejaVuSerif-6f" transform="translate(605.279297 0)"/>
      <use xlink:href="#DejaVuSerif-73" transform="translate(665.484375 0)"/>
      <use xlink:href="#DejaVuSerif-73" transform="translate(716.802734 0)"/>
     </g>
    </g>
   </g>
  </g>
  <g id="axes_2">
   <g id="patch_8">
    <path d="M 599.310229 399.191395 
L 1079.274685 399.191395 
L 1079.274685 32.345625 
L 599.310229 32.345625 
L 599.310229 399.191395 
z
" style="fill: none"/>
   </g>
   <g id="matplotlib.axis_3">
    <g id="xtick_7">
     <g id="line2d_25">
      <path d="M 621.126795 399.191395 
L 621.126795 32.345625 
" clip-path="url(#pb8bb256110)" style="fill: none; stroke: #f0f0f0; stroke-width: 0.7; stroke-linecap: round"/>
     </g>
     <g id="line2d_26"/>
     <g id="text_16">
      <!-- 0 -->
      <g style="fill: #262626" transform="translate(618.346326 409.93827) scale(0.1 -0.1)">
       <use xlink:href="#LiberationSans-30"/>
      </g>
     </g>
    </g>
    <g id="xtick_8">
     <g id="line2d_27">
      <path d="M 712.029154 399.191395 
L 712.029154 32.345625 
" clip-path="url(#pb8bb256110)" style="fill: none; stroke: #f0f0f0; stroke-width: 0.7; stroke-linecap: round"/>
     </g>
     <g id="line2d_28"/>
     <g id="text_17">
      <!-- 5 -->
      <g style="fill: #262626" transform="translate(709.248685 409.93827) scale(0.1 -0.1)">
       <use xlink:href="#LiberationSans-35"/>
      </g>
     </g>
    </g>
    <g id="xtick_9">
     <g id="line2d_29">
      <path d="M 802.931513 399.191395 
L 802.931513 32.345625 
" clip-path="url(#pb8bb256110)" style="fill: none; stroke: #f0f0f0; stroke-width: 0.7; stroke-linecap: round"/>
     </g>
     <g id="line2d_30"/>
     <g id="text_18">
      <!-- 10 -->
      <g style="fill: #262626" transform="translate(797.370576 409.93827) scale(0.1 -0.1)">
       <use xlink:href="#LiberationSans-31"/>
       <use xlink:href="#LiberationSans-30" transform="translate(55.615234 0)"/>
      </g>
     </g>
    </g>
    <g id="xtick_10">
     <g id="line2d_31">
      <path d="M 893.833873 399.191395 
L 893.833873 32.345625 
" clip-path="url(#pb8bb256110)" style="fill: none; stroke: #f0f0f0; stroke-width: 0.7; stroke-linecap: round"/>
     </g>
     <g id="line2d_32"/>
     <g id="text_19">
      <!-- 15 -->
      <g style="fill: #262626" transform="translate(888.272935 409.93827) scale(0.1 -0.1)">
       <use xlink:href="#LiberationSans-31"/>
       <use xlink:href="#LiberationSans-35" transform="translate(55.615234 0)"/>
      </g>
     </g>
    </g>
    <g id="xtick_11">
     <g id="line2d_33">
      <path d="M 984.736232 399.191395 
L 984.736232 32.345625 
" clip-path="url(#pb8bb256110)" style="fill: none; stroke: #f0f0f0; stroke-width: 0.7; stroke-linecap: round"/>
     </g>
     <g id="line2d_34"/>
     <g id="text_20">
      <!-- 20 -->
      <g style="fill: #262626" transform="translate(979.175294 409.93827) scale(0.1 -0.1)">
       <use xlink:href="#LiberationSans-32"/>
       <use xlink:href="#LiberationSans-30" transform="translate(55.615234 0)"/>
      </g>
     </g>
    </g>
    <g id="xtick_12">
     <g id="line2d_35">
      <path d="M 1075.638591 399.191395 
L 1075.638591 32.345625 
" clip-path="url(#pb8bb256110)" style="fill: none; stroke: #f0f0f0; stroke-width: 0.7; stroke-linecap: round"/>
     </g>
     <g id="line2d_36"/>
     <g id="text_21">
      <!-- 25 -->
      <g style="fill: #262626" transform="translate(1070.077653 409.93827) scale(0.1 -0.1)">
       <use xlink:href="#LiberationSans-32"/>
       <use xlink:href="#LiberationSans-35" transform="translate(55.615234 0)"/>
      </g>
     </g>
    </g>
    <g id="text_22">
     <!-- Epoch -->
     <g style="fill: #262626" transform="translate(822.280582 430.70952) scale(0.12 -0.12)">
      <use xlink:href="#LiberationSans-45"/>
      <use xlink:href="#LiberationSans-70" transform="translate(66.699219 0)"/>
      <use xlink:href="#LiberationSans-6f" transform="translate(122.314453 0)"/>
      <use xlink:href="#LiberationSans-63" transform="translate(177.929688 0)"/>
      <use xlink:href="#LiberationSans-68" transform="translate(227.929688 0)"/>
     </g>
    </g>
   </g>
   <g id="matplotlib.axis_4">
    <g id="ytick_5">
     <g id="line2d_37">
      <path d="M 599.310229 365.694041 
L 1079.274685 365.694041 
" clip-path="url(#pb8bb256110)" style="fill: none; stroke: #f0f0f0; stroke-width: 0.7; stroke-linecap: round"/>
     </g>
     <g id="line2d_38"/>
     <g id="text_23">
      <!-- 50 -->
      <g style="fill: #262626" transform="translate(584.688354 369.317478) scale(0.1 -0.1)">
       <use xlink:href="#LiberationSans-35"/>
       <use xlink:href="#LiberationSans-30" transform="translate(55.615234 0)"/>
      </g>
     </g>
    </g>
    <g id="ytick_6">
     <g id="line2d_39">
      <path d="M 599.310229 299.907226 
L 1079.274685 299.907226 
" clip-path="url(#pb8bb256110)" style="fill: none; stroke: #f0f0f0; stroke-width: 0.7; stroke-linecap: round"/>
     </g>
     <g id="line2d_40"/>
     <g id="text_24">
      <!-- 100 -->
      <g style="fill: #262626" transform="translate(579.127416 303.530664) scale(0.1 -0.1)">
       <use xlink:href="#LiberationSans-31"/>
       <use xlink:href="#LiberationSans-30" transform="translate(55.615234 0)"/>
       <use xlink:href="#LiberationSans-30" transform="translate(111.230469 0)"/>
      </g>
     </g>
    </g>
    <g id="ytick_7">
     <g id="line2d_41">
      <path d="M 599.310229 234.120412 
L 1079.274685 234.120412 
" clip-path="url(#pb8bb256110)" style="fill: none; stroke: #f0f0f0; stroke-width: 0.7; stroke-linecap: round"/>
     </g>
     <g id="line2d_42"/>
     <g id="text_25">
      <!-- 150 -->
      <g style="fill: #262626" transform="translate(579.127416 237.74385) scale(0.1 -0.1)">
       <use xlink:href="#LiberationSans-31"/>
       <use xlink:href="#LiberationSans-35" transform="translate(55.615234 0)"/>
       <use xlink:href="#LiberationSans-30" transform="translate(111.230469 0)"/>
      </g>
     </g>
    </g>
    <g id="ytick_8">
     <g id="line2d_43">
      <path d="M 599.310229 168.333598 
L 1079.274685 168.333598 
" clip-path="url(#pb8bb256110)" style="fill: none; stroke: #f0f0f0; stroke-width: 0.7; stroke-linecap: round"/>
     </g>
     <g id="line2d_44"/>
     <g id="text_26">
      <!-- 200 -->
      <g style="fill: #262626" transform="translate(579.127416 171.957035) scale(0.1 -0.1)">
       <use xlink:href="#LiberationSans-32"/>
       <use xlink:href="#LiberationSans-30" transform="translate(55.615234 0)"/>
       <use xlink:href="#LiberationSans-30" transform="translate(111.230469 0)"/>
      </g>
     </g>
    </g>
    <g id="ytick_9">
     <g id="line2d_45">
      <path d="M 599.310229 102.546784 
L 1079.274685 102.546784 
" clip-path="url(#pb8bb256110)" style="fill: none; stroke: #f0f0f0; stroke-width: 0.7; stroke-linecap: round"/>
     </g>
     <g id="line2d_46"/>
     <g id="text_27">
      <!-- 250 -->
      <g style="fill: #262626" transform="translate(579.127416 106.170221) scale(0.1 -0.1)">
       <use xlink:href="#LiberationSans-32"/>
       <use xlink:href="#LiberationSans-35" transform="translate(55.615234 0)"/>
       <use xlink:href="#LiberationSans-30" transform="translate(111.230469 0)"/>
      </g>
     </g>
    </g>
    <g id="ytick_10">
     <g id="line2d_47">
      <path d="M 599.310229 36.759969 
L 1079.274685 36.759969 
" clip-path="url(#pb8bb256110)" style="fill: none; stroke: #f0f0f0; stroke-width: 0.7; stroke-linecap: round"/>
     </g>
     <g id="line2d_48"/>
     <g id="text_28">
      <!-- 300 -->
      <g style="fill: #262626" transform="translate(579.127416 40.383407) scale(0.1 -0.1)">
       <use xlink:href="#LiberationSans-33"/>
       <use xlink:href="#LiberationSans-30" transform="translate(55.615234 0)"/>
       <use xlink:href="#LiberationSans-30" transform="translate(111.230469 0)"/>
      </g>
     </g>
    </g>
    <g id="text_29">
     <!-- MAE -->
     <g style="fill: #262626" transform="translate(566.637416 228.770697) rotate(-90) scale(0.12 -0.12)">
      <defs>
       <path id="LiberationSans-4d" d="M 4269 0 
L 4269 2938 
Q 4269 3425 4297 3875 
Q 4144 3316 4022 3000 
L 2884 0 
L 2466 0 
L 1313 3000 
L 1138 3531 
L 1034 3875 
L 1044 3528 
L 1056 2938 
L 1056 0 
L 525 0 
L 525 4403 
L 1309 4403 
L 2481 1350 
Q 2544 1166 2601 955 
Q 2659 744 2678 650 
Q 2703 775 2783 1029 
Q 2863 1284 2891 1350 
L 4041 4403 
L 4806 4403 
L 4806 0 
L 4269 0 
z
" transform="scale(0.015625)"/>
       <path id="LiberationSans-41" d="M 3647 0 
L 3144 1288 
L 1138 1288 
L 631 0 
L 13 0 
L 1809 4403 
L 2488 4403 
L 4256 0 
L 3647 0 
z
M 2141 3953 
L 2113 3866 
Q 2034 3606 1881 3200 
L 1319 1753 
L 2966 1753 
L 2400 3206 
Q 2313 3422 2225 3694 
L 2141 3953 
z
" transform="scale(0.015625)"/>
      </defs>
      <use xlink:href="#LiberationSans-4d"/>
      <use xlink:href="#LiberationSans-41" transform="translate(83.300781 0)"/>
      <use xlink:href="#LiberationSans-45" transform="translate(150 0)"/>
     </g>
    </g>
   </g>
   <g id="line2d_49">
    <path d="M 621.126795 49.020433 
L 639.307267 78.392334 
L 657.487739 132.682557 
L 675.66821 196.892901 
L 693.848682 251.12175 
L 712.029154 292.523596 
L 730.209626 317.418649 
L 748.390098 327.090102 
L 766.57057 335.138487 
L 784.751041 341.642674 
L 802.931513 347.129312 
L 821.111985 349.640551 
L 839.292457 350.318571 
L 857.472929 354.427502 
L 875.653401 353.961897 
L 893.833873 355.03042 
L 912.014344 358.147911 
L 930.194816 356.858696 
L 948.375288 358.420129 
L 966.55576 360.090141 
L 984.736232 360.951831 
L 1002.916704 359.908117 
L 1021.097175 359.369172 
L 1039.277647 361.501125 
L 1057.458119 362.144905 
" clip-path="url(#pb8bb256110)" style="fill: none; stroke: #1f77b4; stroke-opacity: 0.9; stroke-width: 3; stroke-linecap: round"/>
   </g>
   <g id="line2d_50">
    <path d="M 621.126795 52.310657 
L 639.307267 86.966744 
L 657.487739 159.12495 
L 675.66821 237.712768 
L 693.848682 285.801789 
L 712.029154 317.685878 
L 730.209626 332.874686 
L 748.390098 272.542498 
L 766.57057 318.726305 
L 784.751041 319.059244 
L 802.931513 327.743955 
L 821.111985 333.447159 
L 839.292457 337.54979 
L 857.472929 333.542803 
L 875.653401 344.388081 
L 893.833873 338.196706 
L 912.014344 366.990313 
L 930.194816 362.820285 
L 948.375288 367.134814 
L 966.55576 380.207805 
L 984.736232 365.093863 
L 1002.916704 382.516587 
L 1021.097175 381.578581 
L 1039.277647 364.9726 
L 1057.458119 376.757817 
" clip-path="url(#pb8bb256110)" style="fill: none; stroke-dasharray: 11.1,4.8; stroke-dashoffset: 0; stroke: #d62728; stroke-opacity: 0.9; stroke-width: 3; stroke-linecap: round"/>
   </g>
   <g id="patch_9">
    <path d="M 599.310229 399.191395 
L 599.310229 32.345625 
" style="fill: none; stroke: #000000; stroke-width: 0.8; stroke-linejoin: miter; stroke-linecap: square"/>
   </g>
   <g id="patch_10">
    <path d="M 1079.274685 399.191395 
L 1079.274685 32.345625 
" style="fill: none; stroke: #000000; stroke-width: 0.8; stroke-linejoin: miter; stroke-linecap: square"/>
   </g>
   <g id="patch_11">
    <path d="M 599.310229 399.191395 
L 1079.274685 399.191395 
" style="fill: none; stroke: #000000; stroke-width: 0.8; stroke-linejoin: miter; stroke-linecap: square"/>
   </g>
   <g id="patch_12">
    <path d="M 599.310229 32.345625 
L 1079.274685 32.345625 
" style="fill: none; stroke: #000000; stroke-width: 0.8; stroke-linejoin: miter; stroke-linecap: square"/>
   </g>
   <g id="text_30">
    <!-- DNN Training MAE -->
    <g style="fill: #262626" transform="translate(777.458395 17.345625) scale(0.14 -0.14)">
     <defs>
      <path id="LiberationSans-Bold-4d" d="M 4084 0 
L 4084 2669 
Q 4084 2759 4086 2850 
Q 4088 2941 4116 3628 
Q 3894 2788 3788 2456 
L 2994 0 
L 2338 0 
L 1544 2456 
L 1209 3628 
Q 1247 2903 1247 2669 
L 1247 0 
L 428 0 
L 428 4403 
L 1663 4403 
L 2450 1941 
L 2519 1703 
L 2669 1113 
L 2866 1819 
L 3675 4403 
L 4903 4403 
L 4903 0 
L 4084 0 
z
" transform="scale(0.015625)"/>
      <path id="LiberationSans-Bold-41" d="M 3541 0 
L 3150 1125 
L 1472 1125 
L 1081 0 
L 159 0 
L 1766 4403 
L 2853 4403 
L 4453 0 
L 3541 0 
z
M 2309 3725 
L 2291 3656 
Q 2259 3544 2215 3400 
Q 2172 3256 1678 1819 
L 2944 1819 
L 2509 3084 
L 2375 3509 
L 2309 3725 
z
" transform="scale(0.015625)"/>
      <path id="LiberationSans-Bold-45" d="M 428 0 
L 428 4403 
L 3891 4403 
L 3891 3691 
L 1350 3691 
L 1350 2584 
L 3700 2584 
L 3700 1872 
L 1350 1872 
L 1350 713 
L 4019 713 
L 4019 0 
L 428 0 
z
" transform="scale(0.015625)"/>
     </defs>
     <use xlink:href="#LiberationSans-Bold-44"/>
     <use xlink:href="#LiberationSans-Bold-4e" transform="translate(72.216797 0)"/>
     <use xlink:href="#LiberationSans-Bold-4e" transform="translate(144.433594 0)"/>
     <use xlink:href="#LiberationSans-Bold-20" transform="translate(216.650391 0)"/>
     <use xlink:href="#LiberationSans-Bold-54" transform="translate(244.433594 0)"/>
     <use xlink:href="#LiberationSans-Bold-72" transform="translate(300.017578 0)"/>
     <use xlink:href="#LiberationSans-Bold-61" transform="translate(338.933594 0)"/>
     <use xlink:href="#LiberationSans-Bold-69" transform="translate(394.548828 0)"/>
     <use xlink:href="#LiberationSans-Bold-6e" transform="translate(422.332031 0)"/>
     <use xlink:href="#LiberationSans-Bold-69" transform="translate(483.416016 0)"/>
     <use xlink:href="#LiberationSans-Bold-6e" transform="translate(511.199219 0)"/>
     <use xlink:href="#LiberationSans-Bold-67" transform="translate(572.283203 0)"/>
     <use xlink:href="#LiberationSans-Bold-20" transform="translate(633.367188 0)"/>
     <use xlink:href="#LiberationSans-Bold-4d" transform="translate(661.150391 0)"/>
     <use xlink:href="#LiberationSans-Bold-41" transform="translate(744.451172 0)"/>
     <use xlink:href="#LiberationSans-Bold-45" transform="translate(816.667969 0)"/>
    </g>
   </g>
   <g id="legend_2">
    <g id="patch_13">
     <path d="M 938.094685 77.34375 
L 1070.874685 77.34375 
Q 1073.274685 77.34375 1073.274685 74.94375 
L 1073.274685 40.745625 
Q 1073.274685 38.345625 1070.874685 38.345625 
L 938.094685 38.345625 
Q 935.694685 38.345625 935.694685 40.745625 
L 935.694685 74.94375 
Q 935.694685 77.34375 938.094685 77.34375 
z
" style="fill: #ffffff; opacity: 0.9; stroke: #808080; stroke-linejoin: miter"/>
    </g>
    <g id="line2d_51">
     <path d="M 940.494685 48.06375 
L 952.494685 48.06375 
L 964.494685 48.06375 
" style="fill: none; stroke: #1f77b4; stroke-opacity: 0.9; stroke-width: 3; stroke-linecap: round"/>
    </g>
    <g id="text_31">
     <!-- Training MAE -->
     <g style="fill: #262626" transform="translate(974.094685 52.26375) scale(0.12 -0.12)">
      <defs>
       <path id="DejaVuSerif-4d" d="M 353 0 
L 353 331 
L 947 331 
L 947 4331 
L 319 4331 
L 319 4666 
L 1678 4666 
L 3316 1344 
L 4953 4666 
L 6228 4666 
L 6228 4331 
L 5606 4331 
L 5606 331 
L 6203 331 
L 6203 0 
L 4378 0 
L 4378 331 
L 4972 331 
L 4972 3938 
L 3372 684 
L 2931 684 
L 1331 3938 
L 1331 331 
L 1925 331 
L 1925 0 
L 353 0 
z
" transform="scale(0.015625)"/>
       <path id="DejaVuSerif-41" d="M 1281 1691 
L 2994 1691 
L 2138 3909 
L 1281 1691 
z
M -38 0 
L -38 331 
L 372 331 
L 2034 4666 
L 2559 4666 
L 4225 331 
L 4684 331 
L 4684 0 
L 2988 0 
L 2988 331 
L 3506 331 
L 3116 1356 
L 1153 1356 
L 763 331 
L 1275 331 
L 1275 0 
L -38 0 
z
" transform="scale(0.015625)"/>
       <path id="DejaVuSerif-45" d="M 353 0 
L 353 331 
L 947 331 
L 947 4331 
L 353 4331 
L 353 4666 
L 4109 4666 
L 4109 3628 
L 3725 3628 
L 3725 4281 
L 1581 4281 
L 1581 2719 
L 3109 2719 
L 3109 3303 
L 3494 3303 
L 3494 1753 
L 3109 1753 
L 3109 2338 
L 1581 2338 
L 1581 384 
L 3775 384 
L 3775 1038 
L 4159 1038 
L 4159 0 
L 353 0 
z
" transform="scale(0.015625)"/>
      </defs>
      <use xlink:href="#DejaVuSerif-54"/>
      <use xlink:href="#DejaVuSerif-72" transform="translate(66.699219 0)"/>
      <use xlink:href="#DejaVuSerif-61" transform="translate(114.501953 0)"/>
      <use xlink:href="#DejaVuSerif-69" transform="translate(174.121094 0)"/>
      <use xlink:href="#DejaVuSerif-6e" transform="translate(206.103516 0)"/>
      <use xlink:href="#DejaVuSerif-69" transform="translate(270.507812 0)"/>
      <use xlink:href="#DejaVuSerif-6e" transform="translate(302.490234 0)"/>
      <use xlink:href="#DejaVuSerif-67" transform="translate(366.894531 0)"/>
      <use xlink:href="#DejaVuSerif-20" transform="translate(430.908203 0)"/>
      <use xlink:href="#DejaVuSerif-4d" transform="translate(462.695312 0)"/>
      <use xlink:href="#DejaVuSerif-41" transform="translate(565.087891 0)"/>
      <use xlink:href="#DejaVuSerif-45" transform="translate(637.304688 0)"/>
     </g>
    </g>
    <g id="line2d_52">
     <path d="M 940.494685 65.848125 
L 952.494685 65.848125 
L 964.494685 65.848125 
" style="fill: none; stroke-dasharray: 11.1,4.8; stroke-dashoffset: 0; stroke: #d62728; stroke-opacity: 0.9; stroke-width: 3; stroke-linecap: round"/>
    </g>
    <g id="text_32">
     <!-- Validation MAE -->
     <g style="fill: #262626" transform="translate(974.094685 70.048125) scale(0.12 -0.12)">
      <use xlink:href="#DejaVuSerif-56"/>
      <use xlink:href="#DejaVuSerif-61" transform="translate(63.091797 0)"/>
      <use xlink:href="#DejaVuSerif-6c" transform="translate(122.710938 0)"/>
      <use xlink:href="#DejaVuSerif-69" transform="translate(154.693359 0)"/>
      <use xlink:href="#DejaVuSerif-64" transform="translate(186.675781 0)"/>
      <use xlink:href="#DejaVuSerif-61" transform="translate(250.689453 0)"/>
      <use xlink:href="#DejaVuSerif-74" transform="translate(310.308594 0)"/>
      <use xlink:href="#DejaVuSerif-69" transform="translate(350.494141 0)"/>
      <use xlink:href="#DejaVuSerif-6f" transform="translate(382.476562 0)"/>
      <use xlink:href="#DejaVuSerif-6e" transform="translate(442.681641 0)"/>
      <use xlink:href="#DejaVuSerif-20" transform="translate(507.085938 0)"/>
      <use xlink:href="#DejaVuSerif-4d" transform="translate(538.873047 0)"/>
      <use xlink:href="#DejaVuSerif-41" transform="translate(641.265625 0)"/>
      <use xlink:href="#DejaVuSerif-45" transform="translate(713.482422 0)"/>
     </g>
    </g>
   </g>
  </g>
 </g>
 <defs>
  <clipPath id="pf653044834">
   <rect x="65.251875" y="32.345625" width="479.964457" height="366.84577"/>
  </clipPath>
  <clipPath id="pb8bb256110">
   <rect x="599.310229" y="32.345625" width="479.964457" height="366.84577"/>
  </clipPath>
 </defs>
</svg>
