<?xml version="1.0" encoding="utf-8" standalone="no"?>
<!DOCTYPE svg PUBLIC "-//W3C//DTD SVG 1.1//EN"
  "http://www.w3.org/Graphics/SVG/1.1/DTD/svg11.dtd">
<svg xmlns:xlink="http://www.w3.org/1999/xlink" width="1304.387754pt" height="440.39952pt" viewBox="0 0 1304.387754 440.39952" xmlns="http://www.w3.org/2000/svg" version="1.1">
 <metadata>
  <rdf:RDF xmlns:dc="http://purl.org/dc/elements/1.1/" xmlns:cc="http://creativecommons.org/ns#" xmlns:rdf="http://www.w3.org/1999/02/22-rdf-syntax-ns#">
   <cc:Work>
    <dc:type rdf:resource="http://purl.org/dc/dcmitype/StillImage"/>
    <dc:date>2025-07-02T15:42:52.620190</dc:date>
    <dc:format>image/svg+xml</dc:format>
    <dc:creator>
     <cc:Agent>
      <dc:title>Matplotlib v3.10.3, https://matplotlib.org/</dc:title>
     </cc:Agent>
    </dc:creator>
   </cc:Work>
  </rdf:RDF>
 </metadata>
 <defs>
  <style type="text/css">*{stroke-linejoin: round; stroke-linecap: butt}</style>
 </defs>
 <g id="figure_1">
  <g id="patch_1">
   <path d="M 0 440.39952 
L 1304.387754 440.39952 
L 1304.387754 0 
L 0 0 
L 0 440.39952 
z
" style="fill: none"/>
  </g>
  <g id="axes_1">
   <g id="patch_2">
    <path d="M 57.21875 326.648429 
L 428.75611 326.648429 
L 428.75611 32.837812 
L 57.21875 32.837812 
L 57.21875 326.648429 
z
" style="fill: none"/>
   </g>
   <g id="matplotlib.axis_1">
    <g id="xtick_1">
     <g id="line2d_1">
      <path d="M 102.253582 326.648429 
L 102.253582 32.837812 
" clip-path="url(#p5442582627)" style="fill: none; stroke: #cccccc; stroke-width: 0.8; stroke-linecap: round"/>
     </g>
     <g id="line2d_2"/>
     <g id="text_1">
      <!-- Random Forest -->
      <g style="fill: #262626" transform="translate(71.715186 402.355522) rotate(-45) scale(0.12 -0.12)">
       <defs>
        <path id="DejaVuSerif-52" d="M 3066 2316 
Q 3284 2256 3442 2114 
Q 3600 1972 3725 1716 
L 4403 331 
L 4972 331 
L 4972 0 
L 3872 0 
L 3144 1484 
Q 2934 1916 2759 2042 
Q 2584 2169 2278 2169 
L 1581 2169 
L 1581 331 
L 2241 331 
L 2241 0 
L 353 0 
L 353 331 
L 947 331 
L 947 4331 
L 353 4331 
L 353 4666 
L 2719 4666 
Q 3400 4666 3770 4341 
Q 4141 4016 4141 3419 
Q 4141 2938 3870 2661 
Q 3600 2384 3066 2316 
z
M 1581 2503 
L 2503 2503 
Q 2975 2503 3200 2726 
Q 3425 2950 3425 3419 
Q 3425 3888 3200 4109 
Q 2975 4331 2503 4331 
L 1581 4331 
L 1581 2503 
z
" transform="scale(0.015625)"/>
        <path id="DejaVuSerif-61" d="M 2547 1044 
L 2547 1747 
L 1806 1747 
Q 1378 1747 1168 1562 
Q 959 1378 959 997 
Q 959 650 1171 447 
Q 1384 244 1747 244 
Q 2106 244 2326 466 
Q 2547 688 2547 1044 
z
M 3122 2075 
L 3122 331 
L 3634 331 
L 3634 0 
L 2547 0 
L 2547 359 
Q 2356 128 2106 18 
Q 1856 -91 1522 -91 
Q 969 -91 644 203 
Q 319 497 319 997 
Q 319 1513 691 1797 
Q 1063 2081 1741 2081 
L 2547 2081 
L 2547 2309 
Q 2547 2688 2317 2895 
Q 2088 3103 1672 3103 
Q 1328 3103 1125 2947 
Q 922 2791 872 2484 
L 575 2484 
L 575 3156 
Q 875 3284 1158 3348 
Q 1441 3413 1709 3413 
Q 2400 3413 2761 3070 
Q 3122 2728 3122 2075 
z
" transform="scale(0.015625)"/>
        <path id="DejaVuSerif-6e" d="M 263 0 
L 263 331 
L 781 331 
L 781 2988 
L 231 2988 
L 231 3322 
L 1356 3322 
L 1356 2731 
Q 1516 3069 1770 3241 
Q 2025 3413 2363 3413 
Q 2913 3413 3172 3097 
Q 3431 2781 3431 2113 
L 3431 331 
L 3944 331 
L 3944 0 
L 2356 0 
L 2356 331 
L 2853 331 
L 2853 1931 
Q 2853 2541 2703 2767 
Q 2553 2994 2175 2994 
Q 1775 2994 1565 2701 
Q 1356 2409 1356 1850 
L 1356 331 
L 1856 331 
L 1856 0 
L 263 0 
z
" transform="scale(0.015625)"/>
        <path id="DejaVuSerif-64" d="M 3359 331 
L 3909 331 
L 3909 0 
L 2784 0 
L 2784 519 
Q 2616 206 2355 57 
Q 2094 -91 1709 -91 
Q 1097 -91 708 395 
Q 319 881 319 1663 
Q 319 2444 706 2928 
Q 1094 3413 1709 3413 
Q 2094 3413 2355 3264 
Q 2616 3116 2784 2803 
L 2784 4531 
L 2241 4531 
L 2241 4863 
L 3359 4863 
L 3359 331 
z
M 2784 1497 
L 2784 1825 
Q 2784 2422 2554 2737 
Q 2325 3053 1888 3053 
Q 1444 3053 1217 2703 
Q 991 2353 991 1663 
Q 991 975 1217 622 
Q 1444 269 1888 269 
Q 2325 269 2554 583 
Q 2784 897 2784 1497 
z
" transform="scale(0.015625)"/>
        <path id="DejaVuSerif-6f" d="M 1925 219 
Q 2388 219 2623 584 
Q 2859 950 2859 1663 
Q 2859 2375 2623 2739 
Q 2388 3103 1925 3103 
Q 1463 3103 1227 2739 
Q 991 2375 991 1663 
Q 991 950 1228 584 
Q 1466 219 1925 219 
z
M 1925 -91 
Q 1200 -91 759 389 
Q 319 869 319 1663 
Q 319 2456 758 2934 
Q 1197 3413 1925 3413 
Q 2653 3413 3092 2934 
Q 3531 2456 3531 1663 
Q 3531 869 3092 389 
Q 2653 -91 1925 -91 
z
" transform="scale(0.015625)"/>
        <path id="DejaVuSerif-6d" d="M 3316 2675 
Q 3481 3041 3739 3227 
Q 3997 3413 4341 3413 
Q 4863 3413 5119 3089 
Q 5375 2766 5375 2113 
L 5375 331 
L 5894 331 
L 5894 0 
L 4300 0 
L 4300 331 
L 4800 331 
L 4800 2047 
Q 4800 2556 4650 2772 
Q 4500 2988 4153 2988 
Q 3769 2988 3567 2697 
Q 3366 2406 3366 1850 
L 3366 331 
L 3866 331 
L 3866 0 
L 2291 0 
L 2291 331 
L 2791 331 
L 2791 2069 
Q 2791 2566 2641 2777 
Q 2491 2988 2144 2988 
Q 1759 2988 1557 2697 
Q 1356 2406 1356 1850 
L 1356 331 
L 1856 331 
L 1856 0 
L 263 0 
L 263 331 
L 781 331 
L 781 2994 
L 231 2994 
L 231 3322 
L 1356 3322 
L 1356 2731 
Q 1516 3063 1762 3238 
Q 2009 3413 2322 3413 
Q 2709 3413 2968 3220 
Q 3228 3028 3316 2675 
z
" transform="scale(0.015625)"/>
        <path id="DejaVuSerif-20" transform="scale(0.015625)"/>
        <path id="DejaVuSerif-46" d="M 353 0 
L 353 331 
L 947 331 
L 947 4331 
L 353 4331 
L 353 4666 
L 4172 4666 
L 4172 3628 
L 3788 3628 
L 3788 4281 
L 1581 4281 
L 1581 2719 
L 3175 2719 
L 3175 3303 
L 3559 3303 
L 3559 1753 
L 3175 1753 
L 3175 2338 
L 1581 2338 
L 1581 331 
L 2328 331 
L 2328 0 
L 353 0 
z
" transform="scale(0.015625)"/>
        <path id="DejaVuSerif-72" d="M 3059 3328 
L 3059 2497 
L 2728 2497 
Q 2713 2744 2591 2866 
Q 2469 2988 2234 2988 
Q 1809 2988 1582 2694 
Q 1356 2400 1356 1850 
L 1356 331 
L 2022 331 
L 2022 0 
L 263 0 
L 263 331 
L 781 331 
L 781 2994 
L 231 2994 
L 231 3322 
L 1356 3322 
L 1356 2731 
Q 1525 3078 1790 3245 
Q 2056 3413 2438 3413 
Q 2578 3413 2733 3391 
Q 2888 3369 3059 3328 
z
" transform="scale(0.015625)"/>
        <path id="DejaVuSerif-65" d="M 3469 1600 
L 991 1600 
L 991 1575 
Q 991 903 1244 561 
Q 1497 219 1991 219 
Q 2369 219 2611 417 
Q 2853 616 2950 1006 
L 3413 1006 
Q 3275 459 2904 184 
Q 2534 -91 1931 -91 
Q 1203 -91 761 389 
Q 319 869 319 1663 
Q 319 2450 753 2931 
Q 1188 3413 1894 3413 
Q 2647 3413 3050 2948 
Q 3453 2484 3469 1600 
z
M 2791 1931 
Q 2772 2513 2545 2808 
Q 2319 3103 1894 3103 
Q 1497 3103 1269 2806 
Q 1041 2509 991 1931 
L 2791 1931 
z
" transform="scale(0.015625)"/>
        <path id="DejaVuSerif-73" d="M 359 184 
L 359 959 
L 691 959 
Q 703 588 923 403 
Q 1144 219 1575 219 
Q 1963 219 2166 364 
Q 2369 509 2369 788 
Q 2369 1006 2220 1140 
Q 2072 1275 1594 1428 
L 1178 1569 
Q 750 1706 558 1912 
Q 366 2119 366 2438 
Q 366 2894 700 3153 
Q 1034 3413 1625 3413 
Q 1888 3413 2178 3344 
Q 2469 3275 2778 3144 
L 2778 2419 
L 2447 2419 
Q 2434 2741 2221 2922 
Q 2009 3103 1644 3103 
Q 1281 3103 1095 2975 
Q 909 2847 909 2591 
Q 909 2381 1050 2254 
Q 1191 2128 1613 1997 
L 2069 1856 
Q 2541 1709 2748 1489 
Q 2956 1269 2956 922 
Q 2956 450 2595 179 
Q 2234 -91 1600 -91 
Q 1278 -91 972 -22 
Q 666 47 359 184 
z
" transform="scale(0.015625)"/>
        <path id="DejaVuSerif-74" d="M 691 2988 
L 184 2988 
L 184 3322 
L 691 3322 
L 691 4353 
L 1269 4353 
L 1269 3322 
L 2350 3322 
L 2350 2988 
L 1269 2988 
L 1269 878 
Q 1269 456 1350 337 
Q 1431 219 1650 219 
Q 1875 219 1978 351 
Q 2081 484 2088 781 
L 2522 781 
Q 2497 328 2275 118 
Q 2053 -91 1600 -91 
Q 1103 -91 897 129 
Q 691 350 691 878 
L 691 2988 
z
" transform="scale(0.015625)"/>
       </defs>
       <use xlink:href="#DejaVuSerif-52"/>
       <use xlink:href="#DejaVuSerif-61" transform="translate(77.542969 0)"/>
       <use xlink:href="#DejaVuSerif-6e" transform="translate(137.162109 0)"/>
       <use xlink:href="#DejaVuSerif-64" transform="translate(201.566406 0)"/>
       <use xlink:href="#DejaVuSerif-6f" transform="translate(265.580078 0)"/>
       <use xlink:href="#DejaVuSerif-6d" transform="translate(325.785156 0)"/>
       <use xlink:href="#DejaVuSerif-20" transform="translate(420.609375 0)"/>
       <use xlink:href="#DejaVuSerif-46" transform="translate(452.396484 0)"/>
       <use xlink:href="#DejaVuSerif-6f" transform="translate(516.28125 0)"/>
       <use xlink:href="#DejaVuSerif-72" transform="translate(576.486328 0)"/>
       <use xlink:href="#DejaVuSerif-65" transform="translate(624.289062 0)"/>
       <use xlink:href="#DejaVuSerif-73" transform="translate(683.46875 0)"/>
       <use xlink:href="#DejaVuSerif-74" transform="translate(734.787109 0)"/>
      </g>
     </g>
    </g>
    <g id="xtick_2">
     <g id="line2d_3">
      <path d="M 172.620506 326.648429 
L 172.620506 32.837812 
" clip-path="url(#p5442582627)" style="fill: none; stroke: #cccccc; stroke-width: 0.8; stroke-linecap: round"/>
     </g>
     <g id="line2d_4"/>
     <g id="text_2">
      <!-- XGBoost -->
      <g style="fill: #262626" transform="translate(156.444112 373.631519) rotate(-45) scale(0.12 -0.12)">
       <defs>
        <path id="DejaVuSerif-58" d="M 2119 1997 
L 978 331 
L 1581 331 
L 1581 0 
L 38 0 
L 38 331 
L 575 331 
L 1919 2291 
L 556 4331 
L 56 4331 
L 56 4666 
L 1906 4666 
L 1906 4331 
L 1356 4331 
L 2356 2828 
L 3384 4331 
L 2784 4331 
L 2784 4666 
L 4313 4666 
L 4313 4331 
L 3788 4331 
L 2553 2534 
L 4025 331 
L 4525 331 
L 4525 0 
L 2675 0 
L 2675 331 
L 3231 331 
L 2119 1997 
z
" transform="scale(0.015625)"/>
        <path id="DejaVuSerif-47" d="M 4097 3272 
Q 3988 3856 3641 4136 
Q 3294 4416 2675 4416 
Q 1869 4416 1472 3897 
Q 1075 3378 1075 2328 
Q 1075 1300 1484 772 
Q 1894 244 2688 244 
Q 3041 244 3362 331 
Q 3684 419 3975 594 
L 3975 1797 
L 3097 1797 
L 3097 2131 
L 4609 2131 
L 4609 391 
Q 4194 150 3714 29 
Q 3234 -91 2688 -91 
Q 1631 -91 995 570 
Q 359 1231 359 2328 
Q 359 3434 996 4092 
Q 1634 4750 2713 4750 
Q 3113 4750 3539 4658 
Q 3966 4566 4447 4378 
L 4447 3272 
L 4097 3272 
z
" transform="scale(0.015625)"/>
        <path id="DejaVuSerif-42" d="M 1581 331 
L 2516 331 
Q 3078 331 3337 575 
Q 3597 819 3597 1350 
Q 3597 1878 3339 2120 
Q 3081 2363 2516 2363 
L 1581 2363 
L 1581 331 
z
M 1581 2694 
L 2375 2694 
Q 2888 2694 3123 2891 
Q 3359 3088 3359 3513 
Q 3359 3941 3123 4136 
Q 2888 4331 2375 4331 
L 1581 4331 
L 1581 2694 
z
M 353 0 
L 353 331 
L 947 331 
L 947 4331 
L 353 4331 
L 353 4666 
L 2656 4666 
Q 3363 4666 3720 4377 
Q 4078 4088 4078 3513 
Q 4078 3097 3829 2850 
Q 3581 2603 3103 2547 
Q 3697 2472 4005 2167 
Q 4313 1863 4313 1350 
Q 4313 656 3875 328 
Q 3438 0 2509 0 
L 353 0 
z
" transform="scale(0.015625)"/>
       </defs>
       <use xlink:href="#DejaVuSerif-58"/>
       <use xlink:href="#DejaVuSerif-47" transform="translate(71.191406 0)"/>
       <use xlink:href="#DejaVuSerif-42" transform="translate(151.074219 0)"/>
       <use xlink:href="#DejaVuSerif-6f" transform="translate(224.560547 0)"/>
       <use xlink:href="#DejaVuSerif-6f" transform="translate(284.765625 0)"/>
       <use xlink:href="#DejaVuSerif-73" transform="translate(344.970703 0)"/>
       <use xlink:href="#DejaVuSerif-74" transform="translate(396.289062 0)"/>
      </g>
     </g>
    </g>
    <g id="xtick_3">
     <g id="line2d_5">
      <path d="M 242.98743 326.648429 
L 242.98743 32.837812 
" clip-path="url(#p5442582627)" style="fill: none; stroke: #cccccc; stroke-width: 0.8; stroke-linecap: round"/>
     </g>
     <g id="line2d_6"/>
     <g id="text_3">
      <!-- LightGBM -->
      <g style="fill: #262626" transform="translate(223.089445 380.954052) rotate(-45) scale(0.12 -0.12)">
       <defs>
        <path id="DejaVuSerif-4c" d="M 353 0 
L 353 331 
L 947 331 
L 947 4331 
L 353 4331 
L 353 4666 
L 2175 4666 
L 2175 4331 
L 1581 4331 
L 1581 384 
L 3713 384 
L 3713 1166 
L 4097 1166 
L 4097 0 
L 353 0 
z
" transform="scale(0.015625)"/>
        <path id="DejaVuSerif-69" d="M 622 4353 
Q 622 4497 726 4603 
Q 831 4709 978 4709 
Q 1122 4709 1226 4603 
Q 1331 4497 1331 4353 
Q 1331 4206 1228 4103 
Q 1125 4000 978 4000 
Q 831 4000 726 4103 
Q 622 4206 622 4353 
z
M 1356 331 
L 1900 331 
L 1900 0 
L 231 0 
L 231 331 
L 781 331 
L 781 2988 
L 231 2988 
L 231 3322 
L 1356 3322 
L 1356 331 
z
" transform="scale(0.015625)"/>
        <path id="DejaVuSerif-67" d="M 3359 2988 
L 3359 72 
Q 3359 -644 2965 -1033 
Q 2572 -1422 1844 -1422 
Q 1516 -1422 1216 -1362 
Q 916 -1303 641 -1184 
L 641 -488 
L 941 -488 
Q 997 -813 1206 -963 
Q 1416 -1113 1806 -1113 
Q 2313 -1113 2548 -827 
Q 2784 -541 2784 72 
L 2784 519 
Q 2616 206 2355 57 
Q 2094 -91 1709 -91 
Q 1097 -91 708 395 
Q 319 881 319 1663 
Q 319 2444 706 2928 
Q 1094 3413 1709 3413 
Q 2094 3413 2355 3264 
Q 2616 3116 2784 2803 
L 2784 3322 
L 3909 3322 
L 3909 2988 
L 3359 2988 
z
M 2784 1825 
Q 2784 2422 2554 2737 
Q 2325 3053 1888 3053 
Q 1444 3053 1217 2703 
Q 991 2353 991 1663 
Q 991 975 1217 622 
Q 1444 269 1888 269 
Q 2325 269 2554 583 
Q 2784 897 2784 1497 
L 2784 1825 
z
" transform="scale(0.015625)"/>
        <path id="DejaVuSerif-68" d="M 263 0 
L 263 331 
L 781 331 
L 781 4531 
L 231 4531 
L 231 4863 
L 1356 4863 
L 1356 2731 
Q 1516 3069 1770 3241 
Q 2025 3413 2363 3413 
Q 2913 3413 3172 3097 
Q 3431 2781 3431 2113 
L 3431 331 
L 3944 331 
L 3944 0 
L 2356 0 
L 2356 331 
L 2853 331 
L 2853 1931 
Q 2853 2541 2704 2764 
Q 2556 2988 2175 2988 
Q 1775 2988 1565 2697 
Q 1356 2406 1356 1850 
L 1356 331 
L 1856 331 
L 1856 0 
L 263 0 
z
" transform="scale(0.015625)"/>
        <path id="DejaVuSerif-4d" d="M 353 0 
L 353 331 
L 947 331 
L 947 4331 
L 319 4331 
L 319 4666 
L 1678 4666 
L 3316 1344 
L 4953 4666 
L 6228 4666 
L 6228 4331 
L 5606 4331 
L 5606 331 
L 6203 331 
L 6203 0 
L 4378 0 
L 4378 331 
L 4972 331 
L 4972 3938 
L 3372 684 
L 2931 684 
L 1331 3938 
L 1331 331 
L 1925 331 
L 1925 0 
L 353 0 
z
" transform="scale(0.015625)"/>
       </defs>
       <use xlink:href="#DejaVuSerif-4c"/>
       <use xlink:href="#DejaVuSerif-69" transform="translate(66.40625 0)"/>
       <use xlink:href="#DejaVuSerif-67" transform="translate(98.388672 0)"/>
       <use xlink:href="#DejaVuSerif-68" transform="translate(162.402344 0)"/>
       <use xlink:href="#DejaVuSerif-74" transform="translate(226.806641 0)"/>
       <use xlink:href="#DejaVuSerif-47" transform="translate(266.992188 0)"/>
       <use xlink:href="#DejaVuSerif-42" transform="translate(346.875 0)"/>
       <use xlink:href="#DejaVuSerif-4d" transform="translate(420.361328 0)"/>
      </g>
     </g>
    </g>
    <g id="xtick_4">
     <g id="line2d_7">
      <path d="M 313.354355 326.648429 
L 313.354355 32.837812 
" clip-path="url(#p5442582627)" style="fill: none; stroke: #cccccc; stroke-width: 0.8; stroke-linecap: round"/>
     </g>
     <g id="line2d_8"/>
     <g id="text_4">
      <!-- Gradient Boosting -->
      <g style="fill: #262626" transform="translate(276.404932 415.056928) rotate(-45) scale(0.12 -0.12)">
       <use xlink:href="#DejaVuSerif-47"/>
       <use xlink:href="#DejaVuSerif-72" transform="translate(79.882812 0)"/>
       <use xlink:href="#DejaVuSerif-61" transform="translate(127.685547 0)"/>
       <use xlink:href="#DejaVuSerif-64" transform="translate(187.304688 0)"/>
       <use xlink:href="#DejaVuSerif-69" transform="translate(251.318359 0)"/>
       <use xlink:href="#DejaVuSerif-65" transform="translate(283.300781 0)"/>
       <use xlink:href="#DejaVuSerif-6e" transform="translate(342.480469 0)"/>
       <use xlink:href="#DejaVuSerif-74" transform="translate(406.884766 0)"/>
       <use xlink:href="#DejaVuSerif-20" transform="translate(447.070312 0)"/>
       <use xlink:href="#DejaVuSerif-42" transform="translate(478.857422 0)"/>
       <use xlink:href="#DejaVuSerif-6f" transform="translate(552.34375 0)"/>
       <use xlink:href="#DejaVuSerif-6f" transform="translate(612.548828 0)"/>
       <use xlink:href="#DejaVuSerif-73" transform="translate(672.753906 0)"/>
       <use xlink:href="#DejaVuSerif-74" transform="translate(724.072266 0)"/>
       <use xlink:href="#DejaVuSerif-69" transform="translate(764.257812 0)"/>
       <use xlink:href="#DejaVuSerif-6e" transform="translate(796.240234 0)"/>
       <use xlink:href="#DejaVuSerif-67" transform="translate(860.644531 0)"/>
      </g>
     </g>
    </g>
    <g id="xtick_5">
     <g id="line2d_9">
      <path d="M 383.721279 326.648429 
L 383.721279 32.837812 
" clip-path="url(#p5442582627)" style="fill: none; stroke: #cccccc; stroke-width: 0.8; stroke-linecap: round"/>
     </g>
     <g id="line2d_10"/>
     <g id="text_5">
      <!-- Deep Neural Network -->
      <g style="fill: #262626" transform="translate(338.643222 431.434847) rotate(-45) scale(0.12 -0.12)">
       <defs>
        <path id="DejaVuSerif-44" d="M 1581 331 
L 2163 331 
Q 3072 331 3558 850 
Q 4044 1369 4044 2338 
Q 4044 3306 3559 3818 
Q 3075 4331 2163 4331 
L 1581 4331 
L 1581 331 
z
M 353 0 
L 353 331 
L 947 331 
L 947 4331 
L 353 4331 
L 353 4666 
L 2209 4666 
Q 3416 4666 4089 4050 
Q 4763 3434 4763 2338 
Q 4763 1238 4088 619 
Q 3413 0 2209 0 
L 353 0 
z
" transform="scale(0.015625)"/>
        <path id="DejaVuSerif-70" d="M 1313 1825 
L 1313 1497 
Q 1313 897 1542 583 
Q 1772 269 2209 269 
Q 2650 269 2876 622 
Q 3103 975 3103 1663 
Q 3103 2353 2876 2703 
Q 2650 3053 2209 3053 
Q 1772 3053 1542 2737 
Q 1313 2422 1313 1825 
z
M 738 2988 
L 184 2988 
L 184 3322 
L 1313 3322 
L 1313 2803 
Q 1481 3116 1742 3264 
Q 2003 3413 2388 3413 
Q 3000 3413 3387 2928 
Q 3775 2444 3775 1663 
Q 3775 881 3387 395 
Q 3000 -91 2388 -91 
Q 2003 -91 1742 57 
Q 1481 206 1313 519 
L 1313 -997 
L 1856 -997 
L 1856 -1331 
L 184 -1331 
L 184 -997 
L 738 -997 
L 738 2988 
z
" transform="scale(0.015625)"/>
        <path id="DejaVuSerif-4e" d="M 313 0 
L 313 331 
L 941 331 
L 941 4331 
L 313 4331 
L 313 4666 
L 1509 4666 
L 4306 984 
L 4306 4331 
L 3681 4331 
L 3681 4666 
L 5319 4666 
L 5319 4331 
L 4691 4331 
L 4691 -91 
L 4313 -91 
L 1325 3841 
L 1325 331 
L 1953 331 
L 1953 0 
L 313 0 
z
" transform="scale(0.015625)"/>
        <path id="DejaVuSerif-75" d="M 2266 3322 
L 3341 3322 
L 3341 331 
L 3884 331 
L 3884 0 
L 2766 0 
L 2766 588 
Q 2606 256 2353 82 
Q 2100 -91 1766 -91 
Q 1213 -91 952 223 
Q 691 538 691 1209 
L 691 2988 
L 172 2988 
L 172 3322 
L 1269 3322 
L 1269 1388 
Q 1269 781 1417 556 
Q 1566 331 1947 331 
Q 2347 331 2556 625 
Q 2766 919 2766 1478 
L 2766 2988 
L 2266 2988 
L 2266 3322 
z
" transform="scale(0.015625)"/>
        <path id="DejaVuSerif-6c" d="M 1313 331 
L 1856 331 
L 1856 0 
L 184 0 
L 184 331 
L 738 331 
L 738 4531 
L 184 4531 
L 184 4863 
L 1313 4863 
L 1313 331 
z
" transform="scale(0.015625)"/>
        <path id="DejaVuSerif-77" d="M 3072 3322 
L 3922 728 
L 4672 2988 
L 4191 2988 
L 4191 3322 
L 5394 3322 
L 5394 2988 
L 5025 2988 
L 4038 0 
L 3559 0 
L 2741 2484 
L 1919 0 
L 1459 0 
L 475 2988 
L 103 2988 
L 103 3322 
L 1606 3322 
L 1606 2988 
L 1069 2988 
L 1813 728 
L 2669 3322 
L 3072 3322 
z
" transform="scale(0.015625)"/>
        <path id="DejaVuSerif-6b" d="M 1831 0 
L 219 0 
L 219 331 
L 738 331 
L 738 4531 
L 184 4531 
L 184 4863 
L 1313 4863 
L 1313 1697 
L 2713 2988 
L 2234 2988 
L 2234 3322 
L 3738 3322 
L 3738 2988 
L 3169 2988 
L 2181 2075 
L 3444 331 
L 3922 331 
L 3922 0 
L 2284 0 
L 2284 331 
L 2759 331 
L 1766 1697 
L 1313 1275 
L 1313 331 
L 1831 331 
L 1831 0 
z
" transform="scale(0.015625)"/>
       </defs>
       <use xlink:href="#DejaVuSerif-44"/>
       <use xlink:href="#DejaVuSerif-65" transform="translate(80.175781 0)"/>
       <use xlink:href="#DejaVuSerif-65" transform="translate(139.355469 0)"/>
       <use xlink:href="#DejaVuSerif-70" transform="translate(198.535156 0)"/>
       <use xlink:href="#DejaVuSerif-20" transform="translate(262.548828 0)"/>
       <use xlink:href="#DejaVuSerif-4e" transform="translate(294.335938 0)"/>
       <use xlink:href="#DejaVuSerif-65" transform="translate(381.835938 0)"/>
       <use xlink:href="#DejaVuSerif-75" transform="translate(441.015625 0)"/>
       <use xlink:href="#DejaVuSerif-72" transform="translate(505.419922 0)"/>
       <use xlink:href="#DejaVuSerif-61" transform="translate(553.222656 0)"/>
       <use xlink:href="#DejaVuSerif-6c" transform="translate(612.841797 0)"/>
       <use xlink:href="#DejaVuSerif-20" transform="translate(644.824219 0)"/>
       <use xlink:href="#DejaVuSerif-4e" transform="translate(676.611328 0)"/>
       <use xlink:href="#DejaVuSerif-65" transform="translate(764.111328 0)"/>
       <use xlink:href="#DejaVuSerif-74" transform="translate(823.291016 0)"/>
       <use xlink:href="#DejaVuSerif-77" transform="translate(863.476562 0)"/>
       <use xlink:href="#DejaVuSerif-6f" transform="translate(949.072266 0)"/>
       <use xlink:href="#DejaVuSerif-72" transform="translate(1009.277344 0)"/>
       <use xlink:href="#DejaVuSerif-6b" transform="translate(1057.080078 0)"/>
      </g>
     </g>
    </g>
   </g>
   <g id="matplotlib.axis_2">
    <g id="ytick_1">
     <g id="line2d_11">
      <path d="M 57.21875 326.648429 
L 428.75611 326.648429 
" clip-path="url(#p5442582627)" style="fill: none; stroke: #cccccc; stroke-opacity: 0.3; stroke-width: 0.8; stroke-linecap: round"/>
     </g>
     <g id="line2d_12"/>
     <g id="text_6">
      <!-- 0 -->
      <g style="fill: #262626" transform="translate(46.08375 331.207492) scale(0.12 -0.12)">
       <defs>
        <path id="DejaVuSerif-30" d="M 2034 219 
Q 2513 219 2750 744 
Q 2988 1269 2988 2328 
Q 2988 3391 2750 3916 
Q 2513 4441 2034 4441 
Q 1556 4441 1318 3916 
Q 1081 3391 1081 2328 
Q 1081 1269 1318 744 
Q 1556 219 2034 219 
z
M 2034 -91 
Q 1275 -91 848 546 
Q 422 1184 422 2328 
Q 422 3475 848 4112 
Q 1275 4750 2034 4750 
Q 2797 4750 3222 4112 
Q 3647 3475 3647 2328 
Q 3647 1184 3222 546 
Q 2797 -91 2034 -91 
z
" transform="scale(0.015625)"/>
       </defs>
       <use xlink:href="#DejaVuSerif-30"/>
      </g>
     </g>
    </g>
    <g id="ytick_2">
     <g id="line2d_13">
      <path d="M 57.21875 286.787225 
L 428.75611 286.787225 
" clip-path="url(#p5442582627)" style="fill: none; stroke: #cccccc; stroke-opacity: 0.3; stroke-width: 0.8; stroke-linecap: round"/>
     </g>
     <g id="line2d_14"/>
     <g id="text_7">
      <!-- 20 -->
      <g style="fill: #262626" transform="translate(38.44875 291.346288) scale(0.12 -0.12)">
       <defs>
        <path id="DejaVuSerif-32" d="M 819 3553 
L 469 3553 
L 469 4384 
Q 803 4563 1142 4656 
Q 1481 4750 1806 4750 
Q 2534 4750 2956 4397 
Q 3378 4044 3378 3438 
Q 3378 2753 2422 1800 
Q 2347 1728 2309 1691 
L 1131 513 
L 3078 513 
L 3078 1088 
L 3444 1088 
L 3444 0 
L 434 0 
L 434 341 
L 1850 1753 
Q 2319 2222 2519 2614 
Q 2719 3006 2719 3438 
Q 2719 3909 2473 4175 
Q 2228 4441 1797 4441 
Q 1350 4441 1106 4219 
Q 863 3997 819 3553 
z
" transform="scale(0.015625)"/>
       </defs>
       <use xlink:href="#DejaVuSerif-32"/>
       <use xlink:href="#DejaVuSerif-30" transform="translate(63.623047 0)"/>
      </g>
     </g>
    </g>
    <g id="ytick_3">
     <g id="line2d_15">
      <path d="M 57.21875 246.926021 
L 428.75611 246.926021 
" clip-path="url(#p5442582627)" style="fill: none; stroke: #cccccc; stroke-opacity: 0.3; stroke-width: 0.8; stroke-linecap: round"/>
     </g>
     <g id="line2d_16"/>
     <g id="text_8">
      <!-- 40 -->
      <g style="fill: #262626" transform="translate(38.44875 251.485084) scale(0.12 -0.12)">
       <defs>
        <path id="DejaVuSerif-34" d="M 2234 1581 
L 2234 4063 
L 641 1581 
L 2234 1581 
z
M 3609 0 
L 1484 0 
L 1484 331 
L 2234 331 
L 2234 1247 
L 197 1247 
L 197 1588 
L 2241 4750 
L 2859 4750 
L 2859 1581 
L 3750 1581 
L 3750 1247 
L 2859 1247 
L 2859 331 
L 3609 331 
L 3609 0 
z
" transform="scale(0.015625)"/>
       </defs>
       <use xlink:href="#DejaVuSerif-34"/>
       <use xlink:href="#DejaVuSerif-30" transform="translate(63.623047 0)"/>
      </g>
     </g>
    </g>
    <g id="ytick_4">
     <g id="line2d_17">
      <path d="M 57.21875 207.064818 
L 428.75611 207.064818 
" clip-path="url(#p5442582627)" style="fill: none; stroke: #cccccc; stroke-opacity: 0.3; stroke-width: 0.8; stroke-linecap: round"/>
     </g>
     <g id="line2d_18"/>
     <g id="text_9">
      <!-- 60 -->
      <g style="fill: #262626" transform="translate(38.44875 211.62388) scale(0.12 -0.12)">
       <defs>
        <path id="DejaVuSerif-36" d="M 2094 219 
Q 2534 219 2771 542 
Q 3009 866 3009 1472 
Q 3009 2078 2771 2401 
Q 2534 2725 2094 2725 
Q 1647 2725 1412 2412 
Q 1178 2100 1178 1509 
Q 1178 888 1415 553 
Q 1653 219 2094 219 
z
M 1075 2569 
Q 1288 2803 1556 2918 
Q 1825 3034 2163 3034 
Q 2859 3034 3264 2615 
Q 3669 2197 3669 1472 
Q 3669 763 3233 336 
Q 2797 -91 2069 -91 
Q 1278 -91 853 498 
Q 428 1088 428 2181 
Q 428 3406 931 4078 
Q 1434 4750 2350 4750 
Q 2597 4750 2869 4703 
Q 3141 4656 3425 4563 
L 3425 3794 
L 3072 3794 
Q 3034 4109 2831 4275 
Q 2628 4441 2284 4441 
Q 1678 4441 1381 3981 
Q 1084 3522 1075 2569 
z
" transform="scale(0.015625)"/>
       </defs>
       <use xlink:href="#DejaVuSerif-36"/>
       <use xlink:href="#DejaVuSerif-30" transform="translate(63.623047 0)"/>
      </g>
     </g>
    </g>
    <g id="ytick_5">
     <g id="line2d_19">
      <path d="M 57.21875 167.203614 
L 428.75611 167.203614 
" clip-path="url(#p5442582627)" style="fill: none; stroke: #cccccc; stroke-opacity: 0.3; stroke-width: 0.8; stroke-linecap: round"/>
     </g>
     <g id="line2d_20"/>
     <g id="text_10">
      <!-- 80 -->
      <g style="fill: #262626" transform="translate(38.44875 171.762676) scale(0.12 -0.12)">
       <defs>
        <path id="DejaVuSerif-38" d="M 2981 1275 
Q 2981 1775 2732 2051 
Q 2484 2328 2034 2328 
Q 1584 2328 1336 2051 
Q 1088 1775 1088 1275 
Q 1088 772 1336 495 
Q 1584 219 2034 219 
Q 2484 219 2732 495 
Q 2981 772 2981 1275 
z
M 2853 3541 
Q 2853 3966 2637 4203 
Q 2422 4441 2034 4441 
Q 1650 4441 1433 4203 
Q 1216 3966 1216 3541 
Q 1216 3113 1433 2875 
Q 1650 2638 2034 2638 
Q 2422 2638 2637 2875 
Q 2853 3113 2853 3541 
z
M 2516 2484 
Q 3047 2413 3344 2092 
Q 3641 1772 3641 1275 
Q 3641 619 3225 264 
Q 2809 -91 2034 -91 
Q 1263 -91 845 264 
Q 428 619 428 1275 
Q 428 1772 725 2092 
Q 1022 2413 1556 2484 
Q 1084 2569 832 2842 
Q 581 3116 581 3541 
Q 581 4103 968 4426 
Q 1356 4750 2034 4750 
Q 2713 4750 3100 4426 
Q 3488 4103 3488 3541 
Q 3488 3116 3236 2842 
Q 2984 2569 2516 2484 
z
" transform="scale(0.015625)"/>
       </defs>
       <use xlink:href="#DejaVuSerif-38"/>
       <use xlink:href="#DejaVuSerif-30" transform="translate(63.623047 0)"/>
      </g>
     </g>
    </g>
    <g id="ytick_6">
     <g id="line2d_21">
      <path d="M 57.21875 127.34241 
L 428.75611 127.34241 
" clip-path="url(#p5442582627)" style="fill: none; stroke: #cccccc; stroke-opacity: 0.3; stroke-width: 0.8; stroke-linecap: round"/>
     </g>
     <g id="line2d_22"/>
     <g id="text_11">
      <!-- 100 -->
      <g style="fill: #262626" transform="translate(30.81375 131.901472) scale(0.12 -0.12)">
       <defs>
        <path id="DejaVuSerif-31" d="M 909 0 
L 909 331 
L 1722 331 
L 1722 4213 
L 781 3603 
L 781 4013 
L 1919 4750 
L 2350 4750 
L 2350 331 
L 3163 331 
L 3163 0 
L 909 0 
z
" transform="scale(0.015625)"/>
       </defs>
       <use xlink:href="#DejaVuSerif-31"/>
       <use xlink:href="#DejaVuSerif-30" transform="translate(63.623047 0)"/>
       <use xlink:href="#DejaVuSerif-30" transform="translate(127.246094 0)"/>
      </g>
     </g>
    </g>
    <g id="ytick_7">
     <g id="line2d_23">
      <path d="M 57.21875 87.481206 
L 428.75611 87.481206 
" clip-path="url(#p5442582627)" style="fill: none; stroke: #cccccc; stroke-opacity: 0.3; stroke-width: 0.8; stroke-linecap: round"/>
     </g>
     <g id="line2d_24"/>
     <g id="text_12">
      <!-- 120 -->
      <g style="fill: #262626" transform="translate(30.81375 92.040268) scale(0.12 -0.12)">
       <use xlink:href="#DejaVuSerif-31"/>
       <use xlink:href="#DejaVuSerif-32" transform="translate(63.623047 0)"/>
       <use xlink:href="#DejaVuSerif-30" transform="translate(127.246094 0)"/>
      </g>
     </g>
    </g>
    <g id="ytick_8">
     <g id="line2d_25">
      <path d="M 57.21875 47.620002 
L 428.75611 47.620002 
" clip-path="url(#p5442582627)" style="fill: none; stroke: #cccccc; stroke-opacity: 0.3; stroke-width: 0.8; stroke-linecap: round"/>
     </g>
     <g id="line2d_26"/>
     <g id="text_13">
      <!-- 140 -->
      <g style="fill: #262626" transform="translate(30.81375 52.179064) scale(0.12 -0.12)">
       <use xlink:href="#DejaVuSerif-31"/>
       <use xlink:href="#DejaVuSerif-34" transform="translate(63.623047 0)"/>
       <use xlink:href="#DejaVuSerif-30" transform="translate(127.246094 0)"/>
      </g>
     </g>
    </g>
    <g id="text_14">
     <!-- RMSE -->
     <g style="fill: #262626" transform="translate(16.318125 198.894371) rotate(-90) scale(0.12 -0.12)">
      <defs>
       <path id="DejaVuSerif-53" d="M 594 225 
L 594 1288 
L 953 1284 
Q 969 753 1261 498 
Q 1553 244 2150 244 
Q 2706 244 2998 464 
Q 3291 684 3291 1106 
Q 3291 1444 3114 1625 
Q 2938 1806 2369 1978 
L 1753 2163 
Q 1084 2366 811 2669 
Q 538 2972 538 3500 
Q 538 4094 959 4422 
Q 1381 4750 2144 4750 
Q 2469 4750 2856 4679 
Q 3244 4609 3681 4475 
L 3681 3481 
L 3328 3481 
Q 3275 3975 2998 4195 
Q 2722 4416 2156 4416 
Q 1663 4416 1405 4214 
Q 1147 4013 1147 3628 
Q 1147 3294 1340 3103 
Q 1534 2913 2163 2725 
L 2741 2553 
Q 3375 2363 3645 2067 
Q 3916 1772 3916 1275 
Q 3916 597 3481 253 
Q 3047 -91 2188 -91 
Q 1803 -91 1404 -12 
Q 1006 66 594 225 
z
" transform="scale(0.015625)"/>
       <path id="DejaVuSerif-45" d="M 353 0 
L 353 331 
L 947 331 
L 947 4331 
L 353 4331 
L 353 4666 
L 4109 4666 
L 4109 3628 
L 3725 3628 
L 3725 4281 
L 1581 4281 
L 1581 2719 
L 3109 2719 
L 3109 3303 
L 3494 3303 
L 3494 1753 
L 3109 1753 
L 3109 2338 
L 1581 2338 
L 1581 384 
L 3775 384 
L 3775 1038 
L 4159 1038 
L 4159 0 
L 353 0 
z
" transform="scale(0.015625)"/>
      </defs>
      <use xlink:href="#DejaVuSerif-52"/>
      <use xlink:href="#DejaVuSerif-4d" transform="translate(75.292969 0)"/>
      <use xlink:href="#DejaVuSerif-53" transform="translate(177.685547 0)"/>
      <use xlink:href="#DejaVuSerif-45" transform="translate(246.191406 0)"/>
     </g>
    </g>
   </g>
   <g id="patch_3">
    <path d="M 74.106812 326.648429 
L 130.400351 326.648429 
L 130.400351 137.874142 
L 74.106812 137.874142 
z
" clip-path="url(#p5442582627)" style="fill: #2e86ab; opacity: 0.8"/>
   </g>
   <g id="patch_4">
    <path d="M 144.473736 326.648429 
L 200.767276 326.648429 
L 200.767276 132.034974 
L 144.473736 132.034974 
z
" clip-path="url(#p5442582627)" style="fill: #a23b72; opacity: 0.8"/>
   </g>
   <g id="patch_5">
    <path d="M 214.84066 326.648429 
L 271.1342 326.648429 
L 271.1342 119.060608 
L 214.84066 119.060608 
z
" clip-path="url(#p5442582627)" style="fill: #f18f01; opacity: 0.8"/>
   </g>
   <g id="patch_6">
    <path d="M 285.207585 326.648429 
L 341.501124 326.648429 
L 341.501124 63.561059 
L 285.207585 63.561059 
z
" clip-path="url(#p5442582627)" style="fill: #c73e1d; opacity: 0.8"/>
   </g>
   <g id="patch_7">
    <path d="M 355.574509 326.648429 
L 411.868049 326.648429 
L 411.868049 46.828794 
L 355.574509 46.828794 
z
" clip-path="url(#p5442582627)" style="fill: #4e6e58; opacity: 0.8"/>
   </g>
   <g id="patch_8">
    <path d="M 57.21875 326.648429 
L 57.21875 32.837812 
" style="fill: none; stroke: #000000; stroke-width: 0.8; stroke-linejoin: miter; stroke-linecap: square"/>
   </g>
   <g id="patch_9">
    <path d="M 428.75611 326.648429 
L 428.75611 32.837812 
" style="fill: none; stroke: #000000; stroke-width: 0.8; stroke-linejoin: miter; stroke-linecap: square"/>
   </g>
   <g id="patch_10">
    <path d="M 57.21875 326.648429 
L 428.75611 326.648429 
" style="fill: none; stroke: #000000; stroke-width: 0.8; stroke-linejoin: miter; stroke-linecap: square"/>
   </g>
   <g id="patch_11">
    <path d="M 57.21875 32.837812 
L 428.75611 32.837812 
" style="fill: none; stroke: #000000; stroke-width: 0.8; stroke-linejoin: miter; stroke-linecap: square"/>
   </g>
   <g id="text_15">
    <!-- 94.716 -->
    <g style="fill: #262626" transform="translate(84.758269 133.906711) scale(0.1 -0.1)">
     <defs>
      <path id="DejaVuSerif-39" d="M 2994 2091 
Q 2784 1856 2512 1740 
Q 2241 1625 1900 1625 
Q 1206 1625 804 2044 
Q 403 2463 403 3188 
Q 403 3897 839 4323 
Q 1275 4750 2003 4750 
Q 2794 4750 3217 4161 
Q 3641 3572 3641 2478 
Q 3641 1253 3137 581 
Q 2634 -91 1722 -91 
Q 1475 -91 1203 -44 
Q 931 3 647 97 
L 647 872 
L 997 872 
Q 1038 556 1241 387 
Q 1444 219 1784 219 
Q 2391 219 2687 676 
Q 2984 1134 2994 2091 
z
M 1978 4441 
Q 1534 4441 1298 4117 
Q 1063 3794 1063 3188 
Q 1063 2581 1298 2256 
Q 1534 1931 1978 1931 
Q 2422 1931 2658 2245 
Q 2894 2559 2894 3150 
Q 2894 3772 2656 4106 
Q 2419 4441 1978 4441 
z
" transform="scale(0.015625)"/>
      <path id="DejaVuSerif-2e" d="M 603 325 
Q 603 500 722 622 
Q 841 744 1019 744 
Q 1191 744 1312 622 
Q 1434 500 1434 325 
Q 1434 153 1312 31 
Q 1191 -91 1019 -91 
Q 841 -91 722 29 
Q 603 150 603 325 
z
" transform="scale(0.015625)"/>
      <path id="DejaVuSerif-37" d="M 3609 4347 
L 1784 0 
L 1319 0 
L 3059 4153 
L 903 4153 
L 903 3578 
L 538 3578 
L 538 4666 
L 3609 4666 
L 3609 4347 
z
" transform="scale(0.015625)"/>
     </defs>
     <use xlink:href="#DejaVuSerif-39"/>
     <use xlink:href="#DejaVuSerif-34" transform="translate(63.623047 0)"/>
     <use xlink:href="#DejaVuSerif-2e" transform="translate(127.246094 0)"/>
     <use xlink:href="#DejaVuSerif-37" transform="translate(159.033203 0)"/>
     <use xlink:href="#DejaVuSerif-31" transform="translate(222.65625 0)"/>
     <use xlink:href="#DejaVuSerif-36" transform="translate(286.279297 0)"/>
    </g>
   </g>
   <g id="text_16">
    <!-- 97.646 -->
    <g style="fill: #262626" transform="translate(155.125193 128.009152) scale(0.1 -0.1)">
     <use xlink:href="#DejaVuSerif-39"/>
     <use xlink:href="#DejaVuSerif-37" transform="translate(63.623047 0)"/>
     <use xlink:href="#DejaVuSerif-2e" transform="translate(127.246094 0)"/>
     <use xlink:href="#DejaVuSerif-36" transform="translate(159.033203 0)"/>
     <use xlink:href="#DejaVuSerif-34" transform="translate(222.65625 0)"/>
     <use xlink:href="#DejaVuSerif-36" transform="translate(286.279297 0)"/>
    </g>
   </g>
   <g id="text_17">
    <!-- 104.155 -->
    <g style="fill: #262626" transform="translate(222.310868 114.905042) scale(0.1 -0.1)">
     <defs>
      <path id="DejaVuSerif-35" d="M 3219 4666 
L 3219 4153 
L 1081 4153 
L 1081 2816 
Q 1244 2928 1461 2984 
Q 1678 3041 1947 3041 
Q 2703 3041 3140 2622 
Q 3578 2203 3578 1478 
Q 3578 738 3136 323 
Q 2694 -91 1894 -91 
Q 1572 -91 1234 -12 
Q 897 66 544 225 
L 544 1131 
L 897 1131 
Q 925 688 1179 453 
Q 1434 219 1894 219 
Q 2388 219 2653 544 
Q 2919 869 2919 1478 
Q 2919 2084 2655 2407 
Q 2391 2731 1894 2731 
Q 1613 2731 1398 2631 
Q 1184 2531 1019 2322 
L 750 2322 
L 750 4666 
L 3219 4666 
z
" transform="scale(0.015625)"/>
     </defs>
     <use xlink:href="#DejaVuSerif-31"/>
     <use xlink:href="#DejaVuSerif-30" transform="translate(63.623047 0)"/>
     <use xlink:href="#DejaVuSerif-34" transform="translate(127.246094 0)"/>
     <use xlink:href="#DejaVuSerif-2e" transform="translate(190.869141 0)"/>
     <use xlink:href="#DejaVuSerif-31" transform="translate(222.65625 0)"/>
     <use xlink:href="#DejaVuSerif-35" transform="translate(286.279297 0)"/>
     <use xlink:href="#DejaVuSerif-35" transform="translate(349.902344 0)"/>
    </g>
   </g>
   <g id="text_18">
    <!-- 132.002 -->
    <g style="fill: #262626" transform="translate(292.677792 58.850498) scale(0.1 -0.1)">
     <defs>
      <path id="DejaVuSerif-33" d="M 622 4469 
Q 988 4606 1323 4678 
Q 1659 4750 1953 4750 
Q 2638 4750 3022 4454 
Q 3406 4159 3406 3634 
Q 3406 3213 3140 2930 
Q 2875 2647 2388 2547 
Q 2963 2466 3280 2130 
Q 3597 1794 3597 1259 
Q 3597 606 3158 257 
Q 2719 -91 1894 -91 
Q 1528 -91 1179 -12 
Q 831 66 488 225 
L 488 1131 
L 838 1131 
Q 869 681 1141 450 
Q 1413 219 1906 219 
Q 2384 219 2661 495 
Q 2938 772 2938 1253 
Q 2938 1803 2653 2086 
Q 2369 2369 1819 2369 
L 1522 2369 
L 1522 2688 
L 1678 2688 
Q 2225 2688 2498 2914 
Q 2772 3141 2772 3597 
Q 2772 4006 2547 4223 
Q 2322 4441 1900 4441 
Q 1478 4441 1245 4241 
Q 1013 4041 972 3647 
L 622 3647 
L 622 4469 
z
" transform="scale(0.015625)"/>
     </defs>
     <use xlink:href="#DejaVuSerif-31"/>
     <use xlink:href="#DejaVuSerif-33" transform="translate(63.623047 0)"/>
     <use xlink:href="#DejaVuSerif-32" transform="translate(127.246094 0)"/>
     <use xlink:href="#DejaVuSerif-2e" transform="translate(190.869141 0)"/>
     <use xlink:href="#DejaVuSerif-30" transform="translate(222.65625 0)"/>
     <use xlink:href="#DejaVuSerif-30" transform="translate(286.279297 0)"/>
     <use xlink:href="#DejaVuSerif-32" transform="translate(349.902344 0)"/>
    </g>
   </g>
   <g id="text_19">
    <!-- 140.397 -->
    <g style="fill: #262626" transform="translate(363.044716 41.95091) scale(0.1 -0.1)">
     <use xlink:href="#DejaVuSerif-31"/>
     <use xlink:href="#DejaVuSerif-34" transform="translate(63.623047 0)"/>
     <use xlink:href="#DejaVuSerif-30" transform="translate(127.246094 0)"/>
     <use xlink:href="#DejaVuSerif-2e" transform="translate(190.869141 0)"/>
     <use xlink:href="#DejaVuSerif-33" transform="translate(222.65625 0)"/>
     <use xlink:href="#DejaVuSerif-39" transform="translate(286.279297 0)"/>
     <use xlink:href="#DejaVuSerif-37" transform="translate(349.902344 0)"/>
    </g>
   </g>
   <g id="text_20">
    <!-- Model Performance: RMSE -->
    <g style="fill: #262626" transform="translate(136.809461 17.837812) scale(0.14 -0.14)">
     <defs>
      <path id="DejaVuSerif-Bold-4d" d="M 269 0 
L 269 378 
L 863 378 
L 863 4288 
L 269 4288 
L 269 4666 
L 2194 4666 
L 3525 1672 
L 4863 4666 
L 6784 4666 
L 6784 4288 
L 6188 4288 
L 6188 378 
L 6784 378 
L 6784 0 
L 4384 0 
L 4384 378 
L 4978 378 
L 4978 3938 
L 3531 684 
L 2741 684 
L 1300 3938 
L 1300 378 
L 1894 378 
L 1894 0 
L 269 0 
z
" transform="scale(0.015625)"/>
      <path id="DejaVuSerif-Bold-6f" d="M 2138 263 
Q 2488 263 2630 563 
Q 2772 863 2772 1663 
Q 2772 2463 2631 2761 
Q 2491 3059 2138 3059 
Q 1784 3059 1640 2757 
Q 1497 2456 1497 1663 
Q 1497 869 1640 566 
Q 1784 263 2138 263 
z
M 2138 -91 
Q 1259 -91 761 376 
Q 263 844 263 1663 
Q 263 2484 761 2948 
Q 1259 3413 2138 3413 
Q 3019 3413 3516 2948 
Q 4013 2484 4013 1663 
Q 4013 844 3514 376 
Q 3016 -91 2138 -91 
z
" transform="scale(0.015625)"/>
      <path id="DejaVuSerif-Bold-64" d="M 2747 1497 
L 2747 1825 
Q 2747 2406 2597 2665 
Q 2447 2925 2119 2925 
Q 1775 2925 1636 2651 
Q 1497 2378 1497 1663 
Q 1497 947 1637 672 
Q 1778 397 2119 397 
Q 2447 397 2597 656 
Q 2747 916 2747 1497 
z
M 3853 378 
L 4325 378 
L 4325 0 
L 2747 0 
L 2747 422 
Q 2606 163 2367 36 
Q 2128 -91 1778 -91 
Q 1072 -91 667 378 
Q 263 847 263 1663 
Q 263 2481 667 2947 
Q 1072 3413 1778 3413 
Q 2128 3413 2367 3286 
Q 2606 3159 2747 2900 
L 2747 4488 
L 2272 4488 
L 2272 4863 
L 3853 4863 
L 3853 378 
z
" transform="scale(0.015625)"/>
      <path id="DejaVuSerif-Bold-65" d="M 2566 1875 
Q 2566 2531 2444 2795 
Q 2322 3059 2028 3059 
Q 1744 3059 1620 2800 
Q 1497 2541 1497 1931 
L 1497 1875 
L 2566 1875 
z
M 3781 1503 
L 1497 1503 
L 1497 1478 
Q 1497 834 1690 548 
Q 1884 263 2316 263 
Q 2675 263 2897 453 
Q 3119 644 3181 1006 
L 3700 1006 
Q 3566 441 3166 175 
Q 2766 -91 2047 -91 
Q 1184 -91 723 364 
Q 263 819 263 1663 
Q 263 2488 734 2950 
Q 1206 3413 2047 3413 
Q 2872 3413 3312 2927 
Q 3753 2441 3781 1503 
z
" transform="scale(0.015625)"/>
      <path id="DejaVuSerif-Bold-6c" d="M 1797 378 
L 2272 378 
L 2272 0 
L 219 0 
L 219 378 
L 691 378 
L 691 4488 
L 219 4488 
L 219 4863 
L 1797 4863 
L 1797 378 
z
" transform="scale(0.015625)"/>
      <path id="DejaVuSerif-Bold-20" transform="scale(0.015625)"/>
      <path id="DejaVuSerif-Bold-50" d="M 300 0 
L 300 378 
L 897 378 
L 897 4288 
L 300 4288 
L 300 4666 
L 2956 4666 
Q 3734 4666 4193 4295 
Q 4653 3925 4653 3303 
Q 4653 2678 4192 2304 
Q 3731 1931 2956 1931 
L 2100 1931 
L 2100 378 
L 2853 378 
L 2853 0 
L 300 0 
z
M 2100 2309 
L 2450 2309 
Q 2856 2309 3098 2579 
Q 3341 2850 3341 3303 
Q 3341 3753 3100 4020 
Q 2859 4288 2450 4288 
L 2100 4288 
L 2100 2309 
z
" transform="scale(0.015625)"/>
      <path id="DejaVuSerif-Bold-72" d="M 3438 3359 
L 3438 2369 
L 3084 2369 
Q 3066 2634 2941 2764 
Q 2816 2894 2578 2894 
Q 2216 2894 2006 2575 
Q 1797 2256 1797 1691 
L 1797 378 
L 2400 378 
L 2400 0 
L 219 0 
L 219 378 
L 691 378 
L 691 2944 
L 184 2944 
L 184 3322 
L 1797 3322 
L 1797 2731 
Q 1959 3078 2226 3245 
Q 2494 3413 2881 3413 
Q 2978 3413 3117 3398 
Q 3256 3384 3438 3359 
z
" transform="scale(0.015625)"/>
      <path id="DejaVuSerif-Bold-66" d="M 3097 4031 
L 2747 4031 
Q 2722 4275 2605 4394 
Q 2488 4513 2272 4513 
Q 2022 4513 1909 4333 
Q 1797 4153 1797 3750 
L 1797 3322 
L 2631 3322 
L 2631 2944 
L 1797 2944 
L 1797 378 
L 2438 378 
L 2438 0 
L 219 0 
L 219 378 
L 691 378 
L 691 2944 
L 197 2944 
L 197 3322 
L 691 3322 
L 691 3738 
Q 691 4291 1044 4577 
Q 1397 4863 2081 4863 
Q 2347 4863 2600 4833 
Q 2853 4803 3097 4744 
L 3097 4031 
z
" transform="scale(0.015625)"/>
      <path id="DejaVuSerif-Bold-6d" d="M 3884 2778 
Q 4116 3109 4384 3261 
Q 4653 3413 5013 3413 
Q 5584 3413 5867 3089 
Q 6150 2766 6150 2113 
L 6150 378 
L 6625 378 
L 6625 0 
L 4647 0 
L 4647 378 
L 5044 378 
L 5044 1947 
Q 5044 2569 4948 2731 
Q 4853 2894 4594 2894 
Q 4300 2894 4137 2667 
Q 3975 2441 3975 2022 
L 3975 378 
L 4372 378 
L 4372 0 
L 2472 0 
L 2472 378 
L 2869 378 
L 2869 1947 
Q 2869 2569 2772 2731 
Q 2675 2894 2419 2894 
Q 2122 2894 1959 2667 
Q 1797 2441 1797 2022 
L 1797 378 
L 2194 378 
L 2194 0 
L 219 0 
L 219 378 
L 691 378 
L 691 2944 
L 219 2944 
L 219 3322 
L 1797 3322 
L 1797 2853 
Q 1991 3144 2241 3278 
Q 2491 3413 2834 3413 
Q 3241 3413 3494 3258 
Q 3747 3103 3884 2778 
z
" transform="scale(0.015625)"/>
      <path id="DejaVuSerif-Bold-61" d="M 3525 2041 
L 3525 378 
L 4000 378 
L 4000 0 
L 2419 0 
L 2419 422 
Q 2200 159 1931 34 
Q 1663 -91 1319 -91 
Q 809 -91 536 182 
Q 263 456 263 966 
Q 263 1525 655 1803 
Q 1047 2081 1838 2081 
L 2419 2081 
L 2419 2278 
Q 2419 2681 2228 2873 
Q 2038 3066 1638 3066 
Q 1306 3066 1126 2930 
Q 947 2794 872 2484 
L 519 2484 
L 519 3200 
Q 816 3306 1134 3359 
Q 1453 3413 1806 3413 
Q 2697 3413 3111 3081 
Q 3525 2750 3525 2041 
z
M 2419 1044 
L 2419 1709 
L 2003 1709 
Q 1694 1709 1528 1540 
Q 1363 1372 1363 1056 
Q 1363 741 1483 584 
Q 1603 428 1850 428 
Q 2106 428 2262 597 
Q 2419 766 2419 1044 
z
" transform="scale(0.015625)"/>
      <path id="DejaVuSerif-Bold-6e" d="M 219 0 
L 219 378 
L 691 378 
L 691 2944 
L 219 2944 
L 219 3322 
L 1797 3322 
L 1797 2853 
Q 1997 3150 2253 3281 
Q 2509 3413 2900 3413 
Q 3459 3413 3745 3083 
Q 4031 2753 4031 2113 
L 4031 378 
L 4506 378 
L 4506 0 
L 2522 0 
L 2522 378 
L 2925 378 
L 2925 2144 
Q 2925 2566 2817 2730 
Q 2709 2894 2444 2894 
Q 2109 2894 1953 2648 
Q 1797 2403 1797 1869 
L 1797 378 
L 2203 378 
L 2203 0 
L 219 0 
z
" transform="scale(0.015625)"/>
      <path id="DejaVuSerif-Bold-63" d="M 3609 1038 
Q 3491 469 3123 189 
Q 2756 -91 2125 -91 
Q 1238 -91 750 368 
Q 263 828 263 1663 
Q 263 2488 744 2950 
Q 1225 3413 2081 3413 
Q 2428 3413 2781 3347 
Q 3134 3281 3500 3150 
L 3500 2228 
L 3150 2228 
Q 3100 2650 2903 2854 
Q 2706 3059 2350 3059 
Q 1888 3059 1692 2746 
Q 1497 2434 1497 1663 
Q 1497 909 1687 586 
Q 1878 263 2309 263 
Q 2644 263 2845 463 
Q 3047 663 3091 1038 
L 3609 1038 
z
" transform="scale(0.015625)"/>
      <path id="DejaVuSerif-Bold-3a" d="M 588 2541 
Q 588 2788 761 2963 
Q 934 3138 1178 3138 
Q 1422 3138 1597 2961 
Q 1772 2784 1772 2541 
Q 1772 2297 1598 2125 
Q 1425 1953 1178 1953 
Q 931 1953 759 2125 
Q 588 2297 588 2541 
z
M 588 506 
Q 588 750 761 925 
Q 934 1100 1178 1100 
Q 1422 1100 1597 925 
Q 1772 750 1772 506 
Q 1772 259 1597 84 
Q 1422 -91 1178 -91 
Q 934 -91 761 84 
Q 588 259 588 506 
z
" transform="scale(0.015625)"/>
      <path id="DejaVuSerif-Bold-52" d="M 3397 2278 
Q 3675 2238 3865 2094 
Q 4056 1950 4197 1678 
L 4878 378 
L 5356 378 
L 5356 0 
L 3822 0 
L 3078 1409 
Q 2863 1847 2711 1967 
Q 2559 2088 2291 2088 
L 2100 2088 
L 2100 378 
L 2700 378 
L 2700 0 
L 300 0 
L 300 378 
L 897 378 
L 897 4288 
L 300 4288 
L 300 4666 
L 2963 4666 
Q 3775 4666 4217 4339 
Q 4659 4013 4659 3413 
Q 4659 2925 4345 2642 
Q 4031 2359 3397 2278 
z
M 2100 2463 
L 2509 2463 
Q 2947 2463 3183 2700 
Q 3419 2938 3419 3378 
Q 3419 3819 3183 4053 
Q 2947 4288 2509 4288 
L 2100 4288 
L 2100 2463 
z
" transform="scale(0.015625)"/>
      <path id="DejaVuSerif-Bold-53" d="M 494 225 
L 494 1331 
L 891 1331 
Q 981 806 1318 547 
Q 1656 288 2253 288 
Q 2738 288 2991 472 
Q 3244 656 3244 1013 
Q 3244 1294 3072 1450 
Q 2900 1606 2363 1741 
L 1663 1913 
Q 978 2088 700 2398 
Q 422 2709 422 3284 
Q 422 3978 883 4364 
Q 1344 4750 2175 4750 
Q 2584 4750 3026 4681 
Q 3469 4613 3944 4475 
L 3944 3444 
L 3547 3444 
Q 3456 3925 3150 4148 
Q 2844 4372 2278 4372 
Q 1816 4372 1580 4211 
Q 1344 4050 1344 3731 
Q 1344 3441 1506 3289 
Q 1669 3138 2303 2975 
L 3003 2803 
Q 3653 2641 3945 2297 
Q 4238 1953 4238 1350 
Q 4238 644 3750 276 
Q 3263 -91 2316 -91 
Q 1859 -91 1409 -12 
Q 959 66 494 225 
z
" transform="scale(0.015625)"/>
      <path id="DejaVuSerif-Bold-45" d="M 300 0 
L 300 378 
L 897 378 
L 897 4288 
L 300 4288 
L 300 4666 
L 4494 4666 
L 4494 3566 
L 4063 3566 
L 4063 4238 
L 2100 4238 
L 2100 2741 
L 3322 2741 
L 3322 3334 
L 3750 3334 
L 3750 1722 
L 3322 1722 
L 3322 2316 
L 2100 2316 
L 2100 428 
L 4122 428 
L 4122 1100 
L 4550 1100 
L 4550 0 
L 300 0 
z
" transform="scale(0.015625)"/>
     </defs>
     <use xlink:href="#DejaVuSerif-Bold-4d"/>
     <use xlink:href="#DejaVuSerif-Bold-6f" transform="translate(110.693359 0)"/>
     <use xlink:href="#DejaVuSerif-Bold-64" transform="translate(177.392578 0)"/>
     <use xlink:href="#DejaVuSerif-Bold-65" transform="translate(247.314453 0)"/>
     <use xlink:href="#DejaVuSerif-Bold-6c" transform="translate(310.9375 0)"/>
     <use xlink:href="#DejaVuSerif-Bold-20" transform="translate(348.925781 0)"/>
     <use xlink:href="#DejaVuSerif-Bold-50" transform="translate(383.740234 0)"/>
     <use xlink:href="#DejaVuSerif-Bold-65" transform="translate(456.310547 0)"/>
     <use xlink:href="#DejaVuSerif-Bold-72" transform="translate(519.933594 0)"/>
     <use xlink:href="#DejaVuSerif-Bold-66" transform="translate(572.619141 0)"/>
     <use xlink:href="#DejaVuSerif-Bold-6f" transform="translate(615.636719 0)"/>
     <use xlink:href="#DejaVuSerif-Bold-72" transform="translate(682.335938 0)"/>
     <use xlink:href="#DejaVuSerif-Bold-6d" transform="translate(735.021484 0)"/>
     <use xlink:href="#DejaVuSerif-Bold-61" transform="translate(840.832031 0)"/>
     <use xlink:href="#DejaVuSerif-Bold-6e" transform="translate(905.626953 0)"/>
     <use xlink:href="#DejaVuSerif-Bold-63" transform="translate(978.332031 0)"/>
     <use xlink:href="#DejaVuSerif-Bold-65" transform="translate(1039.220703 0)"/>
     <use xlink:href="#DejaVuSerif-Bold-3a" transform="translate(1102.84375 0)"/>
     <use xlink:href="#DejaVuSerif-Bold-20" transform="translate(1139.757812 0)"/>
     <use xlink:href="#DejaVuSerif-Bold-52" transform="translate(1174.572266 0)"/>
     <use xlink:href="#DejaVuSerif-Bold-4d" transform="translate(1257.677734 0)"/>
     <use xlink:href="#DejaVuSerif-Bold-53" transform="translate(1368.371094 0)"/>
     <use xlink:href="#DejaVuSerif-Bold-45" transform="translate(1440.587891 0)"/>
    </g>
   </g>
  </g>
  <g id="axes_2">
   <g id="patch_12">
    <path d="M 486.28234 326.648429 
L 857.8197 326.648429 
L 857.8197 32.837812 
L 486.28234 32.837812 
L 486.28234 326.648429 
z
" style="fill: none"/>
   </g>
   <g id="matplotlib.axis_3">
    <g id="xtick_6">
     <g id="line2d_27">
      <path d="M 531.317172 326.648429 
L 531.317172 32.837812 
" clip-path="url(#p4010b97400)" style="fill: none; stroke: #cccccc; stroke-width: 0.8; stroke-linecap: round"/>
     </g>
     <g id="line2d_28"/>
     <g id="text_21">
      <!-- Random Forest -->
      <g style="fill: #262626" transform="translate(500.778776 402.355522) rotate(-45) scale(0.12 -0.12)">
       <use xlink:href="#DejaVuSerif-52"/>
       <use xlink:href="#DejaVuSerif-61" transform="translate(77.542969 0)"/>
       <use xlink:href="#DejaVuSerif-6e" transform="translate(137.162109 0)"/>
       <use xlink:href="#DejaVuSerif-64" transform="translate(201.566406 0)"/>
       <use xlink:href="#DejaVuSerif-6f" transform="translate(265.580078 0)"/>
       <use xlink:href="#DejaVuSerif-6d" transform="translate(325.785156 0)"/>
       <use xlink:href="#DejaVuSerif-20" transform="translate(420.609375 0)"/>
       <use xlink:href="#DejaVuSerif-46" transform="translate(452.396484 0)"/>
       <use xlink:href="#DejaVuSerif-6f" transform="translate(516.28125 0)"/>
       <use xlink:href="#DejaVuSerif-72" transform="translate(576.486328 0)"/>
       <use xlink:href="#DejaVuSerif-65" transform="translate(624.289062 0)"/>
       <use xlink:href="#DejaVuSerif-73" transform="translate(683.46875 0)"/>
       <use xlink:href="#DejaVuSerif-74" transform="translate(734.787109 0)"/>
      </g>
     </g>
    </g>
    <g id="xtick_7">
     <g id="line2d_29">
      <path d="M 601.684096 326.648429 
L 601.684096 32.837812 
" clip-path="url(#p4010b97400)" style="fill: none; stroke: #cccccc; stroke-width: 0.8; stroke-linecap: round"/>
     </g>
     <g id="line2d_30"/>
     <g id="text_22">
      <!-- XGBoost -->
      <g style="fill: #262626" transform="translate(585.507702 373.631519) rotate(-45) scale(0.12 -0.12)">
       <use xlink:href="#DejaVuSerif-58"/>
       <use xlink:href="#DejaVuSerif-47" transform="translate(71.191406 0)"/>
       <use xlink:href="#DejaVuSerif-42" transform="translate(151.074219 0)"/>
       <use xlink:href="#DejaVuSerif-6f" transform="translate(224.560547 0)"/>
       <use xlink:href="#DejaVuSerif-6f" transform="translate(284.765625 0)"/>
       <use xlink:href="#DejaVuSerif-73" transform="translate(344.970703 0)"/>
       <use xlink:href="#DejaVuSerif-74" transform="translate(396.289062 0)"/>
      </g>
     </g>
    </g>
    <g id="xtick_8">
     <g id="line2d_31">
      <path d="M 672.05102 326.648429 
L 672.05102 32.837812 
" clip-path="url(#p4010b97400)" style="fill: none; stroke: #cccccc; stroke-width: 0.8; stroke-linecap: round"/>
     </g>
     <g id="line2d_32"/>
     <g id="text_23">
      <!-- LightGBM -->
      <g style="fill: #262626" transform="translate(652.153035 380.954052) rotate(-45) scale(0.12 -0.12)">
       <use xlink:href="#DejaVuSerif-4c"/>
       <use xlink:href="#DejaVuSerif-69" transform="translate(66.40625 0)"/>
       <use xlink:href="#DejaVuSerif-67" transform="translate(98.388672 0)"/>
       <use xlink:href="#DejaVuSerif-68" transform="translate(162.402344 0)"/>
       <use xlink:href="#DejaVuSerif-74" transform="translate(226.806641 0)"/>
       <use xlink:href="#DejaVuSerif-47" transform="translate(266.992188 0)"/>
       <use xlink:href="#DejaVuSerif-42" transform="translate(346.875 0)"/>
       <use xlink:href="#DejaVuSerif-4d" transform="translate(420.361328 0)"/>
      </g>
     </g>
    </g>
    <g id="xtick_9">
     <g id="line2d_33">
      <path d="M 742.417945 326.648429 
L 742.417945 32.837812 
" clip-path="url(#p4010b97400)" style="fill: none; stroke: #cccccc; stroke-width: 0.8; stroke-linecap: round"/>
     </g>
     <g id="line2d_34"/>
     <g id="text_24">
      <!-- Gradient Boosting -->
      <g style="fill: #262626" transform="translate(705.468522 415.056928) rotate(-45) scale(0.12 -0.12)">
       <use xlink:href="#DejaVuSerif-47"/>
       <use xlink:href="#DejaVuSerif-72" transform="translate(79.882812 0)"/>
       <use xlink:href="#DejaVuSerif-61" transform="translate(127.685547 0)"/>
       <use xlink:href="#DejaVuSerif-64" transform="translate(187.304688 0)"/>
       <use xlink:href="#DejaVuSerif-69" transform="translate(251.318359 0)"/>
       <use xlink:href="#DejaVuSerif-65" transform="translate(283.300781 0)"/>
       <use xlink:href="#DejaVuSerif-6e" transform="translate(342.480469 0)"/>
       <use xlink:href="#DejaVuSerif-74" transform="translate(406.884766 0)"/>
       <use xlink:href="#DejaVuSerif-20" transform="translate(447.070312 0)"/>
       <use xlink:href="#DejaVuSerif-42" transform="translate(478.857422 0)"/>
       <use xlink:href="#DejaVuSerif-6f" transform="translate(552.34375 0)"/>
       <use xlink:href="#DejaVuSerif-6f" transform="translate(612.548828 0)"/>
       <use xlink:href="#DejaVuSerif-73" transform="translate(672.753906 0)"/>
       <use xlink:href="#DejaVuSerif-74" transform="translate(724.072266 0)"/>
       <use xlink:href="#DejaVuSerif-69" transform="translate(764.257812 0)"/>
       <use xlink:href="#DejaVuSerif-6e" transform="translate(796.240234 0)"/>
       <use xlink:href="#DejaVuSerif-67" transform="translate(860.644531 0)"/>
      </g>
     </g>
    </g>
    <g id="xtick_10">
     <g id="line2d_35">
      <path d="M 812.784869 326.648429 
L 812.784869 32.837812 
" clip-path="url(#p4010b97400)" style="fill: none; stroke: #cccccc; stroke-width: 0.8; stroke-linecap: round"/>
     </g>
     <g id="line2d_36"/>
     <g id="text_25">
      <!-- Deep Neural Network -->
      <g style="fill: #262626" transform="translate(767.706812 431.434847) rotate(-45) scale(0.12 -0.12)">
       <use xlink:href="#DejaVuSerif-44"/>
       <use xlink:href="#DejaVuSerif-65" transform="translate(80.175781 0)"/>
       <use xlink:href="#DejaVuSerif-65" transform="translate(139.355469 0)"/>
       <use xlink:href="#DejaVuSerif-70" transform="translate(198.535156 0)"/>
       <use xlink:href="#DejaVuSerif-20" transform="translate(262.548828 0)"/>
       <use xlink:href="#DejaVuSerif-4e" transform="translate(294.335938 0)"/>
       <use xlink:href="#DejaVuSerif-65" transform="translate(381.835938 0)"/>
       <use xlink:href="#DejaVuSerif-75" transform="translate(441.015625 0)"/>
       <use xlink:href="#DejaVuSerif-72" transform="translate(505.419922 0)"/>
       <use xlink:href="#DejaVuSerif-61" transform="translate(553.222656 0)"/>
       <use xlink:href="#DejaVuSerif-6c" transform="translate(612.841797 0)"/>
       <use xlink:href="#DejaVuSerif-20" transform="translate(644.824219 0)"/>
       <use xlink:href="#DejaVuSerif-4e" transform="translate(676.611328 0)"/>
       <use xlink:href="#DejaVuSerif-65" transform="translate(764.111328 0)"/>
       <use xlink:href="#DejaVuSerif-74" transform="translate(823.291016 0)"/>
       <use xlink:href="#DejaVuSerif-77" transform="translate(863.476562 0)"/>
       <use xlink:href="#DejaVuSerif-6f" transform="translate(949.072266 0)"/>
       <use xlink:href="#DejaVuSerif-72" transform="translate(1009.277344 0)"/>
       <use xlink:href="#DejaVuSerif-6b" transform="translate(1057.080078 0)"/>
      </g>
     </g>
    </g>
   </g>
   <g id="matplotlib.axis_4">
    <g id="ytick_9">
     <g id="line2d_37">
      <path d="M 486.28234 326.648429 
L 857.8197 326.648429 
" clip-path="url(#p4010b97400)" style="fill: none; stroke: #cccccc; stroke-opacity: 0.3; stroke-width: 0.8; stroke-linecap: round"/>
     </g>
     <g id="line2d_38"/>
     <g id="text_26">
      <!-- 0 -->
      <g style="fill: #262626" transform="translate(475.14734 331.207492) scale(0.12 -0.12)">
       <use xlink:href="#DejaVuSerif-30"/>
      </g>
     </g>
    </g>
    <g id="ytick_10">
     <g id="line2d_39">
      <path d="M 486.28234 289.797 
L 857.8197 289.797 
" clip-path="url(#p4010b97400)" style="fill: none; stroke: #cccccc; stroke-opacity: 0.3; stroke-width: 0.8; stroke-linecap: round"/>
     </g>
     <g id="line2d_40"/>
     <g id="text_27">
      <!-- 5 -->
      <g style="fill: #262626" transform="translate(475.14734 294.356063) scale(0.12 -0.12)">
       <use xlink:href="#DejaVuSerif-35"/>
      </g>
     </g>
    </g>
    <g id="ytick_11">
     <g id="line2d_41">
      <path d="M 486.28234 252.945571 
L 857.8197 252.945571 
" clip-path="url(#p4010b97400)" style="fill: none; stroke: #cccccc; stroke-opacity: 0.3; stroke-width: 0.8; stroke-linecap: round"/>
     </g>
     <g id="line2d_42"/>
     <g id="text_28">
      <!-- 10 -->
      <g style="fill: #262626" transform="translate(467.51234 257.504634) scale(0.12 -0.12)">
       <use xlink:href="#DejaVuSerif-31"/>
       <use xlink:href="#DejaVuSerif-30" transform="translate(63.623047 0)"/>
      </g>
     </g>
    </g>
    <g id="ytick_12">
     <g id="line2d_43">
      <path d="M 486.28234 216.094142 
L 857.8197 216.094142 
" clip-path="url(#p4010b97400)" style="fill: none; stroke: #cccccc; stroke-opacity: 0.3; stroke-width: 0.8; stroke-linecap: round"/>
     </g>
     <g id="line2d_44"/>
     <g id="text_29">
      <!-- 15 -->
      <g style="fill: #262626" transform="translate(467.51234 220.653205) scale(0.12 -0.12)">
       <use xlink:href="#DejaVuSerif-31"/>
       <use xlink:href="#DejaVuSerif-35" transform="translate(63.623047 0)"/>
      </g>
     </g>
    </g>
    <g id="ytick_13">
     <g id="line2d_45">
      <path d="M 486.28234 179.242713 
L 857.8197 179.242713 
" clip-path="url(#p4010b97400)" style="fill: none; stroke: #cccccc; stroke-opacity: 0.3; stroke-width: 0.8; stroke-linecap: round"/>
     </g>
     <g id="line2d_46"/>
     <g id="text_30">
      <!-- 20 -->
      <g style="fill: #262626" transform="translate(467.51234 183.801776) scale(0.12 -0.12)">
       <use xlink:href="#DejaVuSerif-32"/>
       <use xlink:href="#DejaVuSerif-30" transform="translate(63.623047 0)"/>
      </g>
     </g>
    </g>
    <g id="ytick_14">
     <g id="line2d_47">
      <path d="M 486.28234 142.391284 
L 857.8197 142.391284 
" clip-path="url(#p4010b97400)" style="fill: none; stroke: #cccccc; stroke-opacity: 0.3; stroke-width: 0.8; stroke-linecap: round"/>
     </g>
     <g id="line2d_48"/>
     <g id="text_31">
      <!-- 25 -->
      <g style="fill: #262626" transform="translate(467.51234 146.950347) scale(0.12 -0.12)">
       <use xlink:href="#DejaVuSerif-32"/>
       <use xlink:href="#DejaVuSerif-35" transform="translate(63.623047 0)"/>
      </g>
     </g>
    </g>
    <g id="ytick_15">
     <g id="line2d_49">
      <path d="M 486.28234 105.539855 
L 857.8197 105.539855 
" clip-path="url(#p4010b97400)" style="fill: none; stroke: #cccccc; stroke-opacity: 0.3; stroke-width: 0.8; stroke-linecap: round"/>
     </g>
     <g id="line2d_50"/>
     <g id="text_32">
      <!-- 30 -->
      <g style="fill: #262626" transform="translate(467.51234 110.098918) scale(0.12 -0.12)">
       <use xlink:href="#DejaVuSerif-33"/>
       <use xlink:href="#DejaVuSerif-30" transform="translate(63.623047 0)"/>
      </g>
     </g>
    </g>
    <g id="ytick_16">
     <g id="line2d_51">
      <path d="M 486.28234 68.688426 
L 857.8197 68.688426 
" clip-path="url(#p4010b97400)" style="fill: none; stroke: #cccccc; stroke-opacity: 0.3; stroke-width: 0.8; stroke-linecap: round"/>
     </g>
     <g id="line2d_52"/>
     <g id="text_33">
      <!-- 35 -->
      <g style="fill: #262626" transform="translate(467.51234 73.247489) scale(0.12 -0.12)">
       <use xlink:href="#DejaVuSerif-33"/>
       <use xlink:href="#DejaVuSerif-35" transform="translate(63.623047 0)"/>
      </g>
     </g>
    </g>
    <g id="text_34">
     <!-- MAE -->
     <g style="fill: #262626" transform="translate(453.016715 194.599683) rotate(-90) scale(0.12 -0.12)">
      <defs>
       <path id="DejaVuSerif-41" d="M 1281 1691 
L 2994 1691 
L 2138 3909 
L 1281 1691 
z
M -38 0 
L -38 331 
L 372 331 
L 2034 4666 
L 2559 4666 
L 4225 331 
L 4684 331 
L 4684 0 
L 2988 0 
L 2988 331 
L 3506 331 
L 3116 1356 
L 1153 1356 
L 763 331 
L 1275 331 
L 1275 0 
L -38 0 
z
" transform="scale(0.015625)"/>
      </defs>
      <use xlink:href="#DejaVuSerif-4d"/>
      <use xlink:href="#DejaVuSerif-41" transform="translate(102.392578 0)"/>
      <use xlink:href="#DejaVuSerif-45" transform="translate(174.609375 0)"/>
     </g>
    </g>
   </g>
   <g id="patch_13">
    <path d="M 503.170402 326.648429 
L 559.463941 326.648429 
L 559.463941 114.358586 
L 503.170402 114.358586 
z
" clip-path="url(#p4010b97400)" style="fill: #2e86ab; opacity: 0.8"/>
   </g>
   <g id="patch_14">
    <path d="M 573.537326 326.648429 
L 629.830866 326.648429 
L 629.830866 107.127025 
L 573.537326 107.127025 
z
" clip-path="url(#p4010b97400)" style="fill: #a23b72; opacity: 0.8"/>
   </g>
   <g id="patch_15">
    <path d="M 643.90425 326.648429 
L 700.19779 326.648429 
L 700.19779 102.838416 
L 643.90425 102.838416 
z
" clip-path="url(#p4010b97400)" style="fill: #f18f01; opacity: 0.8"/>
   </g>
   <g id="patch_16">
    <path d="M 714.271175 326.648429 
L 770.564714 326.648429 
L 770.564714 95.034867 
L 714.271175 95.034867 
z
" clip-path="url(#p4010b97400)" style="fill: #c73e1d; opacity: 0.8"/>
   </g>
   <g id="patch_17">
    <path d="M 784.638099 326.648429 
L 840.931639 326.648429 
L 840.931639 46.828794 
L 784.638099 46.828794 
z
" clip-path="url(#p4010b97400)" style="fill: #4e6e58; opacity: 0.8"/>
   </g>
   <g id="patch_18">
    <path d="M 486.28234 326.648429 
L 486.28234 32.837812 
" style="fill: none; stroke: #000000; stroke-width: 0.8; stroke-linejoin: miter; stroke-linecap: square"/>
   </g>
   <g id="patch_19">
    <path d="M 857.8197 326.648429 
L 857.8197 32.837812 
" style="fill: none; stroke: #000000; stroke-width: 0.8; stroke-linejoin: miter; stroke-linecap: square"/>
   </g>
   <g id="patch_20">
    <path d="M 486.28234 326.648429 
L 857.8197 326.648429 
" style="fill: none; stroke: #000000; stroke-width: 0.8; stroke-linejoin: miter; stroke-linecap: square"/>
   </g>
   <g id="patch_21">
    <path d="M 486.28234 32.837812 
L 857.8197 32.837812 
" style="fill: none; stroke: #000000; stroke-width: 0.8; stroke-linejoin: miter; stroke-linecap: square"/>
   </g>
   <g id="text_35">
    <!-- 28.803 -->
    <g style="fill: #262626" transform="translate(513.821859 110.156) scale(0.1 -0.1)">
     <use xlink:href="#DejaVuSerif-32"/>
     <use xlink:href="#DejaVuSerif-38" transform="translate(63.623047 0)"/>
     <use xlink:href="#DejaVuSerif-2e" transform="translate(127.246094 0)"/>
     <use xlink:href="#DejaVuSerif-38" transform="translate(159.033203 0)"/>
     <use xlink:href="#DejaVuSerif-30" transform="translate(222.65625 0)"/>
     <use xlink:href="#DejaVuSerif-33" transform="translate(286.279297 0)"/>
    </g>
   </g>
   <g id="text_36">
    <!-- 29.785 -->
    <g style="fill: #262626" transform="translate(584.188783 102.852124) scale(0.1 -0.1)">
     <use xlink:href="#DejaVuSerif-32"/>
     <use xlink:href="#DejaVuSerif-39" transform="translate(63.623047 0)"/>
     <use xlink:href="#DejaVuSerif-2e" transform="translate(127.246094 0)"/>
     <use xlink:href="#DejaVuSerif-37" transform="translate(159.033203 0)"/>
     <use xlink:href="#DejaVuSerif-38" transform="translate(222.65625 0)"/>
     <use xlink:href="#DejaVuSerif-35" transform="translate(286.279297 0)"/>
    </g>
   </g>
   <g id="text_37">
    <!-- 30.367 -->
    <g style="fill: #262626" transform="translate(654.555708 98.520628) scale(0.1 -0.1)">
     <use xlink:href="#DejaVuSerif-33"/>
     <use xlink:href="#DejaVuSerif-30" transform="translate(63.623047 0)"/>
     <use xlink:href="#DejaVuSerif-2e" transform="translate(127.246094 0)"/>
     <use xlink:href="#DejaVuSerif-33" transform="translate(159.033203 0)"/>
     <use xlink:href="#DejaVuSerif-36" transform="translate(222.65625 0)"/>
     <use xlink:href="#DejaVuSerif-37" transform="translate(286.279297 0)"/>
    </g>
   </g>
   <g id="text_38">
    <!-- 31.425 -->
    <g style="fill: #262626" transform="translate(724.922632 90.639043) scale(0.1 -0.1)">
     <use xlink:href="#DejaVuSerif-33"/>
     <use xlink:href="#DejaVuSerif-31" transform="translate(63.623047 0)"/>
     <use xlink:href="#DejaVuSerif-2e" transform="translate(127.246094 0)"/>
     <use xlink:href="#DejaVuSerif-34" transform="translate(159.033203 0)"/>
     <use xlink:href="#DejaVuSerif-32" transform="translate(222.65625 0)"/>
     <use xlink:href="#DejaVuSerif-35" transform="translate(286.279297 0)"/>
    </g>
   </g>
   <g id="text_39">
    <!-- 37.966 -->
    <g style="fill: #262626" transform="translate(795.289556 41.95091) scale(0.1 -0.1)">
     <use xlink:href="#DejaVuSerif-33"/>
     <use xlink:href="#DejaVuSerif-37" transform="translate(63.623047 0)"/>
     <use xlink:href="#DejaVuSerif-2e" transform="translate(127.246094 0)"/>
     <use xlink:href="#DejaVuSerif-39" transform="translate(159.033203 0)"/>
     <use xlink:href="#DejaVuSerif-36" transform="translate(222.65625 0)"/>
     <use xlink:href="#DejaVuSerif-36" transform="translate(286.279297 0)"/>
    </g>
   </g>
   <g id="text_40">
    <!-- Model Performance: MAE -->
    <g style="fill: #262626" transform="translate(571.314458 17.837812) scale(0.14 -0.14)">
     <defs>
      <path id="DejaVuSerif-Bold-41" d="M -50 0 
L -50 378 
L 331 378 
L 2088 4666 
L 2834 4666 
L 4594 378 
L 5038 378 
L 5038 0 
L 2853 0 
L 2853 378 
L 3309 378 
L 2925 1331 
L 1172 1331 
L 781 378 
L 1338 378 
L 1338 0 
L -50 0 
z
M 1325 1709 
L 2772 1709 
L 2053 3494 
L 1325 1709 
z
" transform="scale(0.015625)"/>
     </defs>
     <use xlink:href="#DejaVuSerif-Bold-4d"/>
     <use xlink:href="#DejaVuSerif-Bold-6f" transform="translate(110.693359 0)"/>
     <use xlink:href="#DejaVuSerif-Bold-64" transform="translate(177.392578 0)"/>
     <use xlink:href="#DejaVuSerif-Bold-65" transform="translate(247.314453 0)"/>
     <use xlink:href="#DejaVuSerif-Bold-6c" transform="translate(310.9375 0)"/>
     <use xlink:href="#DejaVuSerif-Bold-20" transform="translate(348.925781 0)"/>
     <use xlink:href="#DejaVuSerif-Bold-50" transform="translate(383.740234 0)"/>
     <use xlink:href="#DejaVuSerif-Bold-65" transform="translate(456.310547 0)"/>
     <use xlink:href="#DejaVuSerif-Bold-72" transform="translate(519.933594 0)"/>
     <use xlink:href="#DejaVuSerif-Bold-66" transform="translate(572.619141 0)"/>
     <use xlink:href="#DejaVuSerif-Bold-6f" transform="translate(615.636719 0)"/>
     <use xlink:href="#DejaVuSerif-Bold-72" transform="translate(682.335938 0)"/>
     <use xlink:href="#DejaVuSerif-Bold-6d" transform="translate(735.021484 0)"/>
     <use xlink:href="#DejaVuSerif-Bold-61" transform="translate(840.832031 0)"/>
     <use xlink:href="#DejaVuSerif-Bold-6e" transform="translate(905.626953 0)"/>
     <use xlink:href="#DejaVuSerif-Bold-63" transform="translate(978.332031 0)"/>
     <use xlink:href="#DejaVuSerif-Bold-65" transform="translate(1039.220703 0)"/>
     <use xlink:href="#DejaVuSerif-Bold-3a" transform="translate(1102.84375 0)"/>
     <use xlink:href="#DejaVuSerif-Bold-20" transform="translate(1139.757812 0)"/>
     <use xlink:href="#DejaVuSerif-Bold-4d" transform="translate(1174.572266 0)"/>
     <use xlink:href="#DejaVuSerif-Bold-41" transform="translate(1285.265625 0)"/>
     <use xlink:href="#DejaVuSerif-Bold-45" transform="translate(1362.853516 0)"/>
    </g>
   </g>
  </g>
  <g id="axes_3">
   <g id="patch_22">
    <path d="M 919.15968 326.648429 
L 1290.69704 326.648429 
L 1290.69704 32.837812 
L 919.15968 32.837812 
L 919.15968 326.648429 
z
" style="fill: none"/>
   </g>
   <g id="matplotlib.axis_5">
    <g id="xtick_11">
     <g id="line2d_53">
      <path d="M 964.194512 326.648429 
L 964.194512 32.837812 
" clip-path="url(#p6f54e9b1a8)" style="fill: none; stroke: #cccccc; stroke-width: 0.8; stroke-linecap: round"/>
     </g>
     <g id="line2d_54"/>
     <g id="text_41">
      <!-- Random Forest -->
      <g style="fill: #262626" transform="translate(933.656116 402.355522) rotate(-45) scale(0.12 -0.12)">
       <use xlink:href="#DejaVuSerif-52"/>
       <use xlink:href="#DejaVuSerif-61" transform="translate(77.542969 0)"/>
       <use xlink:href="#DejaVuSerif-6e" transform="translate(137.162109 0)"/>
       <use xlink:href="#DejaVuSerif-64" transform="translate(201.566406 0)"/>
       <use xlink:href="#DejaVuSerif-6f" transform="translate(265.580078 0)"/>
       <use xlink:href="#DejaVuSerif-6d" transform="translate(325.785156 0)"/>
       <use xlink:href="#DejaVuSerif-20" transform="translate(420.609375 0)"/>
       <use xlink:href="#DejaVuSerif-46" transform="translate(452.396484 0)"/>
       <use xlink:href="#DejaVuSerif-6f" transform="translate(516.28125 0)"/>
       <use xlink:href="#DejaVuSerif-72" transform="translate(576.486328 0)"/>
       <use xlink:href="#DejaVuSerif-65" transform="translate(624.289062 0)"/>
       <use xlink:href="#DejaVuSerif-73" transform="translate(683.46875 0)"/>
       <use xlink:href="#DejaVuSerif-74" transform="translate(734.787109 0)"/>
      </g>
     </g>
    </g>
    <g id="xtick_12">
     <g id="line2d_55">
      <path d="M 1034.561436 326.648429 
L 1034.561436 32.837812 
" clip-path="url(#p6f54e9b1a8)" style="fill: none; stroke: #cccccc; stroke-width: 0.8; stroke-linecap: round"/>
     </g>
     <g id="line2d_56"/>
     <g id="text_42">
      <!-- XGBoost -->
      <g style="fill: #262626" transform="translate(1018.385042 373.631519) rotate(-45) scale(0.12 -0.12)">
       <use xlink:href="#DejaVuSerif-58"/>
       <use xlink:href="#DejaVuSerif-47" transform="translate(71.191406 0)"/>
       <use xlink:href="#DejaVuSerif-42" transform="translate(151.074219 0)"/>
       <use xlink:href="#DejaVuSerif-6f" transform="translate(224.560547 0)"/>
       <use xlink:href="#DejaVuSerif-6f" transform="translate(284.765625 0)"/>
       <use xlink:href="#DejaVuSerif-73" transform="translate(344.970703 0)"/>
       <use xlink:href="#DejaVuSerif-74" transform="translate(396.289062 0)"/>
      </g>
     </g>
    </g>
    <g id="xtick_13">
     <g id="line2d_57">
      <path d="M 1104.92836 326.648429 
L 1104.92836 32.837812 
" clip-path="url(#p6f54e9b1a8)" style="fill: none; stroke: #cccccc; stroke-width: 0.8; stroke-linecap: round"/>
     </g>
     <g id="line2d_58"/>
     <g id="text_43">
      <!-- LightGBM -->
      <g style="fill: #262626" transform="translate(1085.030375 380.954052) rotate(-45) scale(0.12 -0.12)">
       <use xlink:href="#DejaVuSerif-4c"/>
       <use xlink:href="#DejaVuSerif-69" transform="translate(66.40625 0)"/>
       <use xlink:href="#DejaVuSerif-67" transform="translate(98.388672 0)"/>
       <use xlink:href="#DejaVuSerif-68" transform="translate(162.402344 0)"/>
       <use xlink:href="#DejaVuSerif-74" transform="translate(226.806641 0)"/>
       <use xlink:href="#DejaVuSerif-47" transform="translate(266.992188 0)"/>
       <use xlink:href="#DejaVuSerif-42" transform="translate(346.875 0)"/>
       <use xlink:href="#DejaVuSerif-4d" transform="translate(420.361328 0)"/>
      </g>
     </g>
    </g>
    <g id="xtick_14">
     <g id="line2d_59">
      <path d="M 1175.295285 326.648429 
L 1175.295285 32.837812 
" clip-path="url(#p6f54e9b1a8)" style="fill: none; stroke: #cccccc; stroke-width: 0.8; stroke-linecap: round"/>
     </g>
     <g id="line2d_60"/>
     <g id="text_44">
      <!-- Gradient Boosting -->
      <g style="fill: #262626" transform="translate(1138.345862 415.056928) rotate(-45) scale(0.12 -0.12)">
       <use xlink:href="#DejaVuSerif-47"/>
       <use xlink:href="#DejaVuSerif-72" transform="translate(79.882812 0)"/>
       <use xlink:href="#DejaVuSerif-61" transform="translate(127.685547 0)"/>
       <use xlink:href="#DejaVuSerif-64" transform="translate(187.304688 0)"/>
       <use xlink:href="#DejaVuSerif-69" transform="translate(251.318359 0)"/>
       <use xlink:href="#DejaVuSerif-65" transform="translate(283.300781 0)"/>
       <use xlink:href="#DejaVuSerif-6e" transform="translate(342.480469 0)"/>
       <use xlink:href="#DejaVuSerif-74" transform="translate(406.884766 0)"/>
       <use xlink:href="#DejaVuSerif-20" transform="translate(447.070312 0)"/>
       <use xlink:href="#DejaVuSerif-42" transform="translate(478.857422 0)"/>
       <use xlink:href="#DejaVuSerif-6f" transform="translate(552.34375 0)"/>
       <use xlink:href="#DejaVuSerif-6f" transform="translate(612.548828 0)"/>
       <use xlink:href="#DejaVuSerif-73" transform="translate(672.753906 0)"/>
       <use xlink:href="#DejaVuSerif-74" transform="translate(724.072266 0)"/>
       <use xlink:href="#DejaVuSerif-69" transform="translate(764.257812 0)"/>
       <use xlink:href="#DejaVuSerif-6e" transform="translate(796.240234 0)"/>
       <use xlink:href="#DejaVuSerif-67" transform="translate(860.644531 0)"/>
      </g>
     </g>
    </g>
    <g id="xtick_15">
     <g id="line2d_61">
      <path d="M 1245.662209 326.648429 
L 1245.662209 32.837812 
" clip-path="url(#p6f54e9b1a8)" style="fill: none; stroke: #cccccc; stroke-width: 0.8; stroke-linecap: round"/>
     </g>
     <g id="line2d_62"/>
     <g id="text_45">
      <!-- Deep Neural Network -->
      <g style="fill: #262626" transform="translate(1200.584152 431.434847) rotate(-45) scale(0.12 -0.12)">
       <use xlink:href="#DejaVuSerif-44"/>
       <use xlink:href="#DejaVuSerif-65" transform="translate(80.175781 0)"/>
       <use xlink:href="#DejaVuSerif-65" transform="translate(139.355469 0)"/>
       <use xlink:href="#DejaVuSerif-70" transform="translate(198.535156 0)"/>
       <use xlink:href="#DejaVuSerif-20" transform="translate(262.548828 0)"/>
       <use xlink:href="#DejaVuSerif-4e" transform="translate(294.335938 0)"/>
       <use xlink:href="#DejaVuSerif-65" transform="translate(381.835938 0)"/>
       <use xlink:href="#DejaVuSerif-75" transform="translate(441.015625 0)"/>
       <use xlink:href="#DejaVuSerif-72" transform="translate(505.419922 0)"/>
       <use xlink:href="#DejaVuSerif-61" transform="translate(553.222656 0)"/>
       <use xlink:href="#DejaVuSerif-6c" transform="translate(612.841797 0)"/>
       <use xlink:href="#DejaVuSerif-20" transform="translate(644.824219 0)"/>
       <use xlink:href="#DejaVuSerif-4e" transform="translate(676.611328 0)"/>
       <use xlink:href="#DejaVuSerif-65" transform="translate(764.111328 0)"/>
       <use xlink:href="#DejaVuSerif-74" transform="translate(823.291016 0)"/>
       <use xlink:href="#DejaVuSerif-77" transform="translate(863.476562 0)"/>
       <use xlink:href="#DejaVuSerif-6f" transform="translate(949.072266 0)"/>
       <use xlink:href="#DejaVuSerif-72" transform="translate(1009.277344 0)"/>
       <use xlink:href="#DejaVuSerif-6b" transform="translate(1057.080078 0)"/>
      </g>
     </g>
    </g>
   </g>
   <g id="matplotlib.axis_6">
    <g id="ytick_17">
     <g id="line2d_63">
      <path d="M 919.15968 326.648429 
L 1290.69704 326.648429 
" clip-path="url(#p6f54e9b1a8)" style="fill: none; stroke: #cccccc; stroke-opacity: 0.3; stroke-width: 0.8; stroke-linecap: round"/>
     </g>
     <g id="line2d_64"/>
     <g id="text_46">
      <!-- 0.0 -->
      <g style="fill: #262626" transform="translate(896.57593 331.207492) scale(0.12 -0.12)">
       <use xlink:href="#DejaVuSerif-30"/>
       <use xlink:href="#DejaVuSerif-2e" transform="translate(63.623047 0)"/>
       <use xlink:href="#DejaVuSerif-30" transform="translate(95.410156 0)"/>
      </g>
     </g>
    </g>
    <g id="ytick_18">
     <g id="line2d_65">
      <path d="M 919.15968 267.886306 
L 1290.69704 267.886306 
" clip-path="url(#p6f54e9b1a8)" style="fill: none; stroke: #cccccc; stroke-opacity: 0.3; stroke-width: 0.8; stroke-linecap: round"/>
     </g>
     <g id="line2d_66"/>
     <g id="text_47">
      <!-- 0.2 -->
      <g style="fill: #262626" transform="translate(896.57593 272.445368) scale(0.12 -0.12)">
       <use xlink:href="#DejaVuSerif-30"/>
       <use xlink:href="#DejaVuSerif-2e" transform="translate(63.623047 0)"/>
       <use xlink:href="#DejaVuSerif-32" transform="translate(95.410156 0)"/>
      </g>
     </g>
    </g>
    <g id="ytick_19">
     <g id="line2d_67">
      <path d="M 919.15968 209.124183 
L 1290.69704 209.124183 
" clip-path="url(#p6f54e9b1a8)" style="fill: none; stroke: #cccccc; stroke-opacity: 0.3; stroke-width: 0.8; stroke-linecap: round"/>
     </g>
     <g id="line2d_68"/>
     <g id="text_48">
      <!-- 0.4 -->
      <g style="fill: #262626" transform="translate(896.57593 213.683245) scale(0.12 -0.12)">
       <use xlink:href="#DejaVuSerif-30"/>
       <use xlink:href="#DejaVuSerif-2e" transform="translate(63.623047 0)"/>
       <use xlink:href="#DejaVuSerif-34" transform="translate(95.410156 0)"/>
      </g>
     </g>
    </g>
    <g id="ytick_20">
     <g id="line2d_69">
      <path d="M 919.15968 150.362059 
L 1290.69704 150.362059 
" clip-path="url(#p6f54e9b1a8)" style="fill: none; stroke: #cccccc; stroke-opacity: 0.3; stroke-width: 0.8; stroke-linecap: round"/>
     </g>
     <g id="line2d_70"/>
     <g id="text_49">
      <!-- 0.6 -->
      <g style="fill: #262626" transform="translate(896.57593 154.921122) scale(0.12 -0.12)">
       <use xlink:href="#DejaVuSerif-30"/>
       <use xlink:href="#DejaVuSerif-2e" transform="translate(63.623047 0)"/>
       <use xlink:href="#DejaVuSerif-36" transform="translate(95.410156 0)"/>
      </g>
     </g>
    </g>
    <g id="ytick_21">
     <g id="line2d_71">
      <path d="M 919.15968 91.599936 
L 1290.69704 91.599936 
" clip-path="url(#p6f54e9b1a8)" style="fill: none; stroke: #cccccc; stroke-opacity: 0.3; stroke-width: 0.8; stroke-linecap: round"/>
     </g>
     <g id="line2d_72"/>
     <g id="text_50">
      <!-- 0.8 -->
      <g style="fill: #262626" transform="translate(896.57593 96.158998) scale(0.12 -0.12)">
       <use xlink:href="#DejaVuSerif-30"/>
       <use xlink:href="#DejaVuSerif-2e" transform="translate(63.623047 0)"/>
       <use xlink:href="#DejaVuSerif-38" transform="translate(95.410156 0)"/>
      </g>
     </g>
    </g>
    <g id="ytick_22">
     <g id="line2d_73">
      <path d="M 919.15968 32.837812 
L 1290.69704 32.837812 
" clip-path="url(#p6f54e9b1a8)" style="fill: none; stroke: #cccccc; stroke-opacity: 0.3; stroke-width: 0.8; stroke-linecap: round"/>
     </g>
     <g id="line2d_74"/>
     <g id="text_51">
      <!-- 1.0 -->
      <g style="fill: #262626" transform="translate(896.57593 37.396875) scale(0.12 -0.12)">
       <use xlink:href="#DejaVuSerif-31"/>
       <use xlink:href="#DejaVuSerif-2e" transform="translate(63.623047 0)"/>
       <use xlink:href="#DejaVuSerif-30" transform="translate(95.410156 0)"/>
      </g>
     </g>
    </g>
    <g id="text_52">
     <!-- R Score -->
     <g style="fill: #262626" transform="translate(882.080305 206.074683) rotate(-90) scale(0.12 -0.12)">
      <defs>
       <path id="DejaVuSerif-b2" d="M 531 4050 
L 313 4050 
L 313 4544 
Q 519 4644 737 4697 
Q 956 4750 1172 4750 
Q 1603 4750 1870 4544 
Q 2138 4338 2138 4013 
Q 2138 3631 1531 3088 
L 1472 3034 
L 728 2363 
L 1931 2363 
L 1931 2700 
L 2163 2700 
L 2163 2088 
L 281 2088 
L 281 2322 
L 1172 3116 
Q 1441 3356 1556 3547 
Q 1672 3738 1672 3944 
Q 1672 4209 1520 4364 
Q 1369 4519 1106 4519 
Q 863 4519 716 4400 
Q 569 4281 531 4050 
z
" transform="scale(0.015625)"/>
       <path id="DejaVuSerif-63" d="M 3291 997 
Q 3169 466 2822 187 
Q 2475 -91 1925 -91 
Q 1200 -91 759 389 
Q 319 869 319 1663 
Q 319 2459 759 2936 
Q 1200 3413 1925 3413 
Q 2241 3413 2553 3339 
Q 2866 3266 3181 3116 
L 3181 2266 
L 2847 2266 
Q 2781 2703 2561 2903 
Q 2341 3103 1931 3103 
Q 1466 3103 1228 2742 
Q 991 2381 991 1663 
Q 991 944 1227 581 
Q 1463 219 1931 219 
Q 2303 219 2525 412 
Q 2747 606 2828 997 
L 3291 997 
z
" transform="scale(0.015625)"/>
      </defs>
      <use xlink:href="#DejaVuSerif-52"/>
      <use xlink:href="#DejaVuSerif-b2" transform="translate(75.292969 0)"/>
      <use xlink:href="#DejaVuSerif-20" transform="translate(115.380859 0)"/>
      <use xlink:href="#DejaVuSerif-53" transform="translate(147.167969 0)"/>
      <use xlink:href="#DejaVuSerif-63" transform="translate(215.673828 0)"/>
      <use xlink:href="#DejaVuSerif-6f" transform="translate(271.679688 0)"/>
      <use xlink:href="#DejaVuSerif-72" transform="translate(331.884766 0)"/>
      <use xlink:href="#DejaVuSerif-65" transform="translate(379.6875 0)"/>
     </g>
    </g>
   </g>
   <g id="patch_23">
    <path d="M 936.047742 326.648429 
L 992.341281 326.648429 
L 992.341281 39.148831 
L 936.047742 39.148831 
z
" clip-path="url(#p6f54e9b1a8)" style="fill: #2e86ab; opacity: 0.8"/>
   </g>
   <g id="patch_24">
    <path d="M 1006.414666 326.648429 
L 1062.708206 326.648429 
L 1062.708206 39.545294 
L 1006.414666 39.545294 
z
" clip-path="url(#p6f54e9b1a8)" style="fill: #a23b72; opacity: 0.8"/>
   </g>
   <g id="patch_25">
    <path d="M 1076.78159 326.648429 
L 1133.07513 326.648429 
L 1133.07513 40.469446 
L 1076.78159 40.469446 
z
" clip-path="url(#p6f54e9b1a8)" style="fill: #f18f01; opacity: 0.8"/>
   </g>
   <g id="patch_26">
    <path d="M 1147.148515 326.648429 
L 1203.442054 326.648429 
L 1203.442054 45.095648 
L 1147.148515 45.095648 
z
" clip-path="url(#p6f54e9b1a8)" style="fill: #c73e1d; opacity: 0.8"/>
   </g>
   <g id="patch_27">
    <path d="M 1217.515439 326.648429 
L 1273.808979 326.648429 
L 1273.808979 46.704418 
L 1217.515439 46.704418 
z
" clip-path="url(#p6f54e9b1a8)" style="fill: #4e6e58; opacity: 0.8"/>
   </g>
   <g id="patch_28">
    <path d="M 919.15968 326.648429 
L 919.15968 32.837812 
" style="fill: none; stroke: #000000; stroke-width: 0.8; stroke-linejoin: miter; stroke-linecap: square"/>
   </g>
   <g id="patch_29">
    <path d="M 1290.69704 326.648429 
L 1290.69704 32.837812 
" style="fill: none; stroke: #000000; stroke-width: 0.8; stroke-linejoin: miter; stroke-linecap: square"/>
   </g>
   <g id="patch_30">
    <path d="M 919.15968 326.648429 
L 1290.69704 326.648429 
" style="fill: none; stroke: #000000; stroke-width: 0.8; stroke-linejoin: miter; stroke-linecap: square"/>
   </g>
   <g id="patch_31">
    <path d="M 919.15968 32.837812 
L 1290.69704 32.837812 
" style="fill: none; stroke: #000000; stroke-width: 0.8; stroke-linejoin: miter; stroke-linecap: square"/>
   </g>
   <g id="text_53">
    <!-- 0.979 -->
    <g style="fill: #262626" transform="translate(949.880449 34.194148) scale(0.1 -0.1)">
     <use xlink:href="#DejaVuSerif-30"/>
     <use xlink:href="#DejaVuSerif-2e" transform="translate(63.623047 0)"/>
     <use xlink:href="#DejaVuSerif-39" transform="translate(95.410156 0)"/>
     <use xlink:href="#DejaVuSerif-37" transform="translate(159.033203 0)"/>
     <use xlink:href="#DejaVuSerif-39" transform="translate(222.65625 0)"/>
    </g>
   </g>
   <g id="text_54">
    <!-- 0.977 -->
    <g style="fill: #262626" transform="translate(1020.247373 34.594575) scale(0.1 -0.1)">
     <use xlink:href="#DejaVuSerif-30"/>
     <use xlink:href="#DejaVuSerif-2e" transform="translate(63.623047 0)"/>
     <use xlink:href="#DejaVuSerif-39" transform="translate(95.410156 0)"/>
     <use xlink:href="#DejaVuSerif-37" transform="translate(159.033203 0)"/>
     <use xlink:href="#DejaVuSerif-37" transform="translate(222.65625 0)"/>
    </g>
   </g>
   <g id="text_55">
    <!-- 0.974 -->
    <g style="fill: #262626" transform="translate(1090.614298 35.527969) scale(0.1 -0.1)">
     <use xlink:href="#DejaVuSerif-30"/>
     <use xlink:href="#DejaVuSerif-2e" transform="translate(63.623047 0)"/>
     <use xlink:href="#DejaVuSerif-39" transform="translate(95.410156 0)"/>
     <use xlink:href="#DejaVuSerif-37" transform="translate(159.033203 0)"/>
     <use xlink:href="#DejaVuSerif-34" transform="translate(222.65625 0)"/>
    </g>
   </g>
   <g id="text_56">
    <!-- 0.958 -->
    <g style="fill: #262626" transform="translate(1160.981222 40.200432) scale(0.1 -0.1)">
     <use xlink:href="#DejaVuSerif-30"/>
     <use xlink:href="#DejaVuSerif-2e" transform="translate(63.623047 0)"/>
     <use xlink:href="#DejaVuSerif-39" transform="translate(95.410156 0)"/>
     <use xlink:href="#DejaVuSerif-35" transform="translate(159.033203 0)"/>
     <use xlink:href="#DejaVuSerif-38" transform="translate(222.65625 0)"/>
    </g>
   </g>
   <g id="text_57">
    <!-- 0.953 -->
    <g style="fill: #262626" transform="translate(1231.348146 41.82529) scale(0.1 -0.1)">
     <use xlink:href="#DejaVuSerif-30"/>
     <use xlink:href="#DejaVuSerif-2e" transform="translate(63.623047 0)"/>
     <use xlink:href="#DejaVuSerif-39" transform="translate(95.410156 0)"/>
     <use xlink:href="#DejaVuSerif-35" transform="translate(159.033203 0)"/>
     <use xlink:href="#DejaVuSerif-33" transform="translate(222.65625 0)"/>
    </g>
   </g>
   <g id="text_58">
    <!-- Model Performance: R Score -->
    <g style="fill: #262626" transform="translate(989.257735 17.837812) scale(0.14 -0.14)">
     <defs>
      <path id="DejaVuSerif-Bold-b2" d="M 588 4013 
L 294 4013 
L 294 4622 
Q 519 4684 755 4717 
Q 991 4750 1241 4750 
Q 1806 4750 2118 4550 
Q 2431 4350 2431 3994 
Q 2431 3738 2261 3536 
Q 2091 3334 1600 3053 
L 838 2619 
L 2131 2619 
L 2131 2919 
L 2444 2919 
L 2444 2138 
L 269 2138 
L 269 2553 
L 672 2816 
Q 1256 3200 1412 3419 
Q 1569 3638 1569 3928 
Q 1569 4191 1439 4339 
Q 1309 4488 1081 4488 
Q 884 4488 748 4358 
Q 613 4228 588 4013 
z
" transform="scale(0.015625)"/>
     </defs>
     <use xlink:href="#DejaVuSerif-Bold-4d"/>
     <use xlink:href="#DejaVuSerif-Bold-6f" transform="translate(110.693359 0)"/>
     <use xlink:href="#DejaVuSerif-Bold-64" transform="translate(177.392578 0)"/>
     <use xlink:href="#DejaVuSerif-Bold-65" transform="translate(247.314453 0)"/>
     <use xlink:href="#DejaVuSerif-Bold-6c" transform="translate(310.9375 0)"/>
     <use xlink:href="#DejaVuSerif-Bold-20" transform="translate(348.925781 0)"/>
     <use xlink:href="#DejaVuSerif-Bold-50" transform="translate(383.740234 0)"/>
     <use xlink:href="#DejaVuSerif-Bold-65" transform="translate(456.310547 0)"/>
     <use xlink:href="#DejaVuSerif-Bold-72" transform="translate(519.933594 0)"/>
     <use xlink:href="#DejaVuSerif-Bold-66" transform="translate(572.619141 0)"/>
     <use xlink:href="#DejaVuSerif-Bold-6f" transform="translate(615.636719 0)"/>
     <use xlink:href="#DejaVuSerif-Bold-72" transform="translate(682.335938 0)"/>
     <use xlink:href="#DejaVuSerif-Bold-6d" transform="translate(735.021484 0)"/>
     <use xlink:href="#DejaVuSerif-Bold-61" transform="translate(840.832031 0)"/>
     <use xlink:href="#DejaVuSerif-Bold-6e" transform="translate(905.626953 0)"/>
     <use xlink:href="#DejaVuSerif-Bold-63" transform="translate(978.332031 0)"/>
     <use xlink:href="#DejaVuSerif-Bold-65" transform="translate(1039.220703 0)"/>
     <use xlink:href="#DejaVuSerif-Bold-3a" transform="translate(1102.84375 0)"/>
     <use xlink:href="#DejaVuSerif-Bold-20" transform="translate(1139.757812 0)"/>
     <use xlink:href="#DejaVuSerif-Bold-52" transform="translate(1174.572266 0)"/>
     <use xlink:href="#DejaVuSerif-Bold-b2" transform="translate(1257.677734 0)"/>
     <use xlink:href="#DejaVuSerif-Bold-20" transform="translate(1301.476562 0)"/>
     <use xlink:href="#DejaVuSerif-Bold-53" transform="translate(1336.291016 0)"/>
     <use xlink:href="#DejaVuSerif-Bold-63" transform="translate(1408.507812 0)"/>
     <use xlink:href="#DejaVuSerif-Bold-6f" transform="translate(1469.396484 0)"/>
     <use xlink:href="#DejaVuSerif-Bold-72" transform="translate(1536.095703 0)"/>
     <use xlink:href="#DejaVuSerif-Bold-65" transform="translate(1588.78125 0)"/>
    </g>
   </g>
  </g>
 </g>
 <defs>
  <clipPath id="p5442582627">
   <rect x="57.21875" y="32.837812" width="371.53736" height="293.810617"/>
  </clipPath>
  <clipPath id="p4010b97400">
   <rect x="486.28234" y="32.837812" width="371.53736" height="293.810617"/>
  </clipPath>
  <clipPath id="p6f54e9b1a8">
   <rect x="919.15968" y="32.837812" width="371.53736" height="293.810617"/>
  </clipPath>
 </defs>
</svg>
