<?xml version="1.0" encoding="utf-8" standalone="no"?>
<!DOCTYPE svg PUBLIC "-//W3C//DTD SVG 1.1//EN"
  "http://www.w3.org/Graphics/SVG/1.1/DTD/svg11.dtd">
<svg xmlns:xlink="http://www.w3.org/1999/xlink" width="713.13625pt" height="568.503125pt" viewBox="0 0 713.13625 568.503125" xmlns="http://www.w3.org/2000/svg" version="1.1">
 <metadata>
  <rdf:RDF xmlns:dc="http://purl.org/dc/elements/1.1/" xmlns:cc="http://creativecommons.org/ns#" xmlns:rdf="http://www.w3.org/1999/02/22-rdf-syntax-ns#">
   <cc:Work>
    <dc:type rdf:resource="http://purl.org/dc/dcmitype/StillImage"/>
    <dc:date>2025-08-27T14:51:21.183495</dc:date>
    <dc:format>image/svg+xml</dc:format>
    <dc:creator>
     <cc:Agent>
      <dc:title>Matplotlib v3.10.3, https://matplotlib.org/</dc:title>
     </cc:Agent>
    </dc:creator>
   </cc:Work>
  </rdf:RDF>
 </metadata>
 <defs>
  <style type="text/css">*{stroke-linejoin: round; stroke-linecap: butt}</style>
 </defs>
 <g id="figure_1">
  <g id="patch_1">
   <path d="M -0 568.503125 
L 713.13625 568.503125 
L 713.13625 0 
L -0 0 
L -0 568.503125 
z
" style="fill: none"/>
  </g>
  <g id="axes_1">
   <g id="patch_2">
    <path d="M 39.78625 533.295 
L 705.93625 533.295 
L 705.93625 24.795 
L 39.78625 24.795 
L 39.78625 533.295 
z
" style="fill: none"/>
   </g>
   <g id="matplotlib.axis_1">
    <g id="xtick_1">
     <g id="line2d_1">
      <path d="M 70.065795 533.295 
L 70.065795 24.795 
" clip-path="url(#pca815818fe)" style="fill: none; stroke: #cccccc; stroke-width: 0.8; stroke-linecap: round"/>
     </g>
     <g id="line2d_2"/>
     <g id="text_1">
      <!-- 0.0 -->
      <g style="fill: #262626" transform="translate(63.115795 544.041875) scale(0.1 -0.1)">
       <defs>
        <path id="LiberationSans-30" d="M 3309 2203 
Q 3309 1100 2920 518 
Q 2531 -63 1772 -63 
Q 1013 -63 631 515 
Q 250 1094 250 2203 
Q 250 3338 620 3903 
Q 991 4469 1791 4469 
Q 2569 4469 2939 3897 
Q 3309 3325 3309 2203 
z
M 2738 2203 
Q 2738 3156 2517 3584 
Q 2297 4013 1791 4013 
Q 1272 4013 1045 3591 
Q 819 3169 819 2203 
Q 819 1266 1048 831 
Q 1278 397 1778 397 
Q 2275 397 2506 840 
Q 2738 1284 2738 2203 
z
" transform="scale(0.015625)"/>
        <path id="LiberationSans-2e" d="M 584 0 
L 584 684 
L 1194 684 
L 1194 0 
L 584 0 
z
" transform="scale(0.015625)"/>
       </defs>
       <use xlink:href="#LiberationSans-30"/>
       <use xlink:href="#LiberationSans-2e" transform="translate(55.615234 0)"/>
       <use xlink:href="#LiberationSans-30" transform="translate(83.398438 0)"/>
      </g>
     </g>
    </g>
    <g id="xtick_2">
     <g id="line2d_3">
      <path d="M 191.183977 533.295 
L 191.183977 24.795 
" clip-path="url(#pca815818fe)" style="fill: none; stroke: #cccccc; stroke-width: 0.8; stroke-linecap: round"/>
     </g>
     <g id="line2d_4"/>
     <g id="text_2">
      <!-- 0.2 -->
      <g style="fill: #262626" transform="translate(184.233977 544.041875) scale(0.1 -0.1)">
       <defs>
        <path id="LiberationSans-32" d="M 322 0 
L 322 397 
Q 481 763 711 1042 
Q 941 1322 1194 1548 
Q 1447 1775 1695 1969 
Q 1944 2163 2144 2356 
Q 2344 2550 2467 2762 
Q 2591 2975 2591 3244 
Q 2591 3606 2378 3806 
Q 2166 4006 1788 4006 
Q 1428 4006 1195 3811 
Q 963 3616 922 3263 
L 347 3316 
Q 409 3844 795 4156 
Q 1181 4469 1788 4469 
Q 2453 4469 2811 4155 
Q 3169 3841 3169 3263 
Q 3169 3006 3051 2753 
Q 2934 2500 2703 2247 
Q 2472 1994 1819 1463 
Q 1459 1169 1246 933 
Q 1034 697 941 478 
L 3238 478 
L 3238 0 
L 322 0 
z
" transform="scale(0.015625)"/>
       </defs>
       <use xlink:href="#LiberationSans-30"/>
       <use xlink:href="#LiberationSans-2e" transform="translate(55.615234 0)"/>
       <use xlink:href="#LiberationSans-32" transform="translate(83.398438 0)"/>
      </g>
     </g>
    </g>
    <g id="xtick_3">
     <g id="line2d_5">
      <path d="M 312.302159 533.295 
L 312.302159 24.795 
" clip-path="url(#pca815818fe)" style="fill: none; stroke: #cccccc; stroke-width: 0.8; stroke-linecap: round"/>
     </g>
     <g id="line2d_6"/>
     <g id="text_3">
      <!-- 0.4 -->
      <g style="fill: #262626" transform="translate(305.352159 544.041875) scale(0.1 -0.1)">
       <defs>
        <path id="LiberationSans-34" d="M 2753 997 
L 2753 0 
L 2222 0 
L 2222 997 
L 147 997 
L 147 1434 
L 2163 4403 
L 2753 4403 
L 2753 1441 
L 3372 1441 
L 3372 997 
L 2753 997 
z
M 2222 3769 
Q 2216 3750 2134 3603 
Q 2053 3456 2013 3397 
L 884 1734 
L 716 1503 
L 666 1441 
L 2222 1441 
L 2222 3769 
z
" transform="scale(0.015625)"/>
       </defs>
       <use xlink:href="#LiberationSans-30"/>
       <use xlink:href="#LiberationSans-2e" transform="translate(55.615234 0)"/>
       <use xlink:href="#LiberationSans-34" transform="translate(83.398438 0)"/>
      </g>
     </g>
    </g>
    <g id="xtick_4">
     <g id="line2d_7">
      <path d="M 433.420341 533.295 
L 433.420341 24.795 
" clip-path="url(#pca815818fe)" style="fill: none; stroke: #cccccc; stroke-width: 0.8; stroke-linecap: round"/>
     </g>
     <g id="line2d_8"/>
     <g id="text_4">
      <!-- 0.6 -->
      <g style="fill: #262626" transform="translate(426.470341 544.041875) scale(0.1 -0.1)">
       <defs>
        <path id="LiberationSans-36" d="M 3278 1441 
Q 3278 744 2900 340 
Q 2522 -63 1856 -63 
Q 1113 -63 719 490 
Q 325 1044 325 2100 
Q 325 3244 734 3856 
Q 1144 4469 1900 4469 
Q 2897 4469 3156 3572 
L 2619 3475 
Q 2453 4013 1894 4013 
Q 1413 4013 1148 3564 
Q 884 3116 884 2266 
Q 1038 2550 1316 2698 
Q 1594 2847 1953 2847 
Q 2563 2847 2920 2465 
Q 3278 2084 3278 1441 
z
M 2706 1416 
Q 2706 1894 2472 2153 
Q 2238 2413 1819 2413 
Q 1425 2413 1183 2183 
Q 941 1953 941 1550 
Q 941 1041 1192 716 
Q 1444 391 1838 391 
Q 2244 391 2475 664 
Q 2706 938 2706 1416 
z
" transform="scale(0.015625)"/>
       </defs>
       <use xlink:href="#LiberationSans-30"/>
       <use xlink:href="#LiberationSans-2e" transform="translate(55.615234 0)"/>
       <use xlink:href="#LiberationSans-36" transform="translate(83.398438 0)"/>
      </g>
     </g>
    </g>
    <g id="xtick_5">
     <g id="line2d_9">
      <path d="M 554.538523 533.295 
L 554.538523 24.795 
" clip-path="url(#pca815818fe)" style="fill: none; stroke: #cccccc; stroke-width: 0.8; stroke-linecap: round"/>
     </g>
     <g id="line2d_10"/>
     <g id="text_5">
      <!-- 0.8 -->
      <g style="fill: #262626" transform="translate(547.588523 544.041875) scale(0.1 -0.1)">
       <defs>
        <path id="LiberationSans-38" d="M 3281 1228 
Q 3281 619 2893 278 
Q 2506 -63 1781 -63 
Q 1075 -63 676 271 
Q 278 606 278 1222 
Q 278 1653 525 1947 
Q 772 2241 1156 2303 
L 1156 2316 
Q 797 2400 589 2681 
Q 381 2963 381 3341 
Q 381 3844 757 4156 
Q 1134 4469 1769 4469 
Q 2419 4469 2795 4162 
Q 3172 3856 3172 3334 
Q 3172 2956 2962 2675 
Q 2753 2394 2391 2322 
L 2391 2309 
Q 2813 2241 3047 1952 
Q 3281 1663 3281 1228 
z
M 2588 3303 
Q 2588 4050 1769 4050 
Q 1372 4050 1164 3862 
Q 956 3675 956 3303 
Q 956 2925 1170 2726 
Q 1384 2528 1775 2528 
Q 2172 2528 2380 2711 
Q 2588 2894 2588 3303 
z
M 2697 1281 
Q 2697 1691 2453 1898 
Q 2209 2106 1769 2106 
Q 1341 2106 1100 1882 
Q 859 1659 859 1269 
Q 859 359 1788 359 
Q 2247 359 2472 579 
Q 2697 800 2697 1281 
z
" transform="scale(0.015625)"/>
       </defs>
       <use xlink:href="#LiberationSans-30"/>
       <use xlink:href="#LiberationSans-2e" transform="translate(55.615234 0)"/>
       <use xlink:href="#LiberationSans-38" transform="translate(83.398438 0)"/>
      </g>
     </g>
    </g>
    <g id="xtick_6">
     <g id="line2d_11">
      <path d="M 675.656705 533.295 
L 675.656705 24.795 
" clip-path="url(#pca815818fe)" style="fill: none; stroke: #cccccc; stroke-width: 0.8; stroke-linecap: round"/>
     </g>
     <g id="line2d_12"/>
     <g id="text_6">
      <!-- 1.0 -->
      <g style="fill: #262626" transform="translate(668.706705 544.041875) scale(0.1 -0.1)">
       <defs>
        <path id="LiberationSans-31" d="M 488 0 
L 488 478 
L 1609 478 
L 1609 3866 
L 616 3156 
L 616 3688 
L 1656 4403 
L 2175 4403 
L 2175 478 
L 3247 478 
L 3247 0 
L 488 0 
z
" transform="scale(0.015625)"/>
       </defs>
       <use xlink:href="#LiberationSans-31"/>
       <use xlink:href="#LiberationSans-2e" transform="translate(55.615234 0)"/>
       <use xlink:href="#LiberationSans-30" transform="translate(83.398438 0)"/>
      </g>
     </g>
    </g>
    <g id="text_7">
     <!-- False Positive Rate (1 - Specificity) -->
     <g style="fill: #262626" transform="translate(279.835938 558.813125) scale(0.12 -0.12)">
      <defs>
       <path id="LiberationSans-46" d="M 1122 3916 
L 1122 2278 
L 3578 2278 
L 3578 1784 
L 1122 1784 
L 1122 0 
L 525 0 
L 525 4403 
L 3653 4403 
L 3653 3916 
L 1122 3916 
z
" transform="scale(0.015625)"/>
       <path id="LiberationSans-61" d="M 1294 -63 
Q 784 -63 528 206 
Q 272 475 272 944 
Q 272 1469 617 1750 
Q 963 2031 1731 2050 
L 2491 2063 
L 2491 2247 
Q 2491 2659 2316 2837 
Q 2141 3016 1766 3016 
Q 1388 3016 1216 2887 
Q 1044 2759 1009 2478 
L 422 2531 
Q 566 3444 1778 3444 
Q 2416 3444 2737 3151 
Q 3059 2859 3059 2306 
L 3059 850 
Q 3059 600 3125 473 
Q 3191 347 3375 347 
Q 3456 347 3559 369 
L 3559 19 
Q 3347 -31 3125 -31 
Q 2813 -31 2670 133 
Q 2528 297 2509 647 
L 2491 647 
Q 2275 259 1989 98 
Q 1703 -63 1294 -63 
z
M 1422 359 
Q 1731 359 1972 500 
Q 2213 641 2352 886 
Q 2491 1131 2491 1391 
L 2491 1669 
L 1875 1656 
Q 1478 1650 1273 1575 
Q 1069 1500 959 1344 
Q 850 1188 850 934 
Q 850 659 998 509 
Q 1147 359 1422 359 
z
" transform="scale(0.015625)"/>
       <path id="LiberationSans-6c" d="M 431 0 
L 431 4638 
L 994 4638 
L 994 0 
L 431 0 
z
" transform="scale(0.015625)"/>
       <path id="LiberationSans-73" d="M 2969 934 
Q 2969 456 2608 196 
Q 2247 -63 1597 -63 
Q 966 -63 623 145 
Q 281 353 178 794 
L 675 891 
Q 747 619 972 492 
Q 1197 366 1597 366 
Q 2025 366 2223 497 
Q 2422 628 2422 891 
Q 2422 1091 2284 1216 
Q 2147 1341 1841 1422 
L 1438 1528 
Q 953 1653 748 1773 
Q 544 1894 428 2066 
Q 313 2238 313 2488 
Q 313 2950 642 3192 
Q 972 3434 1603 3434 
Q 2163 3434 2492 3237 
Q 2822 3041 2909 2606 
L 2403 2544 
Q 2356 2769 2151 2889 
Q 1947 3009 1603 3009 
Q 1222 3009 1040 2893 
Q 859 2778 859 2544 
Q 859 2400 934 2306 
Q 1009 2213 1156 2147 
Q 1303 2081 1775 1966 
Q 2222 1853 2419 1758 
Q 2616 1663 2730 1547 
Q 2844 1431 2906 1279 
Q 2969 1128 2969 934 
z
" transform="scale(0.015625)"/>
       <path id="LiberationSans-65" d="M 863 1572 
Q 863 991 1103 675 
Q 1344 359 1806 359 
Q 2172 359 2392 506 
Q 2613 653 2691 878 
L 3184 738 
Q 2881 -63 1806 -63 
Q 1056 -63 664 384 
Q 272 831 272 1713 
Q 272 2550 664 2997 
Q 1056 3444 1784 3444 
Q 3275 3444 3275 1647 
L 3275 1572 
L 863 1572 
z
M 2694 2003 
Q 2647 2538 2422 2783 
Q 2197 3028 1775 3028 
Q 1366 3028 1127 2754 
Q 888 2481 869 2003 
L 2694 2003 
z
" transform="scale(0.015625)"/>
       <path id="LiberationSans-20" transform="scale(0.015625)"/>
       <path id="LiberationSans-50" d="M 3931 3078 
Q 3931 2453 3523 2084 
Q 3116 1716 2416 1716 
L 1122 1716 
L 1122 0 
L 525 0 
L 525 4403 
L 2378 4403 
Q 3119 4403 3525 4056 
Q 3931 3709 3931 3078 
z
M 3331 3072 
Q 3331 3925 2306 3925 
L 1122 3925 
L 1122 2188 
L 2331 2188 
Q 3331 2188 3331 3072 
z
" transform="scale(0.015625)"/>
       <path id="LiberationSans-6f" d="M 3291 1694 
Q 3291 806 2900 371 
Q 2509 -63 1766 -63 
Q 1025 -63 647 389 
Q 269 841 269 1694 
Q 269 3444 1784 3444 
Q 2559 3444 2925 3017 
Q 3291 2591 3291 1694 
z
M 2700 1694 
Q 2700 2394 2492 2711 
Q 2284 3028 1794 3028 
Q 1300 3028 1079 2704 
Q 859 2381 859 1694 
Q 859 1025 1076 689 
Q 1294 353 1759 353 
Q 2266 353 2483 678 
Q 2700 1003 2700 1694 
z
" transform="scale(0.015625)"/>
       <path id="LiberationSans-69" d="M 428 4100 
L 428 4638 
L 991 4638 
L 991 4100 
L 428 4100 
z
M 428 0 
L 428 3381 
L 991 3381 
L 991 0 
L 428 0 
z
" transform="scale(0.015625)"/>
       <path id="LiberationSans-74" d="M 1731 25 
Q 1453 -50 1163 -50 
Q 488 -50 488 716 
L 488 2972 
L 97 2972 
L 97 3381 
L 509 3381 
L 675 4138 
L 1050 4138 
L 1050 3381 
L 1675 3381 
L 1675 2972 
L 1050 2972 
L 1050 838 
Q 1050 594 1129 495 
Q 1209 397 1406 397 
Q 1519 397 1731 441 
L 1731 25 
z
" transform="scale(0.015625)"/>
       <path id="LiberationSans-76" d="M 1916 0 
L 1250 0 
L 22 3381 
L 622 3381 
L 1366 1181 
Q 1406 1056 1581 441 
L 1691 806 
L 1813 1175 
L 2581 3381 
L 3178 3381 
L 1916 0 
z
" transform="scale(0.015625)"/>
       <path id="LiberationSans-52" d="M 3638 0 
L 2494 1828 
L 1122 1828 
L 1122 0 
L 525 0 
L 525 4403 
L 2597 4403 
Q 3341 4403 3745 4070 
Q 4150 3738 4150 3144 
Q 4150 2653 3864 2318 
Q 3578 1984 3075 1897 
L 4325 0 
L 3638 0 
z
M 3550 3138 
Q 3550 3522 3289 3723 
Q 3028 3925 2538 3925 
L 1122 3925 
L 1122 2300 
L 2563 2300 
Q 3034 2300 3292 2520 
Q 3550 2741 3550 3138 
z
" transform="scale(0.015625)"/>
       <path id="LiberationSans-28" d="M 397 1663 
Q 397 2566 680 3284 
Q 963 4003 1550 4638 
L 2094 4638 
Q 1509 3988 1236 3256 
Q 963 2525 963 1656 
Q 963 791 1233 62 
Q 1503 -666 2094 -1325 
L 1550 -1325 
Q 959 -688 678 32 
Q 397 753 397 1650 
L 397 1663 
z
" transform="scale(0.015625)"/>
       <path id="LiberationSans-2d" d="M 284 1450 
L 284 1950 
L 1847 1950 
L 1847 1450 
L 284 1450 
z
" transform="scale(0.015625)"/>
       <path id="LiberationSans-53" d="M 3975 1216 
Q 3975 606 3498 271 
Q 3022 -63 2156 -63 
Q 547 -63 291 1056 
L 869 1172 
Q 969 775 1294 589 
Q 1619 403 2178 403 
Q 2756 403 3070 601 
Q 3384 800 3384 1184 
Q 3384 1400 3286 1534 
Q 3188 1669 3009 1756 
Q 2831 1844 2584 1903 
Q 2338 1963 2038 2031 
Q 1516 2147 1245 2262 
Q 975 2378 819 2520 
Q 663 2663 580 2853 
Q 497 3044 497 3291 
Q 497 3856 930 4162 
Q 1363 4469 2169 4469 
Q 2919 4469 3316 4239 
Q 3713 4009 3872 3456 
L 3284 3353 
Q 3188 3703 2916 3861 
Q 2644 4019 2163 4019 
Q 1634 4019 1356 3844 
Q 1078 3669 1078 3322 
Q 1078 3119 1186 2986 
Q 1294 2853 1497 2761 
Q 1700 2669 2306 2534 
Q 2509 2488 2711 2439 
Q 2913 2391 3097 2323 
Q 3281 2256 3442 2165 
Q 3603 2075 3722 1944 
Q 3841 1813 3908 1634 
Q 3975 1456 3975 1216 
z
" transform="scale(0.015625)"/>
       <path id="LiberationSans-70" d="M 3291 1706 
Q 3291 -63 2047 -63 
Q 1266 -63 997 525 
L 981 525 
Q 994 500 994 -6 
L 994 -1328 
L 431 -1328 
L 431 2691 
Q 431 3213 413 3381 
L 956 3381 
Q 959 3369 965 3292 
Q 972 3216 980 3056 
Q 988 2897 988 2838 
L 1000 2838 
Q 1150 3150 1397 3295 
Q 1644 3441 2047 3441 
Q 2672 3441 2981 3022 
Q 3291 2603 3291 1706 
z
M 2700 1694 
Q 2700 2400 2509 2703 
Q 2319 3006 1903 3006 
Q 1569 3006 1380 2865 
Q 1191 2725 1092 2426 
Q 994 2128 994 1650 
Q 994 984 1206 668 
Q 1419 353 1897 353 
Q 2316 353 2508 661 
Q 2700 969 2700 1694 
z
" transform="scale(0.015625)"/>
       <path id="LiberationSans-63" d="M 859 1706 
Q 859 1031 1071 706 
Q 1284 381 1713 381 
Q 2013 381 2214 543 
Q 2416 706 2463 1044 
L 3031 1006 
Q 2966 519 2616 228 
Q 2266 -63 1728 -63 
Q 1019 -63 645 385 
Q 272 834 272 1694 
Q 272 2547 647 2995 
Q 1022 3444 1722 3444 
Q 2241 3444 2583 3175 
Q 2925 2906 3013 2434 
L 2434 2391 
Q 2391 2672 2212 2837 
Q 2034 3003 1706 3003 
Q 1259 3003 1059 2706 
Q 859 2409 859 1706 
z
" transform="scale(0.015625)"/>
       <path id="LiberationSans-66" d="M 1128 2972 
L 1128 0 
L 566 0 
L 566 2972 
L 91 2972 
L 91 3381 
L 566 3381 
L 566 3763 
Q 566 4225 769 4428 
Q 972 4631 1391 4631 
Q 1625 4631 1788 4594 
L 1788 4166 
Q 1647 4191 1538 4191 
Q 1322 4191 1225 4081 
Q 1128 3972 1128 3684 
L 1128 3381 
L 1788 3381 
L 1788 2972 
L 1128 2972 
z
" transform="scale(0.015625)"/>
       <path id="LiberationSans-79" d="M 597 -1328 
Q 366 -1328 209 -1294 
L 209 -872 
Q 328 -891 472 -891 
Q 997 -891 1303 -119 
L 1356 16 
L 16 3381 
L 616 3381 
L 1328 1513 
Q 1344 1469 1366 1408 
Q 1388 1347 1506 1000 
Q 1625 653 1634 613 
L 1853 1228 
L 2594 3381 
L 3188 3381 
L 1888 0 
Q 1678 -541 1497 -805 
Q 1316 -1069 1095 -1198 
Q 875 -1328 597 -1328 
z
" transform="scale(0.015625)"/>
       <path id="LiberationSans-29" d="M 1734 1650 
Q 1734 747 1451 28 
Q 1169 -691 581 -1325 
L 38 -1325 
Q 625 -669 897 57 
Q 1169 784 1169 1656 
Q 1169 2528 895 3256 
Q 622 3984 38 4638 
L 581 4638 
Q 1172 4000 1453 3279 
Q 1734 2559 1734 1663 
L 1734 1650 
z
" transform="scale(0.015625)"/>
      </defs>
      <use xlink:href="#LiberationSans-46"/>
      <use xlink:href="#LiberationSans-61" transform="translate(61.083984 0)"/>
      <use xlink:href="#LiberationSans-6c" transform="translate(116.699219 0)"/>
      <use xlink:href="#LiberationSans-73" transform="translate(138.916016 0)"/>
      <use xlink:href="#LiberationSans-65" transform="translate(188.916016 0)"/>
      <use xlink:href="#LiberationSans-20" transform="translate(244.53125 0)"/>
      <use xlink:href="#LiberationSans-50" transform="translate(272.314453 0)"/>
      <use xlink:href="#LiberationSans-6f" transform="translate(339.013672 0)"/>
      <use xlink:href="#LiberationSans-73" transform="translate(394.628906 0)"/>
      <use xlink:href="#LiberationSans-69" transform="translate(444.628906 0)"/>
      <use xlink:href="#LiberationSans-74" transform="translate(466.845703 0)"/>
      <use xlink:href="#LiberationSans-69" transform="translate(494.628906 0)"/>
      <use xlink:href="#LiberationSans-76" transform="translate(516.845703 0)"/>
      <use xlink:href="#LiberationSans-65" transform="translate(566.845703 0)"/>
      <use xlink:href="#LiberationSans-20" transform="translate(622.460938 0)"/>
      <use xlink:href="#LiberationSans-52" transform="translate(650.244141 0)"/>
      <use xlink:href="#LiberationSans-61" transform="translate(722.460938 0)"/>
      <use xlink:href="#LiberationSans-74" transform="translate(778.076172 0)"/>
      <use xlink:href="#LiberationSans-65" transform="translate(805.859375 0)"/>
      <use xlink:href="#LiberationSans-20" transform="translate(861.474609 0)"/>
      <use xlink:href="#LiberationSans-28" transform="translate(889.257812 0)"/>
      <use xlink:href="#LiberationSans-31" transform="translate(922.558594 0)"/>
      <use xlink:href="#LiberationSans-20" transform="translate(978.173828 0)"/>
      <use xlink:href="#LiberationSans-2d" transform="translate(1005.957031 0)"/>
      <use xlink:href="#LiberationSans-20" transform="translate(1039.257812 0)"/>
      <use xlink:href="#LiberationSans-53" transform="translate(1067.041016 0)"/>
      <use xlink:href="#LiberationSans-70" transform="translate(1133.740234 0)"/>
      <use xlink:href="#LiberationSans-65" transform="translate(1189.355469 0)"/>
      <use xlink:href="#LiberationSans-63" transform="translate(1244.970703 0)"/>
      <use xlink:href="#LiberationSans-69" transform="translate(1294.970703 0)"/>
      <use xlink:href="#LiberationSans-66" transform="translate(1317.1875 0)"/>
      <use xlink:href="#LiberationSans-69" transform="translate(1344.970703 0)"/>
      <use xlink:href="#LiberationSans-63" transform="translate(1367.1875 0)"/>
      <use xlink:href="#LiberationSans-69" transform="translate(1417.1875 0)"/>
      <use xlink:href="#LiberationSans-74" transform="translate(1439.404297 0)"/>
      <use xlink:href="#LiberationSans-79" transform="translate(1467.1875 0)"/>
      <use xlink:href="#LiberationSans-29" transform="translate(1517.1875 0)"/>
     </g>
    </g>
   </g>
   <g id="matplotlib.axis_2">
    <g id="ytick_1">
     <g id="line2d_13">
      <path d="M 39.78625 510.181364 
L 705.93625 510.181364 
" clip-path="url(#pca815818fe)" style="fill: none; stroke: #cccccc; stroke-width: 0.8; stroke-linecap: round"/>
     </g>
     <g id="line2d_14"/>
     <g id="text_8">
      <!-- 0.0 -->
      <g style="fill: #262626" transform="translate(22.38625 513.804801) scale(0.1 -0.1)">
       <use xlink:href="#LiberationSans-30"/>
       <use xlink:href="#LiberationSans-2e" transform="translate(55.615234 0)"/>
       <use xlink:href="#LiberationSans-30" transform="translate(83.398438 0)"/>
      </g>
     </g>
    </g>
    <g id="ytick_2">
     <g id="line2d_15">
      <path d="M 39.78625 417.726818 
L 705.93625 417.726818 
" clip-path="url(#pca815818fe)" style="fill: none; stroke: #cccccc; stroke-width: 0.8; stroke-linecap: round"/>
     </g>
     <g id="line2d_16"/>
     <g id="text_9">
      <!-- 0.2 -->
      <g style="fill: #262626" transform="translate(22.38625 421.350256) scale(0.1 -0.1)">
       <use xlink:href="#LiberationSans-30"/>
       <use xlink:href="#LiberationSans-2e" transform="translate(55.615234 0)"/>
       <use xlink:href="#LiberationSans-32" transform="translate(83.398438 0)"/>
      </g>
     </g>
    </g>
    <g id="ytick_3">
     <g id="line2d_17">
      <path d="M 39.78625 325.272273 
L 705.93625 325.272273 
" clip-path="url(#pca815818fe)" style="fill: none; stroke: #cccccc; stroke-width: 0.8; stroke-linecap: round"/>
     </g>
     <g id="line2d_18"/>
     <g id="text_10">
      <!-- 0.4 -->
      <g style="fill: #262626" transform="translate(22.38625 328.89571) scale(0.1 -0.1)">
       <use xlink:href="#LiberationSans-30"/>
       <use xlink:href="#LiberationSans-2e" transform="translate(55.615234 0)"/>
       <use xlink:href="#LiberationSans-34" transform="translate(83.398438 0)"/>
      </g>
     </g>
    </g>
    <g id="ytick_4">
     <g id="line2d_19">
      <path d="M 39.78625 232.817727 
L 705.93625 232.817727 
" clip-path="url(#pca815818fe)" style="fill: none; stroke: #cccccc; stroke-width: 0.8; stroke-linecap: round"/>
     </g>
     <g id="line2d_20"/>
     <g id="text_11">
      <!-- 0.6 -->
      <g style="fill: #262626" transform="translate(22.38625 236.441165) scale(0.1 -0.1)">
       <use xlink:href="#LiberationSans-30"/>
       <use xlink:href="#LiberationSans-2e" transform="translate(55.615234 0)"/>
       <use xlink:href="#LiberationSans-36" transform="translate(83.398438 0)"/>
      </g>
     </g>
    </g>
    <g id="ytick_5">
     <g id="line2d_21">
      <path d="M 39.78625 140.363182 
L 705.93625 140.363182 
" clip-path="url(#pca815818fe)" style="fill: none; stroke: #cccccc; stroke-width: 0.8; stroke-linecap: round"/>
     </g>
     <g id="line2d_22"/>
     <g id="text_12">
      <!-- 0.8 -->
      <g style="fill: #262626" transform="translate(22.38625 143.986619) scale(0.1 -0.1)">
       <use xlink:href="#LiberationSans-30"/>
       <use xlink:href="#LiberationSans-2e" transform="translate(55.615234 0)"/>
       <use xlink:href="#LiberationSans-38" transform="translate(83.398438 0)"/>
      </g>
     </g>
    </g>
    <g id="ytick_6">
     <g id="line2d_23">
      <path d="M 39.78625 47.908636 
L 705.93625 47.908636 
" clip-path="url(#pca815818fe)" style="fill: none; stroke: #cccccc; stroke-width: 0.8; stroke-linecap: round"/>
     </g>
     <g id="line2d_24"/>
     <g id="text_13">
      <!-- 1.0 -->
      <g style="fill: #262626" transform="translate(22.38625 51.532074) scale(0.1 -0.1)">
       <use xlink:href="#LiberationSans-31"/>
       <use xlink:href="#LiberationSans-2e" transform="translate(55.615234 0)"/>
       <use xlink:href="#LiberationSans-30" transform="translate(83.398438 0)"/>
      </g>
     </g>
    </g>
    <g id="text_14">
     <!-- True Positive Rate (Recall) -->
     <g style="fill: #262626" transform="translate(15.89625 350.505937) rotate(-90) scale(0.12 -0.12)">
      <defs>
       <path id="LiberationSans-54" d="M 2250 3916 
L 2250 0 
L 1656 0 
L 1656 3916 
L 144 3916 
L 144 4403 
L 3763 4403 
L 3763 3916 
L 2250 3916 
z
" transform="scale(0.015625)"/>
       <path id="LiberationSans-72" d="M 444 0 
L 444 2594 
Q 444 2950 425 3381 
L 956 3381 
Q 981 2806 981 2691 
L 994 2691 
Q 1128 3125 1303 3284 
Q 1478 3444 1797 3444 
Q 1909 3444 2025 3413 
L 2025 2897 
Q 1913 2928 1725 2928 
Q 1375 2928 1190 2626 
Q 1006 2325 1006 1763 
L 1006 0 
L 444 0 
z
" transform="scale(0.015625)"/>
       <path id="LiberationSans-75" d="M 981 3381 
L 981 1238 
Q 981 903 1047 718 
Q 1113 534 1256 453 
Q 1400 372 1678 372 
Q 2084 372 2318 650 
Q 2553 928 2553 1422 
L 2553 3381 
L 3116 3381 
L 3116 722 
Q 3116 131 3134 0 
L 2603 0 
Q 2600 16 2597 84 
Q 2594 153 2589 242 
Q 2584 331 2578 578 
L 2569 578 
Q 2375 228 2120 82 
Q 1866 -63 1488 -63 
Q 931 -63 673 214 
Q 416 491 416 1128 
L 416 3381 
L 981 3381 
z
" transform="scale(0.015625)"/>
      </defs>
      <use xlink:href="#LiberationSans-54"/>
      <use xlink:href="#LiberationSans-72" transform="translate(57.333984 0)"/>
      <use xlink:href="#LiberationSans-75" transform="translate(90.634766 0)"/>
      <use xlink:href="#LiberationSans-65" transform="translate(146.25 0)"/>
      <use xlink:href="#LiberationSans-20" transform="translate(201.865234 0)"/>
      <use xlink:href="#LiberationSans-50" transform="translate(229.648438 0)"/>
      <use xlink:href="#LiberationSans-6f" transform="translate(296.347656 0)"/>
      <use xlink:href="#LiberationSans-73" transform="translate(351.962891 0)"/>
      <use xlink:href="#LiberationSans-69" transform="translate(401.962891 0)"/>
      <use xlink:href="#LiberationSans-74" transform="translate(424.179688 0)"/>
      <use xlink:href="#LiberationSans-69" transform="translate(451.962891 0)"/>
      <use xlink:href="#LiberationSans-76" transform="translate(474.179688 0)"/>
      <use xlink:href="#LiberationSans-65" transform="translate(524.179688 0)"/>
      <use xlink:href="#LiberationSans-20" transform="translate(579.794922 0)"/>
      <use xlink:href="#LiberationSans-52" transform="translate(607.578125 0)"/>
      <use xlink:href="#LiberationSans-61" transform="translate(679.794922 0)"/>
      <use xlink:href="#LiberationSans-74" transform="translate(735.410156 0)"/>
      <use xlink:href="#LiberationSans-65" transform="translate(763.193359 0)"/>
      <use xlink:href="#LiberationSans-20" transform="translate(818.808594 0)"/>
      <use xlink:href="#LiberationSans-28" transform="translate(846.591797 0)"/>
      <use xlink:href="#LiberationSans-52" transform="translate(879.892578 0)"/>
      <use xlink:href="#LiberationSans-65" transform="translate(952.109375 0)"/>
      <use xlink:href="#LiberationSans-63" transform="translate(1007.724609 0)"/>
      <use xlink:href="#LiberationSans-61" transform="translate(1057.724609 0)"/>
      <use xlink:href="#LiberationSans-6c" transform="translate(1113.339844 0)"/>
      <use xlink:href="#LiberationSans-6c" transform="translate(1135.556641 0)"/>
      <use xlink:href="#LiberationSans-29" transform="translate(1157.773438 0)"/>
     </g>
    </g>
   </g>
   <g id="line2d_25">
    <path d="M 70.065795 510.181364 
L 70.200722 48.862732 
L 70.690716 48.756722 
L 70.768831 48.736845 
L 70.790136 48.736845 
L 73.211704 48.644085 
L 74.333721 48.610957 
L 80.4338 48.538075 
L 88.124588 48.471818 
L 675.656705 47.908636 
L 675.656705 47.908636 
" clip-path="url(#pca815818fe)" style="fill: none; stroke: #46327e; stroke-width: 2; stroke-linecap: round"/>
   </g>
   <g id="line2d_26">
    <path d="M 70.065795 510.181364 
L 70.165215 48.968743 
L 70.172316 48.968743 
L 71.770125 48.862732 
L 72.160701 48.809727 
L 78.019334 48.710342 
L 164.485654 48.180289 
L 345.954147 47.908636 
L 675.656705 47.908636 
L 675.656705 47.908636 
" clip-path="url(#pca815818fe)" style="fill: none; stroke: #365c8d; stroke-width: 2; stroke-linecap: round"/>
   </g>
   <g id="line2d_27">
    <path d="M 70.065795 510.181364 
L 70.165215 48.94224 
L 70.200722 48.849481 
L 70.200722 48.83623 
L 70.498979 48.697091 
L 73.509961 48.59108 
L 73.666192 48.584454 
L 83.643621 48.478444 
L 83.643621 48.471818 
L 83.750142 48.471818 
L 94.466114 48.365807 
L 94.55133 48.352556 
L 94.558432 48.352556 
L 120.81931 48.246545 
L 121.401623 48.220043 
L 153.095052 48.114032 
L 153.826493 48.107406 
L 232.467101 48.001396 
L 234.576208 47.99477 
L 675.656705 47.908636 
L 675.656705 47.908636 
" clip-path="url(#pca815818fe)" style="fill: none; stroke: #277f8e; stroke-width: 2; stroke-linecap: round"/>
   </g>
   <g id="line2d_28">
    <path d="M 70.065795 510.181364 
L 70.172316 49.015123 
L 70.236228 48.922363 
L 70.236228 48.915738 
L 70.342749 48.875984 
L 71.834037 48.769973 
L 72.217512 48.763347 
L 79.176857 48.657337 
L 80.497713 48.644085 
L 93.237576 48.538075 
L 106.694679 48.412187 
L 123.730873 48.306176 
L 125.861285 48.292925 
L 174.448881 48.186914 
L 224.179798 48.080904 
L 675.656705 48.014647 
L 675.656705 47.974893 
L 675.656705 47.908636 
L 675.656705 47.908636 
" clip-path="url(#pca815818fe)" style="fill: none; stroke: #1fa187; stroke-width: 2; stroke-linecap: round"/>
   </g>
   <g id="line2d_29">
    <path d="M 70.065795 510.181364 
L 675.656705 47.908636 
" clip-path="url(#pca815818fe)" style="fill: none; stroke-dasharray: 5.55,2.4; stroke-dashoffset: 0; stroke: #000000; stroke-width: 1.5"/>
   </g>
   <g id="patch_3">
    <path d="M 39.78625 533.295 
L 39.78625 24.795 
" style="fill: none; stroke: #cccccc; stroke-linejoin: miter; stroke-linecap: square"/>
   </g>
   <g id="patch_4">
    <path d="M 705.93625 533.295 
L 705.93625 24.795 
" style="fill: none; stroke: #cccccc; stroke-linejoin: miter; stroke-linecap: square"/>
   </g>
   <g id="patch_5">
    <path d="M 39.78625 533.295 
L 705.93625 533.295 
" style="fill: none; stroke: #cccccc; stroke-linejoin: miter; stroke-linecap: square"/>
   </g>
   <g id="patch_6">
    <path d="M 39.78625 24.795 
L 705.93625 24.795 
" style="fill: none; stroke: #cccccc; stroke-linejoin: miter; stroke-linecap: square"/>
   </g>
   <g id="text_15">
    <!-- ROC Curve Comparison for All Models -->
    <g style="fill: #262626" transform="translate(226.48375 18.795) scale(0.16 -0.16)">
     <defs>
      <path id="LiberationSans-Bold-52" d="M 3453 0 
L 2431 1672 
L 1350 1672 
L 1350 0 
L 428 0 
L 428 4403 
L 2628 4403 
Q 3416 4403 3844 4064 
Q 4272 3725 4272 3091 
Q 4272 2628 4009 2292 
Q 3747 1956 3300 1850 
L 4491 0 
L 3453 0 
z
M 3344 3053 
Q 3344 3688 2531 3688 
L 1350 3688 
L 1350 2388 
L 2556 2388 
Q 2944 2388 3144 2563 
Q 3344 2738 3344 3053 
z
" transform="scale(0.015625)"/>
      <path id="LiberationSans-Bold-4f" d="M 4709 2222 
Q 4709 1534 4437 1012 
Q 4166 491 3659 214 
Q 3153 -63 2478 -63 
Q 1441 -63 852 548 
Q 263 1159 263 2222 
Q 263 3281 850 3875 
Q 1438 4469 2484 4469 
Q 3531 4469 4120 3869 
Q 4709 3269 4709 2222 
z
M 3769 2222 
Q 3769 2934 3431 3339 
Q 3094 3744 2484 3744 
Q 1866 3744 1528 3342 
Q 1191 2941 1191 2222 
Q 1191 1497 1536 1080 
Q 1881 663 2478 663 
Q 3097 663 3433 1069 
Q 3769 1475 3769 2222 
z
" transform="scale(0.015625)"/>
      <path id="LiberationSans-Bold-43" d="M 2484 663 
Q 3319 663 3644 1500 
L 4447 1197 
Q 4188 559 3686 248 
Q 3184 -63 2484 -63 
Q 1422 -63 842 539 
Q 263 1141 263 2222 
Q 263 3306 822 3887 
Q 1381 4469 2444 4469 
Q 3219 4469 3706 4158 
Q 4194 3847 4391 3244 
L 3578 3022 
Q 3475 3353 3173 3548 
Q 2872 3744 2463 3744 
Q 1838 3744 1514 3356 
Q 1191 2969 1191 2222 
Q 1191 1463 1523 1063 
Q 1856 663 2484 663 
z
" transform="scale(0.015625)"/>
      <path id="LiberationSans-Bold-20" transform="scale(0.015625)"/>
      <path id="LiberationSans-Bold-75" d="M 1275 3381 
L 1275 1484 
Q 1275 594 1875 594 
Q 2194 594 2389 867 
Q 2584 1141 2584 1569 
L 2584 3381 
L 3463 3381 
L 3463 756 
Q 3463 325 3488 0 
L 2650 0 
Q 2613 450 2613 672 
L 2597 672 
Q 2422 288 2151 112 
Q 1881 -63 1509 -63 
Q 972 -63 684 267 
Q 397 597 397 1234 
L 397 3381 
L 1275 3381 
z
" transform="scale(0.015625)"/>
      <path id="LiberationSans-Bold-72" d="M 447 0 
L 447 2588 
Q 447 2866 439 3052 
Q 431 3238 422 3381 
L 1259 3381 
Q 1269 3325 1284 3039 
Q 1300 2753 1300 2659 
L 1313 2659 
Q 1441 3016 1541 3161 
Q 1641 3306 1778 3376 
Q 1916 3447 2122 3447 
Q 2291 3447 2394 3400 
L 2394 2666 
Q 2181 2713 2019 2713 
Q 1691 2713 1508 2447 
Q 1325 2181 1325 1659 
L 1325 0 
L 447 0 
z
" transform="scale(0.015625)"/>
      <path id="LiberationSans-Bold-76" d="M 2284 0 
L 1234 0 
L 25 3381 
L 953 3381 
L 1544 1491 
Q 1591 1334 1766 709 
Q 1797 838 1894 1159 
Q 1991 1481 2613 3381 
L 3531 3381 
L 2284 0 
z
" transform="scale(0.015625)"/>
      <path id="LiberationSans-Bold-65" d="M 1831 -63 
Q 1069 -63 659 389 
Q 250 841 250 1706 
Q 250 2544 665 2994 
Q 1081 3444 1844 3444 
Q 2572 3444 2956 2961 
Q 3341 2478 3341 1547 
L 3341 1522 
L 1172 1522 
Q 1172 1028 1355 776 
Q 1538 525 1875 525 
Q 2341 525 2463 928 
L 3291 856 
Q 2931 -63 1831 -63 
z
M 1831 2891 
Q 1522 2891 1355 2675 
Q 1188 2459 1178 2072 
L 2491 2072 
Q 2466 2481 2294 2686 
Q 2122 2891 1831 2891 
z
" transform="scale(0.015625)"/>
      <path id="LiberationSans-Bold-6f" d="M 3659 1694 
Q 3659 872 3203 404 
Q 2747 -63 1941 -63 
Q 1150 -63 700 406 
Q 250 875 250 1694 
Q 250 2509 700 2976 
Q 1150 3444 1959 3444 
Q 2788 3444 3223 2992 
Q 3659 2541 3659 1694 
z
M 2741 1694 
Q 2741 2297 2544 2569 
Q 2347 2841 1972 2841 
Q 1172 2841 1172 1694 
Q 1172 1128 1367 833 
Q 1563 538 1931 538 
Q 2741 538 2741 1694 
z
" transform="scale(0.015625)"/>
      <path id="LiberationSans-Bold-6d" d="M 2438 0 
L 2438 1897 
Q 2438 2788 1925 2788 
Q 1659 2788 1492 2516 
Q 1325 2244 1325 1813 
L 1325 0 
L 447 0 
L 447 2625 
Q 447 2897 439 3070 
Q 431 3244 422 3381 
L 1259 3381 
Q 1269 3322 1284 3064 
Q 1300 2806 1300 2709 
L 1313 2709 
Q 1475 3097 1717 3272 
Q 1959 3447 2297 3447 
Q 3072 3447 3238 2709 
L 3256 2709 
Q 3428 3103 3668 3275 
Q 3909 3447 4281 3447 
Q 4775 3447 5034 3111 
Q 5294 2775 5294 2147 
L 5294 0 
L 4422 0 
L 4422 1897 
Q 4422 2788 3909 2788 
Q 3653 2788 3489 2539 
Q 3325 2291 3309 1853 
L 3309 0 
L 2438 0 
z
" transform="scale(0.015625)"/>
      <path id="LiberationSans-Bold-70" d="M 3647 1706 
Q 3647 859 3308 398 
Q 2969 -63 2350 -63 
Q 1994 -63 1730 92 
Q 1466 247 1325 538 
L 1306 538 
Q 1325 444 1325 -31 
L 1325 -1328 
L 447 -1328 
L 447 2603 
Q 447 3081 422 3381 
L 1275 3381 
Q 1291 3325 1302 3159 
Q 1313 2994 1313 2831 
L 1325 2831 
Q 1622 3453 2406 3453 
Q 2997 3453 3322 2998 
Q 3647 2544 3647 1706 
z
M 2731 1706 
Q 2731 2844 2034 2844 
Q 1684 2844 1498 2537 
Q 1313 2231 1313 1681 
Q 1313 1134 1498 836 
Q 1684 538 2028 538 
Q 2731 538 2731 1706 
z
" transform="scale(0.015625)"/>
      <path id="LiberationSans-Bold-61" d="M 1228 -63 
Q 738 -63 463 204 
Q 188 472 188 956 
Q 188 1481 530 1756 
Q 872 2031 1522 2038 
L 2250 2050 
L 2250 2222 
Q 2250 2553 2134 2714 
Q 2019 2875 1756 2875 
Q 1513 2875 1398 2764 
Q 1284 2653 1256 2397 
L 341 2441 
Q 425 2934 792 3189 
Q 1159 3444 1794 3444 
Q 2434 3444 2781 3128 
Q 3128 2813 3128 2231 
L 3128 1000 
Q 3128 716 3192 608 
Q 3256 500 3406 500 
Q 3506 500 3600 519 
L 3600 44 
Q 3522 25 3459 9 
Q 3397 -6 3334 -15 
Q 3272 -25 3201 -31 
Q 3131 -38 3038 -38 
Q 2706 -38 2548 125 
Q 2391 288 2359 603 
L 2341 603 
Q 1972 -63 1228 -63 
z
M 2250 1566 
L 1800 1559 
Q 1494 1547 1366 1492 
Q 1238 1438 1170 1325 
Q 1103 1213 1103 1025 
Q 1103 784 1214 667 
Q 1325 550 1509 550 
Q 1716 550 1886 662 
Q 2056 775 2153 973 
Q 2250 1172 2250 1394 
L 2250 1566 
z
" transform="scale(0.015625)"/>
      <path id="LiberationSans-Bold-69" d="M 447 3991 
L 447 4638 
L 1325 4638 
L 1325 3991 
L 447 3991 
z
M 447 0 
L 447 3381 
L 1325 3381 
L 1325 0 
L 447 0 
z
" transform="scale(0.015625)"/>
      <path id="LiberationSans-Bold-73" d="M 3297 988 
Q 3297 497 2895 217 
Q 2494 -63 1784 -63 
Q 1088 -63 717 157 
Q 347 378 225 844 
L 997 959 
Q 1063 719 1223 619 
Q 1384 519 1784 519 
Q 2153 519 2322 612 
Q 2491 706 2491 906 
Q 2491 1069 2355 1164 
Q 2219 1259 1894 1325 
Q 1150 1472 890 1598 
Q 631 1725 495 1926 
Q 359 2128 359 2422 
Q 359 2906 732 3176 
Q 1106 3447 1791 3447 
Q 2394 3447 2761 3212 
Q 3128 2978 3219 2534 
L 2441 2453 
Q 2403 2659 2256 2761 
Q 2109 2863 1791 2863 
Q 1478 2863 1322 2783 
Q 1166 2703 1166 2516 
Q 1166 2369 1286 2283 
Q 1406 2197 1691 2141 
Q 2088 2059 2395 1973 
Q 2703 1888 2889 1769 
Q 3075 1650 3186 1464 
Q 3297 1278 3297 988 
z
" transform="scale(0.015625)"/>
      <path id="LiberationSans-Bold-6e" d="M 2638 0 
L 2638 1897 
Q 2638 2788 2034 2788 
Q 1716 2788 1520 2514 
Q 1325 2241 1325 1813 
L 1325 0 
L 447 0 
L 447 2625 
Q 447 2897 439 3070 
Q 431 3244 422 3381 
L 1259 3381 
Q 1269 3322 1284 3064 
Q 1300 2806 1300 2709 
L 1313 2709 
Q 1491 3097 1759 3272 
Q 2028 3447 2400 3447 
Q 2938 3447 3225 3115 
Q 3513 2784 3513 2147 
L 3513 0 
L 2638 0 
z
" transform="scale(0.015625)"/>
      <path id="LiberationSans-Bold-66" d="M 1478 2788 
L 1478 0 
L 603 0 
L 603 2788 
L 109 2788 
L 109 3381 
L 603 3381 
L 603 3734 
Q 603 4194 847 4416 
Q 1091 4638 1588 4638 
Q 1834 4638 2144 4588 
L 2144 4022 
Q 2016 4050 1888 4050 
Q 1663 4050 1570 3961 
Q 1478 3872 1478 3647 
L 1478 3381 
L 2144 3381 
L 2144 2788 
L 1478 2788 
z
" transform="scale(0.015625)"/>
      <path id="LiberationSans-Bold-41" d="M 3541 0 
L 3150 1125 
L 1472 1125 
L 1081 0 
L 159 0 
L 1766 4403 
L 2853 4403 
L 4453 0 
L 3541 0 
z
M 2309 3725 
L 2291 3656 
Q 2259 3544 2215 3400 
Q 2172 3256 1678 1819 
L 2944 1819 
L 2509 3084 
L 2375 3509 
L 2309 3725 
z
" transform="scale(0.015625)"/>
      <path id="LiberationSans-Bold-6c" d="M 447 0 
L 447 4638 
L 1325 4638 
L 1325 0 
L 447 0 
z
" transform="scale(0.015625)"/>
      <path id="LiberationSans-Bold-4d" d="M 4084 0 
L 4084 2669 
Q 4084 2759 4086 2850 
Q 4088 2941 4116 3628 
Q 3894 2788 3788 2456 
L 2994 0 
L 2338 0 
L 1544 2456 
L 1209 3628 
Q 1247 2903 1247 2669 
L 1247 0 
L 428 0 
L 428 4403 
L 1663 4403 
L 2450 1941 
L 2519 1703 
L 2669 1113 
L 2866 1819 
L 3675 4403 
L 4903 4403 
L 4903 0 
L 4084 0 
z
" transform="scale(0.015625)"/>
      <path id="LiberationSans-Bold-64" d="M 2638 0 
Q 2625 47 2608 236 
Q 2591 425 2591 550 
L 2578 550 
Q 2294 -63 1497 -63 
Q 906 -63 584 398 
Q 263 859 263 1688 
Q 263 2528 602 2986 
Q 941 3444 1563 3444 
Q 1922 3444 2183 3294 
Q 2444 3144 2584 2847 
L 2591 2847 
L 2584 3403 
L 2584 4638 
L 3463 4638 
L 3463 738 
Q 3463 425 3488 0 
L 2638 0 
z
M 2597 1709 
Q 2597 2256 2414 2551 
Q 2231 2847 1875 2847 
Q 1522 2847 1350 2561 
Q 1178 2275 1178 1688 
Q 1178 538 1869 538 
Q 2216 538 2406 842 
Q 2597 1147 2597 1709 
z
" transform="scale(0.015625)"/>
     </defs>
     <use xlink:href="#LiberationSans-Bold-52"/>
     <use xlink:href="#LiberationSans-Bold-4f" transform="translate(72.216797 0)"/>
     <use xlink:href="#LiberationSans-Bold-43" transform="translate(150 0)"/>
     <use xlink:href="#LiberationSans-Bold-20" transform="translate(222.216797 0)"/>
     <use xlink:href="#LiberationSans-Bold-43" transform="translate(250 0)"/>
     <use xlink:href="#LiberationSans-Bold-75" transform="translate(322.216797 0)"/>
     <use xlink:href="#LiberationSans-Bold-72" transform="translate(383.300781 0)"/>
     <use xlink:href="#LiberationSans-Bold-76" transform="translate(422.216797 0)"/>
     <use xlink:href="#LiberationSans-Bold-65" transform="translate(477.832031 0)"/>
     <use xlink:href="#LiberationSans-Bold-20" transform="translate(533.447266 0)"/>
     <use xlink:href="#LiberationSans-Bold-43" transform="translate(561.230469 0)"/>
     <use xlink:href="#LiberationSans-Bold-6f" transform="translate(633.447266 0)"/>
     <use xlink:href="#LiberationSans-Bold-6d" transform="translate(694.53125 0)"/>
     <use xlink:href="#LiberationSans-Bold-70" transform="translate(783.447266 0)"/>
     <use xlink:href="#LiberationSans-Bold-61" transform="translate(844.53125 0)"/>
     <use xlink:href="#LiberationSans-Bold-72" transform="translate(900.146484 0)"/>
     <use xlink:href="#LiberationSans-Bold-69" transform="translate(939.0625 0)"/>
     <use xlink:href="#LiberationSans-Bold-73" transform="translate(966.845703 0)"/>
     <use xlink:href="#LiberationSans-Bold-6f" transform="translate(1022.460938 0)"/>
     <use xlink:href="#LiberationSans-Bold-6e" transform="translate(1083.544922 0)"/>
     <use xlink:href="#LiberationSans-Bold-20" transform="translate(1144.628906 0)"/>
     <use xlink:href="#LiberationSans-Bold-66" transform="translate(1172.412109 0)"/>
     <use xlink:href="#LiberationSans-Bold-6f" transform="translate(1205.712891 0)"/>
     <use xlink:href="#LiberationSans-Bold-72" transform="translate(1266.796875 0)"/>
     <use xlink:href="#LiberationSans-Bold-20" transform="translate(1305.712891 0)"/>
     <use xlink:href="#LiberationSans-Bold-41" transform="translate(1329.746094 0)"/>
     <use xlink:href="#LiberationSans-Bold-6c" transform="translate(1401.962891 0)"/>
     <use xlink:href="#LiberationSans-Bold-6c" transform="translate(1429.746094 0)"/>
     <use xlink:href="#LiberationSans-Bold-20" transform="translate(1457.529297 0)"/>
     <use xlink:href="#LiberationSans-Bold-4d" transform="translate(1485.3125 0)"/>
     <use xlink:href="#LiberationSans-Bold-6f" transform="translate(1568.613281 0)"/>
     <use xlink:href="#LiberationSans-Bold-64" transform="translate(1629.697266 0)"/>
     <use xlink:href="#LiberationSans-Bold-65" transform="translate(1690.78125 0)"/>
     <use xlink:href="#LiberationSans-Bold-6c" transform="translate(1746.396484 0)"/>
     <use xlink:href="#LiberationSans-Bold-73" transform="translate(1774.179688 0)"/>
    </g>
   </g>
   <g id="legend_1">
    <g id="line2d_30">
     <path d="M 520.275313 461.4325 
L 530.275313 461.4325 
L 540.275313 461.4325 
" style="fill: none; stroke: #46327e; stroke-width: 2; stroke-linecap: round"/>
    </g>
    <g id="text_16">
     <!-- Random Forest (AUC = 0.999) -->
     <g style="fill: #262626" transform="translate(548.275313 464.9325) scale(0.1 -0.1)">
      <defs>
       <path id="LiberationSans-6e" d="M 2578 0 
L 2578 2144 
Q 2578 2478 2512 2662 
Q 2447 2847 2303 2928 
Q 2159 3009 1881 3009 
Q 1475 3009 1240 2731 
Q 1006 2453 1006 1959 
L 1006 0 
L 444 0 
L 444 2659 
Q 444 3250 425 3381 
L 956 3381 
Q 959 3366 962 3297 
Q 966 3228 970 3139 
Q 975 3050 981 2803 
L 991 2803 
Q 1184 3153 1439 3298 
Q 1694 3444 2072 3444 
Q 2628 3444 2886 3167 
Q 3144 2891 3144 2253 
L 3144 0 
L 2578 0 
z
" transform="scale(0.015625)"/>
       <path id="LiberationSans-64" d="M 2566 544 
Q 2409 219 2151 78 
Q 1894 -63 1513 -63 
Q 872 -63 570 368 
Q 269 800 269 1675 
Q 269 3444 1513 3444 
Q 1897 3444 2153 3303 
Q 2409 3163 2566 2856 
L 2572 2856 
L 2566 3234 
L 2566 4638 
L 3128 4638 
L 3128 697 
Q 3128 169 3147 0 
L 2609 0 
Q 2600 50 2589 231 
Q 2578 413 2578 544 
L 2566 544 
z
M 859 1694 
Q 859 984 1046 678 
Q 1234 372 1656 372 
Q 2134 372 2350 703 
Q 2566 1034 2566 1731 
Q 2566 2403 2350 2715 
Q 2134 3028 1663 3028 
Q 1238 3028 1048 2714 
Q 859 2400 859 1694 
z
" transform="scale(0.015625)"/>
       <path id="LiberationSans-6d" d="M 2400 0 
L 2400 2144 
Q 2400 2634 2265 2821 
Q 2131 3009 1781 3009 
Q 1422 3009 1212 2734 
Q 1003 2459 1003 1959 
L 1003 0 
L 444 0 
L 444 2659 
Q 444 3250 425 3381 
L 956 3381 
Q 959 3366 962 3297 
Q 966 3228 970 3139 
Q 975 3050 981 2803 
L 991 2803 
Q 1172 3163 1406 3303 
Q 1641 3444 1978 3444 
Q 2363 3444 2586 3291 
Q 2809 3138 2897 2803 
L 2906 2803 
Q 3081 3144 3329 3294 
Q 3578 3444 3931 3444 
Q 4444 3444 4676 3166 
Q 4909 2888 4909 2253 
L 4909 0 
L 4353 0 
L 4353 2144 
Q 4353 2634 4218 2821 
Q 4084 3009 3734 3009 
Q 3366 3009 3161 2736 
Q 2956 2463 2956 1959 
L 2956 0 
L 2400 0 
z
" transform="scale(0.015625)"/>
       <path id="LiberationSans-41" d="M 3647 0 
L 3144 1288 
L 1138 1288 
L 631 0 
L 13 0 
L 1809 4403 
L 2488 4403 
L 4256 0 
L 3647 0 
z
M 2141 3953 
L 2113 3866 
Q 2034 3606 1881 3200 
L 1319 1753 
L 2966 1753 
L 2400 3206 
Q 2313 3422 2225 3694 
L 2141 3953 
z
" transform="scale(0.015625)"/>
       <path id="LiberationSans-55" d="M 2284 -63 
Q 1744 -63 1341 134 
Q 938 331 716 706 
Q 494 1081 494 1600 
L 494 4403 
L 1091 4403 
L 1091 1650 
Q 1091 1047 1397 734 
Q 1703 422 2281 422 
Q 2875 422 3204 745 
Q 3534 1069 3534 1691 
L 3534 4403 
L 4128 4403 
L 4128 1656 
Q 4128 1122 3901 734 
Q 3675 347 3261 142 
Q 2847 -63 2284 -63 
z
" transform="scale(0.015625)"/>
       <path id="LiberationSans-43" d="M 2475 3981 
Q 1744 3981 1337 3511 
Q 931 3041 931 2222 
Q 931 1413 1354 920 
Q 1778 428 2500 428 
Q 3425 428 3891 1344 
L 4378 1100 
Q 4106 531 3614 234 
Q 3122 -63 2472 -63 
Q 1806 -63 1320 214 
Q 834 491 579 1005 
Q 325 1519 325 2222 
Q 325 3275 894 3872 
Q 1463 4469 2469 4469 
Q 3172 4469 3644 4194 
Q 4116 3919 4338 3378 
L 3772 3191 
Q 3619 3575 3280 3778 
Q 2941 3981 2475 3981 
z
" transform="scale(0.015625)"/>
       <path id="LiberationSans-3d" d="M 313 2675 
L 313 3138 
L 3422 3138 
L 3422 2675 
L 313 2675 
z
M 313 1075 
L 313 1538 
L 3422 1538 
L 3422 1075 
L 313 1075 
z
" transform="scale(0.015625)"/>
       <path id="LiberationSans-39" d="M 3256 2291 
Q 3256 1156 2842 546 
Q 2428 -63 1663 -63 
Q 1147 -63 836 154 
Q 525 372 391 856 
L 928 941 
Q 1097 391 1672 391 
Q 2156 391 2422 841 
Q 2688 1291 2700 2125 
Q 2575 1844 2272 1673 
Q 1969 1503 1606 1503 
Q 1013 1503 656 1909 
Q 300 2316 300 2988 
Q 300 3678 687 4073 
Q 1075 4469 1766 4469 
Q 2500 4469 2878 3925 
Q 3256 3381 3256 2291 
z
M 2644 2834 
Q 2644 3366 2400 3689 
Q 2156 4013 1747 4013 
Q 1341 4013 1106 3736 
Q 872 3459 872 2988 
Q 872 2506 1106 2226 
Q 1341 1947 1741 1947 
Q 1984 1947 2193 2058 
Q 2403 2169 2523 2372 
Q 2644 2575 2644 2834 
z
" transform="scale(0.015625)"/>
      </defs>
      <use xlink:href="#LiberationSans-52"/>
      <use xlink:href="#LiberationSans-61" transform="translate(72.216797 0)"/>
      <use xlink:href="#LiberationSans-6e" transform="translate(127.832031 0)"/>
      <use xlink:href="#LiberationSans-64" transform="translate(183.447266 0)"/>
      <use xlink:href="#LiberationSans-6f" transform="translate(239.0625 0)"/>
      <use xlink:href="#LiberationSans-6d" transform="translate(294.677734 0)"/>
      <use xlink:href="#LiberationSans-20" transform="translate(377.978516 0)"/>
      <use xlink:href="#LiberationSans-46" transform="translate(405.761719 0)"/>
      <use xlink:href="#LiberationSans-6f" transform="translate(466.845703 0)"/>
      <use xlink:href="#LiberationSans-72" transform="translate(522.460938 0)"/>
      <use xlink:href="#LiberationSans-65" transform="translate(555.761719 0)"/>
      <use xlink:href="#LiberationSans-73" transform="translate(611.376953 0)"/>
      <use xlink:href="#LiberationSans-74" transform="translate(661.376953 0)"/>
      <use xlink:href="#LiberationSans-20" transform="translate(689.160156 0)"/>
      <use xlink:href="#LiberationSans-28" transform="translate(716.943359 0)"/>
      <use xlink:href="#LiberationSans-41" transform="translate(750.244141 0)"/>
      <use xlink:href="#LiberationSans-55" transform="translate(816.943359 0)"/>
      <use xlink:href="#LiberationSans-43" transform="translate(889.160156 0)"/>
      <use xlink:href="#LiberationSans-20" transform="translate(961.376953 0)"/>
      <use xlink:href="#LiberationSans-3d" transform="translate(989.160156 0)"/>
      <use xlink:href="#LiberationSans-20" transform="translate(1047.558594 0)"/>
      <use xlink:href="#LiberationSans-30" transform="translate(1075.341797 0)"/>
      <use xlink:href="#LiberationSans-2e" transform="translate(1130.957031 0)"/>
      <use xlink:href="#LiberationSans-39" transform="translate(1158.740234 0)"/>
      <use xlink:href="#LiberationSans-39" transform="translate(1214.355469 0)"/>
      <use xlink:href="#LiberationSans-39" transform="translate(1269.970703 0)"/>
      <use xlink:href="#LiberationSans-29" transform="translate(1325.585938 0)"/>
     </g>
    </g>
    <g id="line2d_31">
     <path d="M 520.275313 475.754375 
L 530.275313 475.754375 
L 540.275313 475.754375 
" style="fill: none; stroke: #365c8d; stroke-width: 2; stroke-linecap: round"/>
    </g>
    <g id="text_17">
     <!-- Gradient Boosting (AUC = 1.000) -->
     <g style="fill: #262626" transform="translate(548.275313 479.254375) scale(0.1 -0.1)">
      <defs>
       <path id="LiberationSans-47" d="M 322 2222 
Q 322 3294 897 3881 
Q 1472 4469 2513 4469 
Q 3244 4469 3700 4222 
Q 4156 3975 4403 3431 
L 3834 3263 
Q 3647 3638 3317 3809 
Q 2988 3981 2497 3981 
Q 1734 3981 1331 3520 
Q 928 3059 928 2222 
Q 928 1388 1356 905 
Q 1784 422 2541 422 
Q 2972 422 3345 553 
Q 3719 684 3950 909 
L 3950 1703 
L 2634 1703 
L 2634 2203 
L 4500 2203 
L 4500 684 
Q 4150 328 3642 132 
Q 3134 -63 2541 -63 
Q 1850 -63 1350 212 
Q 850 488 586 1005 
Q 322 1522 322 2222 
z
" transform="scale(0.015625)"/>
       <path id="LiberationSans-42" d="M 3931 1241 
Q 3931 653 3503 326 
Q 3075 0 2313 0 
L 525 0 
L 525 4403 
L 2125 4403 
Q 3675 4403 3675 3334 
Q 3675 2944 3456 2678 
Q 3238 2413 2838 2322 
Q 3363 2259 3647 1970 
Q 3931 1681 3931 1241 
z
M 3075 3263 
Q 3075 3619 2831 3772 
Q 2588 3925 2125 3925 
L 1122 3925 
L 1122 2531 
L 2125 2531 
Q 2603 2531 2839 2711 
Q 3075 2891 3075 3263 
z
M 3328 1288 
Q 3328 2066 2234 2066 
L 1122 2066 
L 1122 478 
L 2281 478 
Q 2828 478 3078 681 
Q 3328 884 3328 1288 
z
" transform="scale(0.015625)"/>
       <path id="LiberationSans-67" d="M 1713 -1328 
Q 1159 -1328 831 -1111 
Q 503 -894 409 -494 
L 975 -413 
Q 1031 -647 1223 -773 
Q 1416 -900 1728 -900 
Q 2569 -900 2569 84 
L 2569 628 
L 2563 628 
Q 2403 303 2125 139 
Q 1847 -25 1475 -25 
Q 853 -25 561 387 
Q 269 800 269 1684 
Q 269 2581 583 3007 
Q 897 3434 1538 3434 
Q 1897 3434 2161 3270 
Q 2425 3106 2569 2803 
L 2575 2803 
Q 2575 2897 2587 3128 
Q 2600 3359 2613 3381 
L 3147 3381 
Q 3128 3213 3128 2681 
L 3128 97 
Q 3128 -1328 1713 -1328 
z
M 2569 1691 
Q 2569 2103 2456 2401 
Q 2344 2700 2139 2858 
Q 1934 3016 1675 3016 
Q 1244 3016 1047 2703 
Q 850 2391 850 1691 
Q 850 997 1034 694 
Q 1219 391 1666 391 
Q 1931 391 2137 547 
Q 2344 703 2456 995 
Q 2569 1288 2569 1691 
z
" transform="scale(0.015625)"/>
      </defs>
      <use xlink:href="#LiberationSans-47"/>
      <use xlink:href="#LiberationSans-72" transform="translate(77.783203 0)"/>
      <use xlink:href="#LiberationSans-61" transform="translate(111.083984 0)"/>
      <use xlink:href="#LiberationSans-64" transform="translate(166.699219 0)"/>
      <use xlink:href="#LiberationSans-69" transform="translate(222.314453 0)"/>
      <use xlink:href="#LiberationSans-65" transform="translate(244.53125 0)"/>
      <use xlink:href="#LiberationSans-6e" transform="translate(300.146484 0)"/>
      <use xlink:href="#LiberationSans-74" transform="translate(355.761719 0)"/>
      <use xlink:href="#LiberationSans-20" transform="translate(383.544922 0)"/>
      <use xlink:href="#LiberationSans-42" transform="translate(411.328125 0)"/>
      <use xlink:href="#LiberationSans-6f" transform="translate(478.027344 0)"/>
      <use xlink:href="#LiberationSans-6f" transform="translate(533.642578 0)"/>
      <use xlink:href="#LiberationSans-73" transform="translate(589.257812 0)"/>
      <use xlink:href="#LiberationSans-74" transform="translate(639.257812 0)"/>
      <use xlink:href="#LiberationSans-69" transform="translate(667.041016 0)"/>
      <use xlink:href="#LiberationSans-6e" transform="translate(689.257812 0)"/>
      <use xlink:href="#LiberationSans-67" transform="translate(744.873047 0)"/>
      <use xlink:href="#LiberationSans-20" transform="translate(800.488281 0)"/>
      <use xlink:href="#LiberationSans-28" transform="translate(828.271484 0)"/>
      <use xlink:href="#LiberationSans-41" transform="translate(861.572266 0)"/>
      <use xlink:href="#LiberationSans-55" transform="translate(928.271484 0)"/>
      <use xlink:href="#LiberationSans-43" transform="translate(1000.488281 0)"/>
      <use xlink:href="#LiberationSans-20" transform="translate(1072.705078 0)"/>
      <use xlink:href="#LiberationSans-3d" transform="translate(1100.488281 0)"/>
      <use xlink:href="#LiberationSans-20" transform="translate(1158.886719 0)"/>
      <use xlink:href="#LiberationSans-31" transform="translate(1186.669922 0)"/>
      <use xlink:href="#LiberationSans-2e" transform="translate(1242.285156 0)"/>
      <use xlink:href="#LiberationSans-30" transform="translate(1270.068359 0)"/>
      <use xlink:href="#LiberationSans-30" transform="translate(1325.683594 0)"/>
      <use xlink:href="#LiberationSans-30" transform="translate(1381.298828 0)"/>
      <use xlink:href="#LiberationSans-29" transform="translate(1436.914062 0)"/>
     </g>
    </g>
    <g id="line2d_32">
     <path d="M 520.275313 490.07625 
L 530.275313 490.07625 
L 540.275313 490.07625 
" style="fill: none; stroke: #277f8e; stroke-width: 2; stroke-linecap: round"/>
    </g>
    <g id="text_18">
     <!-- XGBoost (AUC = 1.000) -->
     <g style="fill: #262626" transform="translate(548.275313 493.57625) scale(0.1 -0.1)">
      <defs>
       <path id="LiberationSans-58" d="M 3475 0 
L 2153 1925 
L 803 0 
L 144 0 
L 1819 2288 
L 272 4403 
L 931 4403 
L 2156 2675 
L 3347 4403 
L 4006 4403 
L 2500 2309 
L 4134 0 
L 3475 0 
z
" transform="scale(0.015625)"/>
      </defs>
      <use xlink:href="#LiberationSans-58"/>
      <use xlink:href="#LiberationSans-47" transform="translate(66.699219 0)"/>
      <use xlink:href="#LiberationSans-42" transform="translate(144.482422 0)"/>
      <use xlink:href="#LiberationSans-6f" transform="translate(211.181641 0)"/>
      <use xlink:href="#LiberationSans-6f" transform="translate(266.796875 0)"/>
      <use xlink:href="#LiberationSans-73" transform="translate(322.412109 0)"/>
      <use xlink:href="#LiberationSans-74" transform="translate(372.412109 0)"/>
      <use xlink:href="#LiberationSans-20" transform="translate(400.195312 0)"/>
      <use xlink:href="#LiberationSans-28" transform="translate(427.978516 0)"/>
      <use xlink:href="#LiberationSans-41" transform="translate(461.279297 0)"/>
      <use xlink:href="#LiberationSans-55" transform="translate(527.978516 0)"/>
      <use xlink:href="#LiberationSans-43" transform="translate(600.195312 0)"/>
      <use xlink:href="#LiberationSans-20" transform="translate(672.412109 0)"/>
      <use xlink:href="#LiberationSans-3d" transform="translate(700.195312 0)"/>
      <use xlink:href="#LiberationSans-20" transform="translate(758.59375 0)"/>
      <use xlink:href="#LiberationSans-31" transform="translate(786.376953 0)"/>
      <use xlink:href="#LiberationSans-2e" transform="translate(841.992188 0)"/>
      <use xlink:href="#LiberationSans-30" transform="translate(869.775391 0)"/>
      <use xlink:href="#LiberationSans-30" transform="translate(925.390625 0)"/>
      <use xlink:href="#LiberationSans-30" transform="translate(981.005859 0)"/>
      <use xlink:href="#LiberationSans-29" transform="translate(1036.621094 0)"/>
     </g>
    </g>
    <g id="line2d_33">
     <path d="M 520.275313 504.398125 
L 530.275313 504.398125 
L 540.275313 504.398125 
" style="fill: none; stroke: #1fa187; stroke-width: 2; stroke-linecap: round"/>
    </g>
    <g id="text_19">
     <!-- LightGBM (AUC = 1.000) -->
     <g style="fill: #262626" transform="translate(548.275313 507.898125) scale(0.1 -0.1)">
      <defs>
       <path id="LiberationSans-4c" d="M 525 0 
L 525 4403 
L 1122 4403 
L 1122 488 
L 3347 488 
L 3347 0 
L 525 0 
z
" transform="scale(0.015625)"/>
       <path id="LiberationSans-68" d="M 991 2803 
Q 1172 3134 1426 3289 
Q 1681 3444 2072 3444 
Q 2622 3444 2883 3170 
Q 3144 2897 3144 2253 
L 3144 0 
L 2578 0 
L 2578 2144 
Q 2578 2500 2512 2673 
Q 2447 2847 2297 2928 
Q 2147 3009 1881 3009 
Q 1484 3009 1245 2734 
Q 1006 2459 1006 1994 
L 1006 0 
L 444 0 
L 444 4638 
L 1006 4638 
L 1006 3431 
Q 1006 3241 995 3037 
Q 984 2834 981 2803 
L 991 2803 
z
" transform="scale(0.015625)"/>
       <path id="LiberationSans-4d" d="M 4269 0 
L 4269 2938 
Q 4269 3425 4297 3875 
Q 4144 3316 4022 3000 
L 2884 0 
L 2466 0 
L 1313 3000 
L 1138 3531 
L 1034 3875 
L 1044 3528 
L 1056 2938 
L 1056 0 
L 525 0 
L 525 4403 
L 1309 4403 
L 2481 1350 
Q 2544 1166 2601 955 
Q 2659 744 2678 650 
Q 2703 775 2783 1029 
Q 2863 1284 2891 1350 
L 4041 4403 
L 4806 4403 
L 4806 0 
L 4269 0 
z
" transform="scale(0.015625)"/>
      </defs>
      <use xlink:href="#LiberationSans-4c"/>
      <use xlink:href="#LiberationSans-69" transform="translate(55.615234 0)"/>
      <use xlink:href="#LiberationSans-67" transform="translate(77.832031 0)"/>
      <use xlink:href="#LiberationSans-68" transform="translate(133.447266 0)"/>
      <use xlink:href="#LiberationSans-74" transform="translate(189.0625 0)"/>
      <use xlink:href="#LiberationSans-47" transform="translate(216.845703 0)"/>
      <use xlink:href="#LiberationSans-42" transform="translate(294.628906 0)"/>
      <use xlink:href="#LiberationSans-4d" transform="translate(361.328125 0)"/>
      <use xlink:href="#LiberationSans-20" transform="translate(444.628906 0)"/>
      <use xlink:href="#LiberationSans-28" transform="translate(472.412109 0)"/>
      <use xlink:href="#LiberationSans-41" transform="translate(505.712891 0)"/>
      <use xlink:href="#LiberationSans-55" transform="translate(572.412109 0)"/>
      <use xlink:href="#LiberationSans-43" transform="translate(644.628906 0)"/>
      <use xlink:href="#LiberationSans-20" transform="translate(716.845703 0)"/>
      <use xlink:href="#LiberationSans-3d" transform="translate(744.628906 0)"/>
      <use xlink:href="#LiberationSans-20" transform="translate(803.027344 0)"/>
      <use xlink:href="#LiberationSans-31" transform="translate(830.810547 0)"/>
      <use xlink:href="#LiberationSans-2e" transform="translate(886.425781 0)"/>
      <use xlink:href="#LiberationSans-30" transform="translate(914.208984 0)"/>
      <use xlink:href="#LiberationSans-30" transform="translate(969.824219 0)"/>
      <use xlink:href="#LiberationSans-30" transform="translate(1025.439453 0)"/>
      <use xlink:href="#LiberationSans-29" transform="translate(1081.054688 0)"/>
     </g>
    </g>
    <g id="line2d_34">
     <path d="M 520.275313 518.72 
L 530.275313 518.72 
L 540.275313 518.72 
" style="fill: none; stroke-dasharray: 5.55,2.4; stroke-dashoffset: 0; stroke: #000000; stroke-width: 1.5"/>
    </g>
    <g id="text_20">
     <!-- Random Classifier (AUC = 0.500) -->
     <g style="fill: #262626" transform="translate(548.275313 522.22) scale(0.1 -0.1)">
      <defs>
       <path id="LiberationSans-35" d="M 3291 1434 
Q 3291 738 2877 337 
Q 2463 -63 1728 -63 
Q 1113 -63 734 206 
Q 356 475 256 984 
L 825 1050 
Q 1003 397 1741 397 
Q 2194 397 2450 670 
Q 2706 944 2706 1422 
Q 2706 1838 2448 2094 
Q 2191 2350 1753 2350 
Q 1525 2350 1328 2278 
Q 1131 2206 934 2034 
L 384 2034 
L 531 4403 
L 3034 4403 
L 3034 3925 
L 1044 3925 
L 959 2528 
Q 1325 2809 1869 2809 
Q 2519 2809 2905 2428 
Q 3291 2047 3291 1434 
z
" transform="scale(0.015625)"/>
      </defs>
      <use xlink:href="#LiberationSans-52"/>
      <use xlink:href="#LiberationSans-61" transform="translate(72.216797 0)"/>
      <use xlink:href="#LiberationSans-6e" transform="translate(127.832031 0)"/>
      <use xlink:href="#LiberationSans-64" transform="translate(183.447266 0)"/>
      <use xlink:href="#LiberationSans-6f" transform="translate(239.0625 0)"/>
      <use xlink:href="#LiberationSans-6d" transform="translate(294.677734 0)"/>
      <use xlink:href="#LiberationSans-20" transform="translate(377.978516 0)"/>
      <use xlink:href="#LiberationSans-43" transform="translate(405.761719 0)"/>
      <use xlink:href="#LiberationSans-6c" transform="translate(477.978516 0)"/>
      <use xlink:href="#LiberationSans-61" transform="translate(500.195312 0)"/>
      <use xlink:href="#LiberationSans-73" transform="translate(555.810547 0)"/>
      <use xlink:href="#LiberationSans-73" transform="translate(605.810547 0)"/>
      <use xlink:href="#LiberationSans-69" transform="translate(655.810547 0)"/>
      <use xlink:href="#LiberationSans-66" transform="translate(678.027344 0)"/>
      <use xlink:href="#LiberationSans-69" transform="translate(705.810547 0)"/>
      <use xlink:href="#LiberationSans-65" transform="translate(728.027344 0)"/>
      <use xlink:href="#LiberationSans-72" transform="translate(783.642578 0)"/>
      <use xlink:href="#LiberationSans-20" transform="translate(816.943359 0)"/>
      <use xlink:href="#LiberationSans-28" transform="translate(844.726562 0)"/>
      <use xlink:href="#LiberationSans-41" transform="translate(878.027344 0)"/>
      <use xlink:href="#LiberationSans-55" transform="translate(944.726562 0)"/>
      <use xlink:href="#LiberationSans-43" transform="translate(1016.943359 0)"/>
      <use xlink:href="#LiberationSans-20" transform="translate(1089.160156 0)"/>
      <use xlink:href="#LiberationSans-3d" transform="translate(1116.943359 0)"/>
      <use xlink:href="#LiberationSans-20" transform="translate(1175.341797 0)"/>
      <use xlink:href="#LiberationSans-30" transform="translate(1203.125 0)"/>
      <use xlink:href="#LiberationSans-2e" transform="translate(1258.740234 0)"/>
      <use xlink:href="#LiberationSans-35" transform="translate(1286.523438 0)"/>
      <use xlink:href="#LiberationSans-30" transform="translate(1342.138672 0)"/>
      <use xlink:href="#LiberationSans-30" transform="translate(1397.753906 0)"/>
      <use xlink:href="#LiberationSans-29" transform="translate(1453.369141 0)"/>
     </g>
    </g>
   </g>
  </g>
 </g>
 <defs>
  <clipPath id="pca815818fe">
   <rect x="39.78625" y="24.795" width="666.15" height="508.5"/>
  </clipPath>
 </defs>
</svg>
